<?xml version="1.0" standalone="no"?>
<!DOCTYPE svg PUBLIC "-//W3C//DTD SVG 20010904//EN"
 "http://www.w3.org/TR/2001/REC-SVG-20010904/DTD/svg10.dtd">
<svg version="1.0" xmlns="http://www.w3.org/2000/svg"
 width="1000.000000pt" height="1000.000000pt" viewBox="0 0 1000.000000 1000.000000"
 preserveAspectRatio="xMidYMid meet">
<metadata>
Created by potrace 1.14, written by Peter Selinger 2001-2017
</metadata>
<g transform="translate(0.000000,1000.000000) scale(0.100000,-0.100000)"
fill="#000000" stroke="none">
<path d="M3234 7987 c-18 -16 -27 -34 -27 -53 0 -22 179 -306 693 -1099 381
-589 708 -1101 726 -1140 62 -130 66 -159 71 -502 l5 -313 -207 0 -207 0 47
45 c65 64 100 142 99 225 0 142 -88 249 -279 341 -93 44 -113 70 -140 172 -10
39 -30 85 -49 108 -17 23 -36 49 -41 58 -6 9 -14 23 -20 31 -5 8 -8 23 -7 33
2 10 -1 24 -7 30 -5 7 -9 26 -9 42 1 17 -2 39 -6 51 -4 14 0 26 14 39 26 23
26 59 0 85 -16 16 -20 33 -20 90 0 63 -2 70 -20 70 -18 0 -20 -7 -20 -73 0
-61 -3 -74 -20 -85 -28 -17 -27 -76 1 -95 18 -13 19 -18 9 -37 -7 -12 -9 -35
-6 -51 3 -15 1 -31 -5 -35 -6 -3 -9 -17 -7 -29 2 -16 -9 -39 -33 -67 -52 -63
-83 -128 -103 -220 -11 -47 -55 -87 -150 -132 -108 -52 -180 -113 -221 -188
-27 -47 -30 -62 -30 -138 0 -75 3 -91 29 -138 16 -29 49 -71 73 -92 l43 -40
-125 0 -125 0 0 146 c0 83 -5 154 -11 165 -7 13 -10 226 -10 652 1 612 0 633
-19 665 -11 17 -24 32 -30 32 -6 0 -10 28 -10 66 0 86 -10 104 -60 104 -50 0
-60 -18 -60 -104 0 -38 -4 -66 -10 -66 -6 0 -19 -15 -30 -32 -19 -32 -20 -53
-19 -665 0 -426 -3 -639 -10 -652 -6 -11 -11 -82 -11 -165 l0 -146 -104 0
-104 0 -4 103 c-4 95 -2 104 20 135 13 18 39 65 57 105 105 230 61 481 -118
673 -99 106 -246 197 -369 227 -39 10 -98 65 -119 112 -10 22 -19 63 -19 90
-1 99 -51 265 -80 265 -6 0 -5 10 2 25 9 20 8 28 -6 44 -13 14 -16 28 -11 50
4 20 1 42 -9 63 -13 25 -14 33 -4 40 7 4 16 8 19 8 8 0 29 48 29 66 0 9 -13
29 -30 46 -29 28 -30 33 -30 119 0 82 -1 89 -20 89 -19 0 -20 -7 -20 -90 0
-86 -1 -92 -27 -114 -37 -32 -36 -81 1 -113 23 -20 26 -26 15 -39 -7 -8 -12
-36 -11 -62 0 -26 -4 -53 -10 -60 -6 -6 -8 -25 -5 -41 4 -19 1 -33 -8 -41 -27
-23 -57 -124 -65 -220 -8 -107 -32 -166 -79 -201 -16 -12 -72 -38 -124 -59
-235 -92 -408 -274 -462 -485 -19 -77 -19 -211 1 -288 17 -67 63 -164 101
-214 19 -26 22 -37 13 -52 -5 -11 -10 -56 -10 -100 l0 -81 -210 0 -210 0 0
-27 c0 -16 3 -52 6 -80 l7 -53 1308 0 1309 0 0 -224 0 -225 -59 -36 c-159 -96
-247 -120 -441 -120 -209 0 -293 26 -494 155 -193 122 -297 154 -506 154 -208
0 -313 -32 -505 -154 -177 -113 -266 -146 -424 -157 l-93 -6 6 -41 c4 -22 9
-42 12 -45 10 -11 211 21 282 44 45 15 135 61 217 110 77 46 165 95 195 109
166 74 454 74 620 0 30 -14 118 -63 195 -109 82 -49 172 -95 217 -110 227 -75
506 -49 700 66 36 21 69 39 72 39 3 0 6 -18 6 -39 0 -35 -4 -42 -47 -69 -80
-51 -195 -101 -268 -117 -90 -19 -280 -19 -370 0 -81 17 -189 66 -295 134
-203 130 -309 164 -520 164 -211 0 -317 -34 -520 -164 -153 -98 -294 -148
-413 -149 -41 0 -48 -3 -43 -17 3 -10 8 -31 12 -47 l7 -28 65 7 c138 15 252
59 413 161 103 64 213 116 289 135 73 18 307 18 380 0 76 -19 186 -71 289
-135 206 -131 304 -161 521 -161 187 0 240 12 393 88 l107 54 0 -33 c0 -28 -7
-38 -42 -62 -103 -71 -235 -122 -283 -111 -39 9 -311 9 -350 0 -54 -13 -150
28 -325 137 -176 110 -313 152 -500 152 -187 0 -324 -42 -500 -152 -186 -116
-269 -150 -335 -136 -22 5 -54 8 -72 6 l-31 -3 32 -90 c18 -49 39 -110 47
-134 15 -43 17 -45 83 -63 81 -22 119 -41 251 -122 l100 -61 -59 -3 c-51 -3
-68 2 -125 31 -70 37 -165 71 -181 65 -5 -2 13 -49 40 -105 l49 -103 485 0
486 0 0 -404 c0 -307 -3 -407 -12 -412 -7 -4 -28 -10 -46 -13 l-35 -6 66 -70
65 -70 56 55 56 54 0 598 0 598 95 0 95 0 0 -120 c0 -66 1 -120 3 -120 2 0 25
7 51 16 72 25 195 15 264 -20 67 -34 123 -90 159 -158 25 -48 28 -63 28 -153
0 -90 -3 -105 -27 -150 -15 -27 -38 -63 -51 -80 l-25 -30 28 -35 c62 -80 75
-117 75 -225 0 -90 -3 -105 -27 -152 -42 -79 -82 -119 -160 -158 -63 -31 -79
-35 -148 -35 -85 0 -143 16 -204 56 l-39 26 -46 -46 -46 -46 30 -26 c52 -43
327 -249 390 -291 416 -277 931 -486 1429 -578 258 -47 401 -59 706 -59 305 0
448 12 706 59 596 110 1202 382 1658 745 l74 59 87 -105 c48 -57 100 -111 115
-119 69 -35 165 -2 200 69 20 43 21 54 18 509 -3 452 -4 466 -24 493 -45 61
-65 69 -196 72 -153 5 -180 -1 -223 -44 -20 -19 -39 -33 -43 -30 -5 3 -55 62
-112 131 -84 101 -112 128 -147 141 -57 22 -104 12 -153 -32 l-39 -36 -46 32
c-58 40 -135 75 -205 94 -49 13 49 15 988 15 l1043 1 49 103 c27 56 45 103 40
105 -16 6 -111 -28 -181 -65 -57 -29 -74 -34 -125 -31 l-59 3 100 61 c132 81
170 100 251 122 66 18 68 20 83 63 8 24 29 85 47 134 l32 90 -31 3 c-18 2 -50
-1 -72 -6 -66 -14 -149 20 -335 136 -176 110 -313 152 -500 152 -187 0 -324
-42 -500 -152 -175 -109 -271 -150 -325 -137 -39 9 -311 9 -350 0 -48 -11
-180 40 -282 111 -36 24 -43 34 -43 62 l0 33 108 -54 c152 -76 205 -88 392
-88 217 0 315 30 521 161 103 64 213 116 289 135 33 9 109 14 190 14 81 0 157
-5 190 -14 76 -19 186 -71 289 -135 161 -102 275 -146 413 -161 l65 -7 7 28
c4 16 9 37 12 47 5 14 -2 17 -43 17 -119 1 -260 51 -413 149 -203 130 -309
164 -520 164 -211 0 -317 -34 -520 -164 -106 -68 -214 -117 -295 -134 -90 -19
-280 -19 -370 0 -73 16 -188 66 -267 117 -44 27 -48 34 -48 69 0 21 3 39 6 39
3 0 36 -18 72 -39 194 -115 473 -141 700 -66 45 15 135 61 217 110 77 46 165
95 195 109 166 74 454 74 620 0 30 -14 118 -63 195 -109 82 -49 172 -95 217
-110 71 -23 272 -55 282 -44 3 3 8 23 12 45 l6 41 -93 6 c-158 11 -247 44
-424 157 -192 122 -297 154 -505 154 -209 0 -313 -32 -506 -154 -201 -129
-285 -155 -494 -155 -194 0 -282 24 -441 120 l-59 36 0 225 0 224 1309 0 1308
0 7 53 c3 28 6 64 6 80 l0 27 -315 0 -315 0 0 105 0 105 379 0 380 0 20 26
c26 33 27 75 2 105 l-19 24 -311 -4 -311 -3 0 66 0 66 -80 0 -80 0 0 241 c0
146 -4 248 -10 260 -14 25 -56 25 -70 -1 -10 -19 -21 -20 -180 -20 l-170 0 0
30 c0 25 -4 30 -24 30 -20 0 -26 7 -35 46 -18 72 -44 115 -105 172 -72 68
-194 127 -312 151 l-89 18 -33 58 c-31 55 -32 60 -19 88 16 32 13 60 -9 78
-10 8 -14 36 -14 95 0 83 0 84 -25 84 -25 0 -25 -1 -25 -80 0 -67 -3 -83 -20
-100 -24 -24 -25 -48 -4 -78 14 -20 13 -26 -21 -87 -32 -56 -41 -65 -65 -65
-48 0 -202 -50 -270 -87 -113 -64 -191 -159 -206 -252 -5 -34 -10 -40 -33 -43
-20 -2 -27 -9 -29 -30 l-3 -28 -170 0 c-143 0 -169 2 -169 15 0 20 -46 30 -65
15 -13 -10 -15 -53 -15 -261 l0 -249 -90 0 -90 0 0 -65 c0 -51 -3 -65 -15 -65
-27 0 -55 -38 -55 -74 0 -55 35 -76 126 -76 l74 0 0 -105 0 -105 -471 0 -471
0 5 313 c5 343 9 372 71 502 18 39 345 551 726 1140 514 793 693 1077 693
1099 0 19 -9 37 -27 53 l-27 23 -1739 0 -1739 0 -27 -23z m3315 -174 c-13 -21
-86 -135 -164 -253 -77 -118 -158 -243 -180 -277 l-40 -63 -386 0 -386 0 -33
46 c-45 63 -136 128 -216 154 -181 61 -398 -6 -504 -154 l-33 -46 -183 0
c-140 0 -183 3 -187 13 -3 7 -90 143 -194 302 -104 160 -192 296 -197 303 -6
9 269 12 1359 12 l1367 0 -23 -37z m-1307 -643 c61 -17 68 -37 68 -180 0 -94
-4 -131 -15 -146 -20 -30 -94 -48 -166 -41 -67 6 -105 26 -119 63 -14 37 -12
224 3 254 26 53 134 76 229 50z m-352 -129 l0 -130 33 -3 c31 -3 32 -5 32 -48
l0 -45 -127 -3 -128 -3 0 51 0 50 35 0 35 0 0 79 c0 79 0 80 -27 83 -26 3 -28
7 -31 51 l-3 47 90 0 91 0 0 -129z m-340 -49 c0 -121 40 -222 123 -310 89 -93
201 -142 326 -142 120 0 221 41 309 123 93 89 142 201 142 328 l0 69 305 0
c288 0 305 -1 296 -17 -5 -10 -149 -232 -318 -493 l-309 -475 -218 0 -218 0
-269 415 c-148 228 -292 450 -319 493 l-50 77 100 0 100 0 0 -68z m-1480 -502
c20 -20 21 -30 16 -188 -2 -92 -4 -174 -4 -182 8 -448 7 -754 -3 -766 -6 -7
-7 -19 -2 -26 12 -20 24 -140 29 -300 l5 -148 -76 0 -76 0 5 148 c2 81 9 181
15 222 12 82 12 91 9 135 -3 27 -1 30 25 27 l27 -3 -2 318 -3 318 -25 0 c-22
0 -25 4 -22 30 4 47 3 58 -4 93 -8 40 11 82 38 82 16 0 18 10 18 120 0 112 -1
120 -19 120 -13 0 -21 -8 -23 -22 -2 -14 -6 -18 -10 -12 -10 16 20 54 43 54
10 0 28 -9 39 -20z m4367 -332 c13 -37 26 -106 29 -153 l7 -85 -91 0 -91 0 5
53 c9 91 25 171 45 215 16 38 22 43 46 40 25 -3 31 -11 50 -70z m-173 -18 c-8
-30 -18 -92 -21 -137 l-6 -83 -30 0 -30 0 7 61 c6 63 31 131 69 186 12 17 22
31 23 30 2 -1 -4 -27 -12 -57z m278 -22 c25 -51 48 -138 48 -178 0 -15 -7 -20
-29 -20 -28 0 -29 1 -35 73 -7 68 -19 138 -33 182 -11 38 22 -1 49 -57z m-379
0 c-14 -34 -30 -93 -36 -130 -10 -66 -11 -68 -40 -68 -29 0 -29 1 -23 43 9 57
46 135 86 180 17 20 33 37 35 37 1 0 -9 -28 -22 -62z m510 -67 c14 -31 27 -73
30 -93 6 -36 5 -38 -23 -38 -26 0 -30 4 -35 38 -11 71 -27 127 -46 172 l-20
45 35 -34 c19 -18 45 -59 59 -90z m-5547 61 c39 -38 68 -54 142 -81 299 -107
483 -365 445 -627 -14 -96 -72 -217 -142 -296 -28 -31 -51 -62 -51 -70 0 -21
21 -38 47 -38 21 0 23 -4 23 -60 l0 -60 -505 0 -505 0 0 80 0 80 30 0 30 0
-49 61 c-27 33 -59 80 -72 104 l-23 44 32 45 c18 24 32 53 32 63 0 10 -25 49
-56 87 l-56 68 12 65 c7 35 30 101 52 146 73 152 245 294 427 353 40 13 120
62 137 83 0 1 23 -21 50 -47z m4939 11 c-26 -39 -49 -102 -60 -165 -5 -34 -9
-38 -36 -38 -29 0 -30 2 -24 33 12 56 45 115 92 162 26 25 48 45 50 45 2 0 -8
-17 -22 -37z m730 -97 c14 -28 25 -63 25 -78 0 -24 -4 -28 -29 -28 -27 0 -29
3 -34 51 -4 28 -19 76 -34 107 -15 31 -29 62 -31 67 -15 34 83 -79 103 -119z
m115 -31 c27 -55 26 -75 -4 -75 -19 0 -24 6 -30 38 -3 21 -19 65 -35 96 l-29
58 39 -38 c22 -21 48 -57 59 -79z m-985 63 c-14 -24 -28 -64 -31 -90 -6 -42
-10 -48 -30 -48 -43 0 -25 68 37 143 41 50 53 47 24 -5z m-1915 -1228 l0
-1090 -226 0 -226 0 93 98 c106 110 147 181 180 310 19 76 20 106 17 733 -3
636 -4 656 -25 731 -23 80 -73 192 -118 266 l-27 42 166 0 166 0 0 -1090z
m2110 705 l0 -285 -160 0 -160 0 0 285 0 285 160 0 160 0 0 -285z m420 0 c0
-272 -1 -285 -19 -285 -14 0 -22 11 -30 43 -20 80 -90 124 -149 93 -36 -18
-62 -57 -69 -102 -5 -28 -10 -34 -29 -34 l-24 0 0 285 0 285 160 0 160 0 0
-285z m430 0 l0 -285 -160 0 -160 0 0 285 0 285 160 0 160 0 0 -285z m-1280
-30 l0 -255 -155 0 -155 0 0 255 0 255 155 0 155 0 0 -255z m1700 0 l0 -255
-160 0 -160 0 0 255 0 255 160 0 160 0 0 -255z m-4455 133 c36 -130 75 -175
206 -236 174 -83 248 -209 196 -334 -22 -52 -95 -122 -166 -157 l-60 -31 -226
0 c-153 0 -233 4 -248 12 -36 19 -92 67 -116 99 l-22 30 25 34 c14 18 26 37
26 41 0 4 -18 31 -40 61 l-41 53 19 43 c30 68 105 134 209 185 119 58 155 96
184 196 12 42 25 73 29 71 4 -2 15 -33 25 -67z m-2452 -248 l28 -40 -27 -35
c-14 -19 -30 -35 -34 -35 -4 0 -20 16 -35 36 l-27 35 27 40 c15 21 30 39 34
39 3 0 19 -18 34 -40z m2012 -280 c3 -11 -2 -31 -11 -45 l-17 -26 -23 28 -22
28 20 28 c21 30 41 25 53 -13z m2965 -125 l0 -105 -60 0 -60 0 0 105 0 105 60
0 60 0 0 -105z m220 0 l0 -105 -55 0 -55 0 0 105 0 105 55 0 55 0 0 -105z
m230 0 l0 -105 -60 0 -60 0 0 105 0 105 60 0 60 0 0 -105z m210 0 l0 -105 -55
0 -55 0 0 105 0 105 55 0 55 0 0 -105z m210 0 l0 -105 -55 0 -55 0 0 105 0
105 55 0 55 0 0 -105z m210 0 l0 -105 -50 0 -50 0 0 105 0 105 50 0 50 0 0
-105z m210 0 l0 -105 -50 0 -50 0 0 105 0 105 50 0 50 0 0 -105z m220 0 l0
-105 -55 0 -55 0 0 105 0 105 55 0 55 0 0 -105z m210 0 l0 -105 -55 0 -55 0 0
105 0 105 55 0 55 0 0 -105z m220 0 l0 -105 -60 0 -60 0 0 105 0 105 60 0 60
0 0 -105z m-3710 -522 c0 -245 -2 -261 -24 -325 -33 -94 -51 -116 -204 -265
l-137 -133 -332 0 -333 0 0 490 0 490 515 0 515 0 0 -257z m1650 -233 l0 -490
-332 0 -333 0 -137 133 c-153 149 -171 171 -204 265 -22 64 -24 80 -24 325 l0
257 515 0 515 0 0 -490z m-4172 -266 c105 -22 168 -49 294 -127 59 -36 126
-76 150 -88 l42 -21 -37 -19 -37 -19 -113 68 c-165 99 -280 132 -467 132 -187
0 -302 -33 -467 -132 l-113 -68 -37 19 -37 19 42 21 c24 12 91 52 150 88 123
76 190 106 288 126 92 20 247 21 342 1z m6000 0 c105 -22 168 -49 294 -127 59
-36 126 -76 150 -88 l42 -21 -37 -19 -37 -19 -113 68 c-165 99 -280 132 -467
132 -187 0 -302 -33 -467 -132 l-113 -68 -37 19 -37 19 42 21 c24 12 91 52
150 88 123 76 190 106 288 126 92 20 247 21 342 1z m-4668 -189 c0 -29 -6 -39
-39 -61 l-39 -25 -37 19 -38 19 74 41 c41 23 75 41 77 42 1 0 2 -16 2 -35z
m3119 -30 l35 -18 -38 -19 -38 -19 -39 25 c-33 22 -39 32 -39 62 l0 36 43 -25
c23 -13 58 -32 76 -42z m-4404 30 c33 -9 94 -32 135 -52 l75 -36 -35 -10 c-19
-5 -40 -13 -46 -18 -6 -5 -30 -1 -60 10 -82 31 -193 44 -331 38 -142 -6 -209
-21 -318 -71 -72 -33 -73 -34 -100 -16 l-28 18 59 38 c77 49 180 92 263 110
87 18 304 12 386 -11z m5949 11 c89 -18 189 -58 270 -110 l59 -38 -28 -18
c-27 -18 -28 -17 -101 16 -127 59 -180 69 -364 69 -184 0 -237 -10 -364 -69
-73 -33 -74 -34 -101 -16 l-28 18 59 38 c78 50 181 93 263 109 90 18 243 18
335 1z m-4964 -282 c83 -19 149 -49 275 -127 l100 -62 -59 -3 c-51 -3 -68 2
-125 31 -94 50 -188 76 -331 92 -69 8 -154 21 -190 30 -36 8 -75 15 -87 15
-48 0 -20 19 45 29 132 22 257 20 372 -5z m2000 0 c83 -19 149 -49 275 -127
l100 -62 -57 -3 c-51 -3 -68 2 -140 38 -128 62 -218 82 -378 82 -160 0 -250
-20 -378 -82 -72 -36 -89 -41 -140 -38 l-57 3 100 61 c127 79 167 98 240 119
119 35 300 38 435 9z m2000 0 c83 -19 149 -49 275 -127 l100 -62 -57 -3 c-51
-3 -68 2 -140 38 -128 62 -218 82 -378 82 -160 0 -250 -20 -378 -82 -72 -36
-89 -41 -140 -38 l-57 3 100 61 c127 79 167 98 240 119 119 35 300 38 435 9z
m-3555 -323 c-22 -10 -54 -30 -72 -45 -36 -31 -83 -118 -83 -156 0 -23 -7 -28
-62 -46 -35 -10 -66 -19 -69 -19 -3 0 -22 14 -42 32 -32 28 -38 41 -47 100 -6
37 -20 87 -30 110 l-19 43 232 0 232 0 -40 -19z m2715 3 c-110 -29 -199 -81
-289 -171 -64 -64 -90 -83 -111 -83 -27 0 -28 2 -32 65 -4 69 -21 101 -72 139
-24 18 -45 21 -159 24 -122 3 -135 2 -176 -20 -57 -30 -81 -75 -81 -150 l0
-58 -109 0 c-116 0 -152 -8 -188 -42 l-23 -21 0 89 c0 110 -17 148 -81 182
-41 22 -54 23 -176 20 -114 -3 -135 -6 -159 -24 -42 -31 -65 -67 -71 -111 -5
-40 -6 -41 -50 -46 -32 -3 -54 -13 -77 -36 l-32 -31 -57 19 c-117 41 -244 36
-352 -13 l-51 -23 0 51 c-2 97 -59 187 -146 230 l-52 26 1300 -1 c1152 0 1293
-2 1244 -15z m-2534 -168 c28 -28 34 -42 34 -76 0 -34 -6 -48 -34 -76 -69 -69
-172 -31 -183 69 -5 43 -3 49 30 82 29 29 42 35 77 35 34 0 48 -6 76 -34z
m2809 19 c209 -55 355 -244 355 -459 0 -132 -47 -244 -139 -337 -187 -186
-484 -186 -671 1 -187 187 -187 483 0 670 120 120 291 167 455 125z m-1665
-240 l0 -205 135 0 135 0 0 95 0 95 95 0 95 0 0 -325 0 -325 -95 0 -95 0 0
140 0 140 -135 0 -135 0 0 -140 0 -140 -95 0 -95 0 0 435 0 435 95 0 95 0 0
-205z m810 95 l0 -110 95 0 95 0 0 -95 0 -95 -95 0 -95 0 0 -93 c0 -71 4 -100
19 -127 21 -41 89 -80 138 -80 l33 0 0 -91 0 -92 -68 5 c-81 6 -174 50 -224
107 -60 69 -82 133 -86 259 l-4 112 -44 0 -44 0 0 95 0 95 45 0 45 0 0 110 0
110 95 0 95 0 0 -110z m1525 -199 l210 -253 3 171 2 171 90 0 90 0 0 -426 0
-426 -222 268 -223 269 -3 -168 -2 -167 -95 0 -95 0 0 428 c1 405 2 426 18
407 9 -11 112 -135 227 -274z m-4024 83 l57 -56 38 26 c53 35 118 56 170 56
l44 0 0 -89 0 -88 -38 -7 c-52 -8 -103 -44 -124 -86 -15 -30 -18 -64 -18 -217
l0 -183 -95 0 -95 0 0 223 0 223 -65 64 -65 64 62 63 c34 35 65 63 67 63 3 0
31 -25 62 -56z m1397 -7 l62 -63 -64 -63 -64 -64 -4 -196 c-3 -188 -4 -198
-30 -253 -53 -113 -163 -191 -286 -204 l-62 -7 0 95 0 95 -41 7 c-98 16 -197
96 -246 201 -24 52 -28 72 -27 145 1 104 22 157 91 231 67 72 129 101 226 107
90 5 147 -8 214 -50 l46 -30 56 56 c31 31 58 56 61 56 3 0 34 -28 68 -63z
m-838 -312 l0 -325 -90 0 -90 0 0 325 0 325 90 0 90 0 0 -325z"/>
<path d="M5124 7067 c-3 -8 -4 -47 -2 -88 3 -69 5 -74 26 -77 40 -6 52 14 52
87 0 39 -5 72 -12 79 -16 16 -57 15 -64 -1z"/>
<path d="M1652 5430 c-28 -38 -52 -74 -52 -78 0 -20 102 -142 118 -142 17 1
112 120 112 141 0 18 -100 149 -114 149 -6 0 -35 -31 -64 -70z m96 -117 l-31
-42 -28 37 c-16 20 -29 41 -29 45 0 5 12 24 27 44 l27 35 32 -38 32 -38 -30
-43z"/>
<path d="M1920 5434 c-27 -37 -50 -73 -50 -81 0 -22 94 -142 112 -143 9 0 39
31 68 71 l53 70 -36 52 c-43 62 -74 97 -87 97 -5 0 -32 -30 -60 -66z m95 -44
l27 -39 -30 -41 -30 -41 -30 42 -31 42 30 38 c17 22 32 39 33 39 2 0 16 -18
31 -40z"/>
<path d="M2191 5438 c-28 -35 -50 -71 -51 -82 0 -25 90 -146 110 -146 18 0
110 119 110 142 0 18 -97 148 -110 148 -5 0 -32 -28 -59 -62z m91 -47 l27 -38
-26 -36 c-14 -21 -29 -37 -33 -37 -4 0 -20 16 -35 36 l-27 35 27 40 c15 21 30
39 34 39 3 0 18 -18 33 -39z"/>
<path d="M2452 5430 c-28 -38 -52 -74 -52 -78 0 -18 101 -142 115 -142 15 0
115 125 115 143 0 16 -101 147 -114 147 -6 0 -35 -31 -64 -70z m95 -117 l-31
-44 -23 28 c-36 44 -37 59 -7 99 l28 36 32 -38 32 -38 -31 -43z"/>
<path d="M6906 5709 c-39 -31 -56 -71 -56 -134 0 -63 17 -103 56 -134 49 -39
115 -17 149 49 8 16 15 54 15 85 0 31 -7 69 -15 85 -20 39 -62 70 -95 70 -15
0 -39 -9 -54 -21z m92 -141 c7 -7 12 -24 12 -38 0 -14 -5 -31 -12 -38 -7 -7
-24 -12 -38 -12 -14 0 -31 5 -38 12 -7 7 -12 24 -12 38 0 14 5 31 12 38 7 7
24 12 38 12 14 0 31 -5 38 -12z"/>
<path d="M7341 5717 c-77 -39 -97 -183 -35 -256 75 -89 189 -20 189 114 0 113
-76 183 -154 142z m89 -156 c22 -43 -1 -81 -49 -81 -34 0 -51 17 -51 50 0 35
17 50 57 50 22 0 36 -6 43 -19z"/>
<path d="M7754 5712 c-39 -25 -59 -73 -58 -142 0 -67 23 -114 65 -136 81 -41
159 28 159 142 0 115 -86 186 -166 136z m94 -144 c7 -7 12 -24 12 -38 0 -35
-17 -50 -57 -50 -26 0 -36 6 -45 25 -18 40 3 75 45 75 18 0 38 -5 45 -12z"/>
<path d="M6484 5692 c-18 -12 -38 -37 -47 -61 -47 -116 21 -245 118 -227 79
15 119 137 76 231 -22 49 -40 65 -83 71 -22 3 -43 -1 -64 -14z m98 -157 c18
-41 -3 -75 -47 -75 -44 0 -65 34 -47 75 9 20 19 25 47 25 28 0 38 -5 47 -25z"/>
<path d="M8176 5689 c-39 -31 -56 -71 -56 -134 0 -63 17 -103 56 -134 49 -39
115 -17 149 49 8 16 15 54 15 85 0 31 -7 69 -15 85 -20 39 -62 70 -95 70 -15
0 -39 -9 -54 -21z m92 -141 c7 -7 12 -24 12 -38 0 -14 -5 -31 -12 -38 -7 -7
-24 -12 -38 -12 -14 0 -31 5 -38 12 -7 7 -12 24 -12 38 0 14 5 31 12 38 7 7
24 12 38 12 14 0 31 -5 38 -12z"/>
<path d="M3605 5149 l-38 -50 38 -55 c21 -30 43 -54 50 -54 14 0 85 90 85 107
0 18 -70 103 -85 103 -7 0 -30 -23 -50 -51z m74 -80 l-21 -30 -19 25 c-23 29
-23 30 -2 63 l17 25 23 -27 23 -26 -21 -30z"/>
<path d="M3802 5156 c-18 -24 -32 -53 -32 -63 0 -10 18 -38 40 -63 l40 -45 35
40 c51 58 53 75 13 129 -18 25 -40 45 -49 46 -8 0 -30 -20 -47 -44z m71 -32
c17 -23 18 -27 3 -49 -9 -14 -21 -25 -26 -25 -5 0 -17 11 -26 25 -15 22 -14
26 3 49 10 14 20 25 23 25 3 0 13 -11 23 -25z"/>
<path d="M3993 5155 c-18 -24 -33 -50 -33 -58 0 -19 68 -107 82 -107 11 0 19
9 64 72 l26 36 -38 51 c-21 28 -45 51 -54 51 -8 -1 -30 -21 -47 -45z m87 -58
c0 -5 -9 -20 -19 -33 l-19 -25 -21 30 -21 29 22 27 21 27 18 -23 c10 -13 19
-28 19 -32z"/>
<path d="M4185 5154 c-19 -26 -35 -51 -35 -57 0 -16 71 -107 84 -107 11 0 86
92 86 106 0 15 -73 104 -85 104 -8 0 -30 -21 -50 -46z m80 -44 c3 -11 -2 -31
-11 -45 l-17 -26 -23 28 -22 28 20 28 c21 30 41 25 53 -13z"/>
<path d="M6396 2880 c-81 -32 -92 -53 -15 -29 75 24 215 22 287 -3 34 -13 40
-13 31 -2 -6 7 -35 22 -65 34 -71 26 -171 26 -238 0z"/>
<path d="M6377 2780 c-89 -28 -162 -76 -176 -116 -22 -61 -16 -154 14 -221 71
-159 249 -235 415 -179 77 27 170 120 195 196 31 91 19 213 -23 247 -33 26
-117 66 -167 79 -71 19 -189 17 -258 -6z"/>
<path d="M4190 2598 c-61 -32 -83 -66 -88 -135 -3 -48 0 -64 20 -92 39 -58 72
-76 138 -76 66 0 99 18 138 76 20 28 23 44 20 92 -3 36 -12 67 -24 85 -24 32
-98 72 -134 72 -14 0 -46 -10 -70 -22z"/>
<path d="M2704 3121 c-99 -45 -126 -176 -51 -255 38 -40 100 -61 152 -52 50
10 112 68 126 119 27 100 -60 208 -166 207 -11 0 -38 -9 -61 -19z"/>
<path d="M2704 2601 c-99 -45 -126 -176 -51 -255 38 -40 100 -61 152 -52 50
10 112 68 126 119 27 100 -60 208 -166 207 -11 0 -38 -9 -61 -19z"/>
</g>
</svg>
