<?xml version="1.0" encoding="UTF-8"?>
<svg id="Layer_1" data-name="Layer 1" xmlns="http://www.w3.org/2000/svg" version="1.1" xmlns:xlink="http://www.w3.org/1999/xlink" viewBox="0 0 1000 1000">
  <defs>
    <style>
      .cls-1 {
        fill: #6a3a8f;
      }

      .cls-1, .cls-2, .cls-3, .cls-4, .cls-5, .cls-6, .cls-7, .cls-8, .cls-9, .cls-10, .cls-11, .cls-12, .cls-13, .cls-14, .cls-15 {
        stroke-width: 0px;
      }

      .cls-2, .cls-11 {
        fill: #1d1d1b;
      }

      .cls-2, .cls-16 {
        display: none;
      }

      .cls-17 {
        stroke-width: 8px;
      }

      .cls-17, .cls-18, .cls-19, .cls-20 {
        stroke: #1d1d1b;
      }

      .cls-17, .cls-5 {
        fill: #038e9e;
      }

      .cls-17, .cls-19, .cls-20 {
        stroke-linecap: round;
        stroke-linejoin: round;
      }

      .cls-18 {
        stroke-width: 2px;
      }

      .cls-18, .cls-3, .cls-19, .cls-20 {
        fill: #51b9a4;
      }

      .cls-18, .cls-21 {
        stroke-miterlimit: 10;
      }

      .cls-4 {
        fill: #029fa2;
      }

      .cls-22 {
        clip-path: url(#clippath-2);
      }

      .cls-19, .cls-21 {
        stroke-width: 3px;
      }

      .cls-6 {
        fill: #4e4e4e;
        fill-rule: evenodd;
      }

      .cls-23, .cls-24 {
        isolation: isolate;
      }

      .cls-7 {
        fill: #e51d2a;
      }

      .cls-8 {
        fill: none;
      }

      .cls-25 {
        clip-path: url(#clippath-1);
      }

      .cls-26 {
        clip-path: url(#clippath-4);
      }

      .cls-21 {
        fill: #f9b00d;
        stroke: #fefce8;
      }

      .cls-9 {
        fill: #0c9344;
      }

      .cls-10 {
        fill: #fefce8;
      }

      .cls-27 {
        clip-path: url(#clippath);
      }

      .cls-20 {
        stroke-width: 4px;
      }

      .cls-28 {
        clip-path: url(#clippath-3);
      }

      .cls-12 {
        fill: #fbdc18;
      }

      .cls-13 {
        fill: #f39221;
      }

      .cls-14 {
        fill: #244696;
      }

      .cls-15, .cls-24 {
        fill: #fff;
      }

      .cls-29 {
        clip-path: url(#clippath-5);
      }

      .cls-24 {
        font-family: Bungee-Regular, Bungee;
        font-size: 50px;
      }
    </style>
    <clipPath id="clippath">
      <circle class="cls-8" cx="500" cy="496.9" r="412.5"/>
    </clipPath>
    <clipPath id="clippath-1">
      <circle class="cls-8" cx="500" cy="496.9" r="412.5"/>
    </clipPath>
    <clipPath id="clippath-2">
      <path class="cls-8" d="M684.7,743v-.3c0-18.3-14.9-33.4-33.2-33.4s-33.2,15-33.2,33.4v.3c8.6-8.3,20.3-13.5,33.2-13.5s24.6,5.2,33.2,13.5h0Z"/>
    </clipPath>
    <clipPath id="clippath-3">
      <path class="cls-8" d="M410.7,457.9c-8.1-3-14.3-10.2-16-18.7-2.1-10.6-6.6-16.2-9.9-16.2s-7.7,5.5-9.9,16.2c-1.7,8.5-7.9,15.7-16,18.7-15.5,5.7-25.1,16.1-25.1,27.2,0,17.4,22.9,31.6,51,31.6s51-14.2,51-31.6-9.6-21.4-25.1-27.2h0Z"/>
    </clipPath>
    <clipPath id="clippath-4">
      <path class="cls-8" d="M259.2,499.9h-2.6c-1.6,0-3.1-1-3.7-2.5s-.2-3.3,1-4.4c11.9-11.1,18.4-25.5,18.4-40.3,0-25.4-19.4-48.4-48.2-57.2-12.2-3.7-20.4-15-20.3-28.1v-.2c0-12.3-3.8-19.6-5.5-20-1.6.4-5.4,7.7-5.4,20v.4c0,13-8.1,24.3-20.2,28.1-28.6,8.9-47.9,31.8-47.9,57.1s6.5,29.1,18.4,40.3c1.2,1.1,1.6,2.9,1,4.4-.6,1.5-2.1,2.5-3.7,2.5h-3.1v13.9h121.8v-13.9h0Z"/>
    </clipPath>
    <clipPath id="clippath-5">
      <path class="cls-8" d="M310,480.5v-8.3c0-2.4-1.1-4.5-2.7-6,1.7-1.5,2.7-3.6,2.7-6v-66.1c0-2.4-1.1-4.5-2.7-6,1.7-1.5,2.7-3.6,2.7-6v-26.1c0-3.9-2.8-7.1-6.5-7.9v-15h-3v15c-3.7.7-6.5,4-6.5,7.9v26.1c0,2.4,1.1,4.5,2.7,6-1.7,1.5-2.7,3.6-2.7,6v66.1c0,2.4,1.1,4.5,2.7,6-1.7,1.5-2.7,3.6-2.7,6v8.3c-1.2,1.7-2,3.7-2,6v25.5h20v-25.5c0-2.2-.8-4.3-2-6Z"/>
    </clipPath>
  </defs>
  <g id="BG" class="cls-16">
    <rect id="BG-2" class="cls-4" width="1000" height="1000"/>
  </g>
  <g id="Layer_1-2" data-name="Layer 1-2">
    <circle class="cls-10" cx="500" cy="496.9" r="412.5"/>
    <path class="cls-3" d="M911.6,527H88.4c-.2-2.4-.3-4.8-.4-7.2,10.3,218.6,190.8,392.7,412,392.7s401.7-174.1,412-392.7c-.1,2.4-.2,4.8-.4,7.2Z"/>
    <path class="cls-5" d="M181.7,762.4c75.7,91.7,190.2,150.1,318.3,150.1s242.7-58.4,318.3-150.1H181.7Z"/>
    <g id="Waves">
      <g class="cls-27">
        <g>
          <g>
            <path class="cls-4" d="M448.7,637.4c.6-.4,1.3-.8,2-1.2-.6-.4-1.3-.8-2-1.2-12.5-8-24.4-15.6-48.7-15.6s-36.2,7.6-48.7,15.6c-.6.4-1.3.8-2,1.2.6.4,1.3.8,2,1.2,1.8,1.1,3.5,2.2,5.3,3.3,10.6-6.2,23-11.5,43.4-11.5s32.9,5.3,43.4,11.5c1.8-1.1,3.5-2.2,5.3-3.3Z"/>
            <path class="cls-5" d="M164.3,645.2c9,4.6,19.6,7.9,35.7,7.9h0c16.1,0,26.7-3.3,35.7-7.9-9-4.6-19.6-7.9-35.7-7.9s-26.7,3.3-35.7,7.9h0Z"/>
            <path class="cls-4" d="M457.8,631.8c2.9-1.6,5.9-3.2,9.1-4.6-6.9-2.9-12.6-6.6-18.3-10.2-12.5-8-24.4-15.6-48.7-15.6s-36.2,7.6-48.7,15.6c-5.6,3.6-11.4,7.3-18.2,10.2,3.3,1.4,6.3,3,9.1,4.6,2.2-1.3,4.4-2.7,6.5-4.1,12.6-8.1,25.6-16.4,51.3-16.4s38.7,8.3,51.3,16.4c2.2,1.4,4.3,2.8,6.5,4.1h0Z"/>
            <path class="cls-4" d="M248.7,637.4c.6-.4,1.3-.8,1.9-1.2-.6-.4-1.3-.8-2-1.2-12.5-8-24.4-15.6-48.7-15.6s-36.2,7.6-48.7,15.6c-.6.4-1.3.8-1.9,1.2.6.4,1.3.8,2,1.2,1.8,1.1,3.5,2.2,5.3,3.3,10.6-6.2,23-11.5,43.4-11.5s32.9,5.3,43.4,11.5c1.8-1.1,3.5-2.2,5.3-3.3Z"/>
            <path class="cls-5" d="M564.3,645.2c9,4.6,19.6,7.9,35.7,7.9h0c16.1,0,26.7-3.3,35.7-7.9-9-4.6-19.6-7.9-35.7-7.9s-26.7,3.3-35.7,7.9Z"/>
            <path class="cls-5" d="M364.3,645.2c9,4.6,19.6,7.9,35.7,7.9h0c16.1,0,26.7-3.3,35.7-7.9-9-4.6-19.6-7.9-35.7-7.9s-26.7,3.3-35.7,7.9Z"/>
            <path class="cls-5" d="M764.3,645.2c9,4.6,19.6,7.9,35.7,7.9h0c16.1,0,26.7-3.3,35.7-7.9-9-4.6-19.6-7.9-35.7-7.9s-26.7,3.3-35.7,7.9Z"/>
            <path class="cls-4" d="M848.7,637.4c.7-.4,1.3-.8,2-1.2-.7-.4-1.3-.8-2-1.2-12.5-8-24.4-15.6-48.7-15.6s-36.2,7.6-48.7,15.6c-.7.4-1.3.8-2,1.2.7.4,1.3.8,2,1.2,1.8,1.1,3.5,2.2,5.3,3.3,10.6-6.2,23-11.5,43.4-11.5s32.9,5.3,43.4,11.5c1.8-1.1,3.5-2.2,5.3-3.3Z"/>
            <path class="cls-4" d="M857.8,631.8c2.9-1.6,5.9-3.2,9.1-4.6-6.9-2.9-12.6-6.6-18.3-10.2-12.5-8-24.4-15.6-48.7-15.6s-36.2,7.6-48.7,15.6c-5.6,3.6-11.4,7.3-18.2,10.2,3.3,1.4,6.3,3,9.1,4.6,2.2-1.3,4.3-2.7,6.5-4.1,12.6-8.1,25.6-16.4,51.3-16.4s38.7,8.3,51.3,16.4c2.2,1.4,4.3,2.8,6.5,4.1h0Z"/>
            <path class="cls-4" d="M894.4,621.2c.6-1.9,1.2-3.8,1.7-5.8-23.1-.8-35.5-8.7-47.4-16.3-12.5-8-24.4-15.6-48.7-15.6s-36.2,7.6-48.7,15.6c-12.6,8.1-25.6,16.4-51.3,16.4s-38.7-8.3-51.3-16.4c-12.5-8-24.4-15.6-48.7-15.6s-36.2,7.6-48.7,15.6c-12.6,8.1-25.6,16.4-51.3,16.4s-38.7-8.3-51.3-16.4c-12.5-8-24.4-15.6-48.7-15.6s-36.2,7.6-48.7,15.6c-12.6,8.1-25.6,16.4-51.3,16.4s-38.7-8.3-51.3-16.4c-12.5-8-24.4-15.6-48.7-15.6s-36.2,7.6-48.7,15.6c-11.9,7.6-24.3,15.5-47.4,16.3.6,1.9,1.1,3.8,1.7,5.8,5.6.3,10.5,1,14.9,2,11.7-2.8,19.8-8,28.2-13.4,12.6-8.1,25.6-16.4,51.3-16.4s38.7,8.3,51.3,16.4c8.4,5.4,16.5,10.5,28.2,13.4,5.9-1.3,12.6-2.1,20.5-2.1s14.6.8,20.5,2.1c11.7-2.8,19.8-8,28.2-13.4,12.6-8.1,25.6-16.4,51.3-16.4s38.7,8.3,51.3,16.4c8.4,5.4,16.5,10.5,28.2,13.4,5.9-1.3,12.6-2.1,20.5-2.1s14.6.8,20.5,2.1c11.7-2.8,19.8-8,28.2-13.4,12.6-8.1,25.6-16.4,51.3-16.4s38.7,8.3,51.3,16.4c8.4,5.4,16.5,10.5,28.2,13.4,5.9-1.3,12.6-2.1,20.5-2.1s14.7.8,20.5,2.1c11.7-2.8,19.8-8,28.2-13.4,12.6-8.1,25.6-16.4,51.3-16.4s38.7,8.3,51.3,16.4c8.4,5.4,16.5,10.5,28.2,13.4,4.4-1,9.4-1.7,14.9-2h0Z"/>
            <path class="cls-4" d="M648.7,637.4c.7-.4,1.3-.8,2-1.2-.7-.4-1.3-.8-2-1.2-12.5-8-24.4-15.6-48.7-15.6s-36.2,7.6-48.7,15.6c-.7.4-1.3.8-2,1.2.7.4,1.3.8,2,1.2,1.8,1.1,3.5,2.2,5.3,3.3,10.6-6.2,23-11.5,43.4-11.5s32.9,5.3,43.4,11.5c1.8-1.1,3.5-2.2,5.3-3.3Z"/>
            <path class="cls-4" d="M657.8,631.8c2.9-1.6,5.9-3.2,9.1-4.6-6.9-2.9-12.6-6.6-18.3-10.2-12.5-8-24.4-15.6-48.7-15.6s-36.2,7.6-48.7,15.6c-5.6,3.6-11.4,7.3-18.2,10.2,3.3,1.4,6.3,3,9.1,4.6,2.2-1.3,4.3-2.7,6.5-4.1,12.6-8.1,25.6-16.4,51.3-16.4s38.7,8.3,51.3,16.4c2.2,1.4,4.3,2.8,6.5,4.1h0Z"/>
            <path class="cls-10" d="M88.3,525.9c-.1-2-.2-4.1-.3-6.1,0,2,.2,4.1.3,6.1Z"/>
            <path class="cls-10" d="M88.4,527h0c0-.4,0-.7,0-1.1,0,.4,0,.7,0,1.1Z"/>
            <path class="cls-10" d="M911.7,525.9c.1-2,.2-4.1.3-6.1,0,2-.2,4.1-.3,6.1Z"/>
            <path class="cls-10" d="M900,597.6c-25.7,0-38.7-8.3-51.3-16.4-9.2-5.9-17.9-11.5-31.5-14.1-5-1-10.7-1.5-17.2-1.5s-12.2.6-17.2,1.5c-13.5,2.6-22.3,8.2-31.5,14.1-12.6,8.1-25.6,16.4-51.3,16.4s-38.7-8.3-51.3-16.4c-9.2-5.9-17.9-11.5-31.5-14.1-5-1-10.7-1.5-17.2-1.5s-12.2.6-17.2,1.5c-13.5,2.6-22.3,8.2-31.5,14.1-12.6,8.1-25.6,16.4-51.3,16.4s-38.7-8.3-51.3-16.4c-9.1-5.9-17.9-11.5-31.5-14.1-5-1-10.7-1.5-17.2-1.5s-12.2.6-17.2,1.5c-13.5,2.6-22.3,8.2-31.5,14.1-12.6,8.1-25.6,16.4-51.3,16.4s-38.7-8.3-51.3-16.4c-9.1-5.9-17.9-11.5-31.5-14.1-5-1-10.7-1.5-17.2-1.5s-12.2.6-17.2,1.5c-13.5,2.6-22.3,8.2-31.5,14.1-12.6,8.1-25.6,16.4-51.3,16.4h-.9c.8,3.3,1.7,6.6,2.5,9.9,23.2-.3,34.8-7.8,47-15.6,12.6-8.1,25.6-16.4,51.3-16.4s38.7,8.3,51.3,16.4c12.5,8,24.4,15.6,48.7,15.6s36.2-7.6,48.7-15.6c12.6-8.1,25.6-16.4,51.3-16.4s38.7,8.3,51.3,16.4c12.5,8,24.4,15.6,48.7,15.6s36.2-7.6,48.7-15.6c12.6-8.1,25.6-16.4,51.3-16.4s38.7,8.3,51.3,16.4c12.5,8,24.4,15.6,48.7,15.6s36.2-7.6,48.7-15.6c12.6-8.1,25.6-16.4,51.3-16.4s38.7,8.3,51.3,16.4c12.2,7.8,23.8,15.2,47,15.6.9-3.3,1.7-6.6,2.5-9.9h-.9,0Z"/>
            <path class="cls-5" d="M133,645.2c3.3,1.4,6.3,3,9.1,4.6,2.5,1.4,4.8,2.9,7.2,4.4.6.4,1.3.8,2,1.2,12.5,8,24.4,15.6,48.7,15.6h0c24.3,0,36.2-7.6,48.7-15.6.6-.4,1.3-.8,1.9-1.2,2.3-1.5,4.7-3,7.2-4.4,2.9-1.6,5.9-3.2,9.1-4.6,3.8-1.6,7.9-3,12.5-4,5.9-1.3,12.6-2.1,20.5-2.1s14.6.8,20.5,2.1c4.6,1,8.8,2.5,12.5,4,3.3,1.4,6.3,3,9.1,4.6,2.5,1.4,4.8,2.9,7.2,4.4.6.4,1.3.8,2,1.2,12.5,8,24.4,15.6,48.7,15.6h0c24.3,0,36.2-7.6,48.7-15.6.6-.4,1.3-.8,2-1.2,2.3-1.5,4.7-3,7.2-4.4,2.9-1.6,5.9-3.2,9.1-4.6,3.8-1.6,7.9-3,12.5-4,5.9-1.3,12.6-2.1,20.5-2.1s14.7.8,20.5,2.1c4.6,1,8.8,2.5,12.5,4,3.3,1.4,6.3,3,9.1,4.6,2.5,1.4,4.8,2.9,7.2,4.4.7.4,1.3.8,2,1.2,12.5,8,24.4,15.6,48.7,15.6h0c24.3,0,36.2-7.6,48.7-15.6.7-.4,1.3-.8,2-1.2,2.3-1.5,4.7-3,7.2-4.4,2.9-1.6,5.9-3.2,9.1-4.6,3.8-1.6,7.9-3,12.5-4,5.9-1.3,12.6-2.1,20.5-2.1s14.7.8,20.5,2.1c4.6,1,8.8,2.5,12.5,4,3.3,1.4,6.3,3,9.1,4.6,2.5,1.4,4.8,2.9,7.2,4.4.7.4,1.3.8,2,1.2,12.5,8,24.4,15.6,48.7,15.6h0c24.3,0,36.2-7.6,48.7-15.6.7-.4,1.3-.8,2-1.2,2.3-1.5,4.7-3,7.2-4.4,2.9-1.6,5.9-3.2,9.1-4.6,3.8-1.6,7.9-3,12.5-4,2.7-.6,5.7-1.1,8.8-1.5,1.2-3.4,2.4-6.8,3.5-10.2-4.5.4-8.6,1-12.3,1.9-5.2,1.2-9.6,2.9-13.7,4.9-2.8,1.3-5.4,2.8-8,4.4-2.2,1.3-4.3,2.7-6.5,4.1-.3.2-.5.3-.8.5-2.3,1.5-4.7,3-7.1,4.4-10.6,6.2-23,11.5-43.4,11.5h0c-20.5,0-32.9-5.3-43.4-11.5-2.4-1.4-4.8-2.9-7.1-4.4-.3-.2-.5-.3-.8-.5-2.2-1.4-4.3-2.8-6.5-4.1-2.6-1.5-5.2-3-8-4.4-4.1-2-8.5-3.7-13.7-4.9-5.8-1.4-12.5-2.2-20.5-2.2s-14.7.8-20.5,2.2c-5.2,1.2-9.6,2.9-13.7,4.9-2.8,1.3-5.4,2.8-8,4.4-2.2,1.3-4.3,2.7-6.5,4.1-.3.2-.5.3-.8.5-2.3,1.5-4.7,3-7.1,4.4-10.6,6.2-23,11.5-43.4,11.5h0c-20.5,0-32.9-5.3-43.4-11.5-2.4-1.4-4.8-2.9-7.1-4.4-.3-.2-.5-.3-.8-.5-2.2-1.4-4.3-2.8-6.5-4.1-2.6-1.5-5.2-3-8-4.4-4.1-2-8.5-3.7-13.7-4.9-5.8-1.4-12.5-2.2-20.5-2.2s-14.7.8-20.5,2.2c-5.1,1.2-9.6,2.9-13.7,4.9-2.8,1.3-5.4,2.8-8,4.4-2.2,1.3-4.4,2.7-6.5,4.1-.3.2-.5.3-.8.5-2.3,1.5-4.6,3-7.1,4.4-10.6,6.2-23,11.5-43.4,11.5h0c-20.5,0-32.9-5.3-43.4-11.5-2.4-1.4-4.8-2.9-7.1-4.4-.3-.2-.5-.3-.8-.5-2.2-1.4-4.3-2.8-6.5-4.1-2.6-1.5-5.2-3-8-4.4-4.1-2-8.5-3.7-13.7-4.9-5.8-1.4-12.5-2.2-20.5-2.2s-14.7.8-20.5,2.2c-5.1,1.2-9.6,2.9-13.7,4.9-2.8,1.3-5.4,2.8-8,4.4-2.2,1.3-4.4,2.7-6.5,4.1-.3.2-.5.3-.8.5-2.3,1.5-4.6,3-7.1,4.4-10.6,6.2-23,11.5-43.4,11.5h0c-20.4,0-32.9-5.3-43.4-11.5-2.4-1.4-4.8-2.9-7.1-4.4-.3-.2-.5-.3-.8-.5-2.2-1.4-4.3-2.8-6.5-4.1-2.6-1.5-5.2-3-8-4.4-4.1-2-8.5-3.7-13.7-4.9-3.7-.9-7.8-1.6-12.3-1.9,1.1,3.4,2.3,6.9,3.5,10.2,3.1.4,6.1.9,8.8,1.5,4.6,1,8.8,2.5,12.5,4h0,0Z"/>
            <path class="cls-4" d="M257.8,631.8c2.9-1.6,5.9-3.2,9.1-4.6-6.9-2.9-12.6-6.6-18.3-10.2-12.5-8-24.4-15.6-48.7-15.6s-36.2,7.6-48.7,15.6c-5.6,3.6-11.4,7.3-18.2,10.2,3.3,1.4,6.3,3,9.1,4.6,2.2-1.3,4.4-2.7,6.5-4.1,12.6-8.1,25.6-16.4,51.3-16.4s38.7,8.3,51.3,16.4c2.2,1.4,4.3,2.8,6.5,4.1h0Z"/>
          </g>
          <g>
            <path class="cls-11" d="M744.9,669.2c-3.7-2.2-7.5-4.3-11.8-6.2-3.8-1.6-7.9-3-12.5-4-5.9-1.3-12.6-2.1-20.5-2.1s-14.7.8-20.5,2.1c-4.6,1.1-8.8,2.5-12.5,4-4.3,1.8-8.2,4-11.8,6.2h-110.2c-3.7-2.2-7.5-4.3-11.8-6.2-3.8-1.6-7.9-3-12.5-4-5.9-1.3-12.6-2.1-20.5-2.1s-14.6.8-20.5,2.1c-4.6,1.1-8.8,2.5-12.5,4-4.3,1.8-8.2,4-11.8,6.2h-110.2c-3.7-2.2-7.5-4.3-11.9-6.2-3.8-1.6-7.9-3-12.5-4-5.9-1.3-12.6-2.1-20.5-2.1s-14.6.8-20.5,2.1c-4.6,1.1-8.8,2.5-12.5,4-4.3,1.8-8.2,4-11.8,6.2h-110.2c-3.7-2.2-7.5-4.3-11.9-6.2-3.8-1.6-7.9-3-12.5-4-5.9-1.3-12.6-2.1-20.5-2.1s-14.7.8-20.5,2.1c-4.6,1.1-8.8,2.5-12.5,4-6.9,2.9-12.6,6.6-18.2,10.2-.8.5-1.6,1-2.4,1.5h14.2c5.5-3.1,11.5-5.9,18.9-7.7,5.8-1.4,12.5-2.2,20.5-2.2s14.7.8,20.5,2.2c2.5.6,4.8,1.3,7.1,2.1h-2.5c1.6,3.4,3.1,6.7,4.8,10h740.2c1.6-3.3,3.2-6.6,4.8-10h-130,0Z"/>
            <path class="cls-11" d="M920.5,623.2c-5.9-1.3-12.6-2.1-20.5-2.1s-14.7.8-20.5,2.1c-11.7-2.8-19.8-8-28.2-13.4-12.6-8.1-25.6-16.4-51.3-16.4s-38.7,8.3-51.3,16.4c-8.4,5.4-16.5,10.5-28.2,13.4-5.9-1.3-12.6-2.1-20.5-2.1s-14.7.8-20.5,2.1c-11.7-2.8-19.8-8-28.2-13.4-12.6-8.1-25.6-16.4-51.3-16.4s-38.7,8.3-51.3,16.4c-8.4,5.4-16.5,10.5-28.2,13.4-5.9-1.3-12.6-2.1-20.5-2.1s-14.7.8-20.5,2.1c-11.7-2.8-19.8-8-28.2-13.4-12.6-8.1-25.6-16.4-51.3-16.4s-38.7,8.3-51.3,16.4c-8.4,5.4-16.5,10.5-28.2,13.4-5.9-1.3-12.6-2.1-20.5-2.1s-14.7.8-20.5,2.1c-11.7-2.8-19.8-8-28.2-13.4-12.6-8.1-25.6-16.4-51.3-16.4s-38.7,8.3-51.3,16.4c-8.4,5.4-16.5,10.5-28.2,13.4-5.9-1.3-12.6-2.1-20.5-2.1s-14.7.8-20.5,2.1c-11.7-2.8-19.8-8-28.2-13.4-12.6-8.1-25.6-16.4-51.3-16.4v8c24.3,0,36.2,7.6,48.7,15.6,5.6,3.6,11.4,7.3,18.3,10.2-3.3,1.4-6.3,3-9.1,4.6-2.2-1.3-4.3-2.7-6.5-4.1-12.6-8.1-25.6-16.4-51.3-16.4v8c24.3,0,36.2,7.6,48.7,15.6.7.4,1.3.8,2,1.2-.7.4-1.3.8-2,1.2-1.8,1.1-3.5,2.2-5.3,3.3-10.6-6.2-23-11.5-43.4-11.5v8c16.1,0,26.7,3.3,35.7,7.9-9,4.6-19.6,7.9-35.7,7.9h0v8H0c20.5,0,32.9-5.3,43.4-11.5,2.4-1.4,4.8-2.9,7.1-4.4.3-.2.5-.3.8-.5,2.2-1.4,4.3-2.8,6.5-4.1,2.6-1.5,5.2-3,8-4.4,4.1-2,8.5-3.7,13.7-4.9,5.8-1.4,12.5-2.2,20.5-2.2s14.7.8,20.5,2.2c5.2,1.2,9.6,2.9,13.7,4.9,2.8,1.3,5.4,2.8,8,4.4,2.2,1.3,4.4,2.7,6.5,4.1.3.2.5.3.8.5,2.3,1.5,4.6,3,7.1,4.4,10.6,6.2,23,11.5,43.4,11.5h0c20.4,0,32.9-5.3,43.4-11.5,2.4-1.4,4.8-2.9,7.1-4.4.3-.2.5-.3.8-.5,2.2-1.4,4.3-2.8,6.5-4.1,2.6-1.5,5.2-3,8-4.4,4.1-2,8.5-3.7,13.7-4.9,5.8-1.4,12.5-2.2,20.5-2.2s14.7.8,20.5,2.2c5.1,1.2,9.6,2.9,13.7,4.9,2.8,1.3,5.4,2.8,8,4.4,2.2,1.3,4.4,2.7,6.5,4.1.3.2.5.3.8.5,2.3,1.5,4.6,3,7.1,4.4,10.6,6.2,23,11.5,43.4,11.5h0c20.5,0,32.9-5.3,43.4-11.5,2.4-1.4,4.8-2.9,7.1-4.4.3-.2.5-.3.8-.5,2.2-1.4,4.3-2.8,6.5-4.1,2.6-1.5,5.2-3,8-4.4,4.1-2,8.5-3.7,13.7-4.9,5.8-1.4,12.5-2.2,20.5-2.2s14.7.8,20.5,2.2c5.2,1.2,9.6,2.9,13.7,4.9,2.8,1.3,5.4,2.8,8,4.4,2.2,1.3,4.3,2.7,6.5,4.1.3.2.5.3.8.5,2.3,1.5,4.7,3,7.1,4.4,10.6,6.2,23,11.5,43.4,11.5h0c20.5,0,32.9-5.3,43.4-11.5,2.4-1.4,4.8-2.9,7.1-4.4.3-.2.5-.3.8-.5,2.2-1.4,4.3-2.8,6.5-4.1,2.6-1.5,5.2-3,8-4.4,4.1-2,8.5-3.7,13.7-4.9,5.8-1.4,12.5-2.2,20.5-2.2s14.7.8,20.5,2.2c5.2,1.2,9.6,2.9,13.7,4.9,2.8,1.3,5.4,2.8,8,4.4,2.2,1.3,4.3,2.7,6.5,4.1.3.2.5.3.8.5,2.3,1.5,4.7,3,7.1,4.4,10.6,6.2,23,11.5,43.4,11.5h0c20.5,0,32.9-5.3,43.4-11.5,2.4-1.4,4.8-2.9,7.1-4.4.3-.2.5-.3.8-.5,2.2-1.4,4.3-2.8,6.5-4.1,2.6-1.5,5.2-3,8-4.4,4.1-2,8.5-3.7,13.7-4.9,5.8-1.4,12.5-2.2,20.5-2.2s14.7.8,20.5,2.2c5.2,1.2,9.6,2.9,13.7,4.9,2.8,1.3,5.4,2.8,8,4.4,2.2,1.3,4.3,2.7,6.5,4.1.3.2.5.3.8.5,2.3,1.5,4.7,3,7.1,4.4,10.6,6.2,23,11.5,43.4,11.5v-8c-16.1,0-26.7-3.3-35.7-7.9,9-4.6,19.6-7.9,35.7-7.9v-8c-20.5,0-32.9,5.3-43.4,11.5-1.8-1.1-3.5-2.2-5.3-3.3-.7-.4-1.3-.8-2-1.2.7-.4,1.3-.8,2-1.2,12.5-8,24.4-15.6,48.7-15.6v-8c-25.7,0-38.7,8.3-51.3,16.4-2.2,1.4-4.3,2.8-6.5,4.1-2.9-1.6-5.9-3.2-9.1-4.6,6.9-2.9,12.6-6.6,18.2-10.2,12.5-8,24.4-15.6,48.7-15.6v-8c-25.7,0-38.7,8.3-51.3,16.4-8.4,5.4-16.5,10.5-28.2,13.4h0ZM200,653h0c-16.1,0-26.7-3.3-35.7-7.9,9-4.6,19.6-7.9,35.7-7.9s26.7,3.3,35.7,7.9c-9,4.6-19.6,7.9-35.7,7.9ZM248.7,637.4c-1.8,1.1-3.5,2.2-5.3,3.3-10.6-6.2-23-11.5-43.4-11.5s-32.9,5.3-43.4,11.5c-1.8-1.1-3.5-2.2-5.3-3.3-.6-.4-1.3-.8-2-1.2.6-.4,1.3-.8,1.9-1.2,12.5-8,24.4-15.6,48.7-15.6s36.2,7.6,48.7,15.6c.6.4,1.3.8,2,1.2-.6.4-1.3.8-1.9,1.2ZM257.8,631.8c-2.2-1.3-4.4-2.7-6.5-4.1-12.6-8.1-25.6-16.4-51.3-16.4s-38.7,8.3-51.3,16.4c-2.2,1.4-4.3,2.8-6.5,4.1-2.9-1.6-5.9-3.2-9.1-4.6,6.9-2.9,12.6-6.6,18.2-10.2,12.5-8,24.4-15.6,48.7-15.6s36.2,7.6,48.7,15.6c5.6,3.6,11.4,7.3,18.3,10.2-3.3,1.4-6.3,3-9.1,4.6h0ZM400,653h0c-16.1,0-26.7-3.3-35.7-7.9,9-4.6,19.6-7.9,35.7-7.9s26.7,3.3,35.7,7.9c-9,4.6-19.6,7.9-35.7,7.9ZM448.7,637.4c-1.8,1.1-3.5,2.2-5.3,3.3-10.6-6.2-23-11.5-43.4-11.5s-32.9,5.3-43.4,11.5c-1.8-1.1-3.5-2.2-5.3-3.3-.6-.4-1.3-.8-2-1.2.6-.4,1.3-.8,2-1.2,12.5-8,24.4-15.6,48.7-15.6s36.2,7.6,48.7,15.6c.6.4,1.3.8,2,1.2-.6.4-1.3.8-2,1.2ZM457.8,631.8c-2.2-1.3-4.4-2.7-6.5-4.1-12.6-8.1-25.6-16.4-51.3-16.4s-38.7,8.3-51.3,16.4c-2.2,1.4-4.3,2.8-6.5,4.1-2.9-1.6-5.9-3.2-9.1-4.6,6.9-2.9,12.6-6.6,18.2-10.2,12.5-8,24.4-15.6,48.7-15.6s36.2,7.6,48.7,15.6c5.6,3.6,11.4,7.3,18.3,10.2-3.3,1.4-6.3,3-9.1,4.6h0ZM600,653h0c-16.1,0-26.7-3.3-35.7-7.9,9-4.6,19.6-7.9,35.7-7.9s26.7,3.3,35.7,7.9c-9,4.6-19.6,7.9-35.7,7.9ZM648.7,637.4c-1.8,1.1-3.5,2.2-5.3,3.3-10.6-6.2-23-11.5-43.4-11.5s-32.9,5.3-43.4,11.5c-1.8-1.1-3.5-2.2-5.3-3.3-.7-.4-1.3-.8-2-1.2.7-.4,1.3-.8,2-1.2,12.5-8,24.4-15.6,48.7-15.6s36.2,7.6,48.7,15.6c.7.4,1.3.8,2,1.2-.7.4-1.3.8-2,1.2ZM657.8,631.8c-2.2-1.3-4.3-2.7-6.5-4.1-12.6-8.1-25.6-16.4-51.3-16.4s-38.7,8.3-51.3,16.4c-2.2,1.4-4.3,2.8-6.5,4.1-2.9-1.6-5.9-3.2-9.1-4.6,6.9-2.9,12.6-6.6,18.2-10.2,12.5-8,24.4-15.6,48.7-15.6s36.2,7.6,48.7,15.6c5.6,3.6,11.4,7.3,18.3,10.2-3.3,1.4-6.3,3-9.1,4.6h0ZM800,653h0c-16.1,0-26.7-3.3-35.7-7.9,9-4.6,19.6-7.9,35.7-7.9s26.7,3.3,35.7,7.9c-9,4.6-19.6,7.9-35.7,7.9ZM848.7,637.4c-1.8,1.1-3.5,2.2-5.3,3.3-10.6-6.2-23-11.5-43.4-11.5s-32.9,5.3-43.4,11.5c-1.8-1.1-3.5-2.2-5.3-3.3-.7-.4-1.3-.8-2-1.2.7-.4,1.3-.8,2-1.2,12.5-8,24.4-15.6,48.7-15.6s36.2,7.6,48.7,15.6c.7.4,1.3.8,2,1.2-.7.4-1.3.8-2,1.2ZM857.8,631.8c-2.2-1.3-4.3-2.7-6.5-4.1-12.6-8.1-25.6-16.4-51.3-16.4s-38.7,8.3-51.3,16.4c-2.2,1.4-4.3,2.8-6.5,4.1-2.9-1.6-5.9-3.2-9.1-4.6,6.9-2.9,12.6-6.6,18.2-10.2,12.5-8,24.4-15.6,48.7-15.6s36.2,7.6,48.7,15.6c5.6,3.6,11.4,7.3,18.3,10.2-3.3,1.4-6.3,3-9.1,4.6h0Z"/>
            <path class="cls-11" d="M900,607.5c-24.3,0-36.2-7.6-48.7-15.6-12.6-8.1-25.6-16.4-51.3-16.4s-38.7,8.3-51.3,16.4c-12.5,8-24.4,15.6-48.7,15.6s-36.2-7.6-48.7-15.6c-12.6-8.1-25.6-16.4-51.3-16.4s-38.7,8.3-51.3,16.4c-12.5,8-24.4,15.6-48.7,15.6s-36.2-7.6-48.7-15.6c-12.6-8.1-25.6-16.4-51.3-16.4s-38.7,8.3-51.3,16.4c-12.5,8-24.4,15.6-48.7,15.6s-36.2-7.6-48.7-15.6c-12.6-8.1-25.6-16.4-51.3-16.4s-38.7,8.3-51.3,16.4c-12.5,8-24.4,15.6-48.7,15.6s-36.2-7.6-48.7-15.6c-12.6-8.1-25.6-16.4-51.3-16.4v8c24.3,0,36.2,7.6,48.7,15.6,12.6,8.1,25.6,16.4,51.3,16.4s38.7-8.3,51.3-16.4c12.5-8,24.4-15.6,48.7-15.6s36.2,7.6,48.7,15.6c12.6,8.1,25.6,16.4,51.3,16.4s38.7-8.3,51.3-16.4c12.5-8,24.4-15.6,48.7-15.6s36.2,7.6,48.7,15.6c12.6,8.1,25.6,16.4,51.3,16.4s38.7-8.3,51.3-16.4c12.5-8,24.4-15.6,48.7-15.6s36.2,7.6,48.7,15.6c12.6,8.1,25.6,16.4,51.3,16.4s38.7-8.3,51.3-16.4c12.5-8,24.4-15.6,48.7-15.6s36.2,7.6,48.7,15.6c12.6,8.1,25.6,16.4,51.3,16.4s38.7-8.3,51.3-16.4c12.5-8,24.4-15.6,48.7-15.6v-8c-25.7,0-38.7,8.3-51.3,16.4-12.5,8-24.4,15.6-48.7,15.6Z"/>
            <path class="cls-11" d="M968.7,563.1c-7.7,3-13.9,7-20,10.9-12.5,8-24.4,15.6-48.7,15.6s-36.2-7.6-48.7-15.6c-6.1-3.9-12.3-7.8-20-10.9-4.2-1.7-8.8-3.1-14.1-4-5.1-.9-10.7-1.5-17.2-1.5s-12.2.5-17.2,1.5c-5.3,1-9.9,2.4-14.1,4-7.7,3-13.9,7-20,10.9-12.5,8-24.4,15.6-48.7,15.6s-36.2-7.6-48.7-15.6c-6.1-3.9-12.3-7.8-20-10.9-4.2-1.7-8.8-3.1-14.1-4-5.1-.9-10.7-1.5-17.2-1.5s-12.2.5-17.2,1.5c-5.3,1-9.9,2.4-14.1,4-7.7,3-13.9,7-20,10.9-12.5,8-24.4,15.6-48.7,15.6s-36.2-7.6-48.7-15.6c-6.1-3.9-12.3-7.8-20-10.9-4.2-1.7-8.8-3.1-14.1-4-5.1-.9-10.7-1.5-17.2-1.5s-12.2.5-17.2,1.5c-5.3,1-9.9,2.4-14.1,4-7.7,3-13.9,7-20,10.9-12.5,8-24.4,15.6-48.7,15.6s-36.2-7.6-48.7-15.6c-6.1-3.9-12.3-7.8-19.9-10.9-4.2-1.7-8.8-3.1-14.1-4-5.1-.9-10.7-1.5-17.2-1.5s-12.2.5-17.2,1.5c-5.3,1-9.9,2.4-14.1,4-7.7,3-13.9,7-19.9,10.9-12.5,8-24.4,15.6-48.7,15.6s-36.2-7.6-48.7-15.6c-6.1-3.9-12.3-7.8-20-10.9-4.2-1.7-8.8-3.1-14.1-4-5.1-.9-10.7-1.5-17.2-1.5v8c6.6,0,12.2.6,17.2,1.5,13.5,2.6,22.3,8.2,31.5,14.1,12.6,8.1,25.6,16.4,51.3,16.4s38.7-8.3,51.3-16.4c9.1-5.9,17.9-11.5,31.5-14.1,5-1,10.7-1.5,17.2-1.5s12.2.6,17.2,1.5c13.5,2.6,22.3,8.2,31.5,14.1,12.6,8.1,25.6,16.4,51.3,16.4s38.7-8.3,51.3-16.4c9.1-5.9,17.9-11.5,31.5-14.1,5-1,10.7-1.5,17.2-1.5s12.2.6,17.2,1.5c13.5,2.6,22.3,8.2,31.5,14.1,12.6,8.1,25.6,16.4,51.3,16.4s38.7-8.3,51.3-16.4c9.2-5.9,17.9-11.5,31.5-14.1,5-1,10.7-1.5,17.2-1.5s12.2.6,17.2,1.5c13.5,2.6,22.3,8.2,31.5,14.1,12.6,8.1,25.6,16.4,51.3,16.4s38.7-8.3,51.3-16.4c9.2-5.9,17.9-11.5,31.5-14.1,5-1,10.7-1.5,17.2-1.5s12.2.6,17.2,1.5c13.5,2.6,22.3,8.2,31.5,14.1,12.6,8.1,25.6,16.4,51.3,16.4s38.7-8.3,51.3-16.4c9.2-5.9,17.9-11.5,31.5-14.1,5-1,10.7-1.5,17.2-1.5v-8c-6.5,0-12.2.5-17.2,1.5-5.3,1-9.9,2.4-14.1,4h0Z"/>
            <path class="cls-11" d="M949.3,654.1c-2.3-1.5-4.7-3-7.2-4.4-2.9-1.6-5.9-3.2-9.1-4.6-3.8-1.6-7.9-3-12.5-4-5.9-1.3-12.6-2.1-20.5-2.1s-14.7.8-20.5,2.1c-4.6,1.1-8.8,2.5-12.5,4-3.3,1.4-6.3,3-9.1,4.6-2.5,1.4-4.8,2.9-7.2,4.4-.7.4-1.3.8-2,1.2-12.5,8-24.4,15.6-48.7,15.6h0c-24.3,0-36.2-7.6-48.7-15.6-.7-.4-1.3-.8-2-1.2-2.3-1.5-4.7-3-7.2-4.4-2.9-1.6-5.9-3.2-9.1-4.6-3.8-1.6-7.9-3-12.5-4-5.9-1.3-12.6-2.1-20.5-2.1s-14.7.8-20.5,2.1c-4.6,1.1-8.8,2.5-12.5,4-3.3,1.4-6.3,3-9.1,4.6-2.5,1.4-4.8,2.9-7.2,4.4-.7.4-1.3.8-2,1.2-12.5,8-24.4,15.6-48.7,15.6h0c-24.3,0-36.2-7.6-48.7-15.6-.7-.4-1.3-.8-2-1.2-2.3-1.5-4.7-3-7.2-4.4-2.9-1.6-5.9-3.2-9.1-4.6-3.8-1.6-7.9-3-12.5-4-5.9-1.3-12.6-2.1-20.5-2.1s-14.7.8-20.5,2.1c-4.6,1.1-8.8,2.5-12.5,4-3.3,1.4-6.3,3-9.1,4.6-2.5,1.4-4.8,2.9-7.2,4.4-.6.4-1.3.8-2,1.2-12.5,8-24.4,15.6-48.7,15.6h0c-24.3,0-36.2-7.6-48.7-15.6-.6-.4-1.3-.8-2-1.2-2.3-1.5-4.7-3-7.2-4.4-2.9-1.6-5.9-3.2-9.1-4.6-3.8-1.6-7.9-3-12.5-4-5.9-1.3-12.6-2.1-20.5-2.1s-14.7.8-20.5,2.1c-4.6,1.1-8.8,2.5-12.5,4-3.3,1.4-6.3,3-9.1,4.6-2.5,1.4-4.8,2.9-7.2,4.4-.6.4-1.3.8-1.9,1.2-12.5,8-24.4,15.6-48.7,15.6h0c-24.3,0-36.2-7.6-48.7-15.6-.6-.4-1.3-.8-2-1.2-2.3-1.5-4.7-3-7.2-4.4-2.9-1.6-5.9-3.2-9.1-4.6-3.8-1.6-7.9-3-12.5-4-5.9-1.3-12.6-2.1-20.5-2.1s-14.7.8-20.5,2.1c-4.6,1.1-8.8,2.5-12.5,4-3.3,1.4-6.3,3-9.1,4.6-2.5,1.4-4.8,2.9-7.2,4.4-.7.4-1.3.8-2,1.2-12.5,8-24.4,15.6-48.7,15.6h0v3.8h27.7c9.4-3.2,16.5-7.7,23.6-12.2,2.2-1.4,4.3-2.8,6.5-4.1,2.6-1.5,5.2-3,8-4.4,4.1-2,8.5-3.7,13.7-4.9,5.8-1.4,12.5-2.2,20.5-2.2s14.7.8,20.5,2.2c5.1,1.2,9.6,2.9,13.7,4.9,2.8,1.3,5.4,2.8,8,4.4,2.2,1.3,4.4,2.7,6.5,4.1,7,4.5,14.2,9.1,23.6,12.2h55.5c9.4-3.2,16.5-7.7,23.6-12.2,2.2-1.4,4.3-2.8,6.5-4.1,2.6-1.5,5.2-3,8-4.4,4.1-2,8.5-3.7,13.7-4.9,5.8-1.4,12.5-2.2,20.5-2.2s14.7.8,20.5,2.2c5.1,1.2,9.6,2.9,13.7,4.9,2.8,1.3,5.4,2.8,8,4.4,2.2,1.3,4.4,2.7,6.5,4.1,7,4.5,14.2,9.1,23.5,12.2h55.5c9.4-3.2,16.5-7.7,23.5-12.2,2.2-1.4,4.3-2.8,6.5-4.1,2.6-1.5,5.2-3,8-4.4,4.1-2,8.5-3.7,13.7-4.9,5.8-1.4,12.5-2.2,20.5-2.2s14.7.8,20.5,2.2c5.1,1.2,9.6,2.9,13.7,4.9,2.8,1.3,5.4,2.8,8,4.4,2.2,1.3,4.3,2.7,6.5,4.1,7,4.5,14.2,9.1,23.5,12.2h55.5c9.4-3.2,16.5-7.7,23.5-12.2,2.2-1.4,4.3-2.8,6.5-4.1,2.6-1.5,5.2-3,8-4.4,4.1-2,8.5-3.7,13.7-4.9,5.8-1.4,12.5-2.2,20.5-2.2s14.7.8,20.5,2.2c5.1,1.2,9.6,2.9,13.7,4.9,2.8,1.3,5.4,2.8,8,4.4,2.2,1.3,4.3,2.7,6.5,4.1,7,4.5,14.2,9.1,23.5,12.2h55.5c9.4-3.2,16.5-7.7,23.5-12.2,2.2-1.4,4.3-2.8,6.5-4.1,2.6-1.5,5.2-3,8-4.4,4.1-2,8.5-3.7,13.7-4.9,5.8-1.4,12.5-2.2,20.5-2.2s14.7.8,20.5,2.2c5.1,1.2,9.6,2.9,13.7,4.9,2.8,1.3,5.4,2.8,8,4.4,2.2,1.3,4.3,2.7,6.5,4.1,7,4.5,14.2,9.1,23.5,12.2h27.7v-3.8c-24.3,0-36.2-7.6-48.7-15.6-.7-.4-1.3-.8-2-1.2h0Z"/>
            <path class="cls-11" d="M933,663.1c-3.8-1.6-7.9-3-12.5-4-5.9-1.3-12.6-2.1-20.5-2.1s-14.7.8-20.5,2.1c-4.6,1.1-8.8,2.5-12.5,4-6.9,2.9-12.6,6.6-18.2,10.2-.8.5-1.6,1-2.4,1.5h14.2c5.5-3.1,11.5-5.9,18.9-7.7,5.8-1.4,12.5-2.2,20.5-2.2s14.7.8,20.5,2.2c7.4,1.8,13.4,4.5,18.9,7.7h14.2c-.8-.5-1.6-1-2.4-1.5-5.6-3.6-11.4-7.3-18.3-10.2h0Z"/>
          </g>
        </g>
      </g>
    </g>
    <path class="cls-2" d="M541.7,421.7l136.4-210.7c1.5-2.3,1.6-5.2.3-7.7-1.3-2.4-3.8-3.9-6.6-3.9h-343.7c-2.8,0-5.3,1.5-6.6,3.9-1.3,2.4-1.2,5.4.3,7.7l136.4,210.7c7.5,11.6,11.5,25,11.5,38.9v110.1c0,13.4-5.6,26.2-15.4,35.3l-21.8,20.2h22.1l9.9-9.1c12.9-11.9,20.3-28.8,20.3-46.3v-110.1c0-16.7-4.8-33-13.9-47l-3.6-5.6h65.5l-3.6,5.6c-9.1,14-13.9,30.3-13.9,47v110.1c0,17.5,7.4,34.4,20.3,46.3l9.9,9.1h22.1l-21.8-20.2c-9.8-9.1-15.4-21.9-15.4-35.3v-110.1c0-13.8,4-27.3,11.5-38.9h0ZM457.5,392.9l-115.6-178.5h316.1l-115.6,178.5h-84.9,0Z"/>
    <g id="Divider">
      <rect class="cls-3" x="365.1" y="527" width="269.9" height="99.1"/>
      <path class="cls-11" d="M912.3,512H87.7c.1,5,.4,10,.7,15h261.7v114.1h299.9v-114.1h261.7c.3-5,.5-10,.7-15h0ZM634.9,626.1h-269.9v-99.1h269.9v99.1Z"/>
    </g>
    <g id="Glasss">
      <path class="cls-5" d="M500,400.4s49.4,0,47.9,0-17.9,29.1-17.9,29.1l-9.2,76.6,3.1,64.9,3.5,27.1,20.5,20.9v7.1h-47.4l-.5-225.7h0Z"/>
      <path class="cls-10" d="M500.5,400.4s-49.4,0-47.9,0,17.9,29.1,17.9,29.1l9.2,76.6-3.1,64.9-3.5,27.1-20.5,20.9v7.1h47.4l.5-225.7h0Z"/>
      <polygon class="cls-3" points="611.7 285.9 637.3 246.4 362.7 246.4 388.3 285.9 611.7 285.9"/>
      <polygon class="cls-5" points="457.5 392.9 499.3 392.9 383.7 214.4 342 214.4 457.5 392.9"/>
      <path class="cls-11" d="M541.7,421.7l136.4-210.7c1.5-2.3,1.6-5.2.3-7.7-1.3-2.4-3.8-3.9-6.6-3.9h-343.7c-2.8,0-5.3,1.5-6.6,3.9-1.3,2.4-1.2,5.4.3,7.7l136.4,210.7c7.5,11.6,11.5,25,11.5,38.9v110.1c0,13.4-5.6,26.2-15.4,35.3l-21.8,20.2h22.1l9.9-9.1c12.9-11.9,20.3-28.8,20.3-46.3v-110.1c0-16.7-4.8-33-13.9-47l-3.6-5.6h65.5l-3.6,5.6c-9.1,14-13.9,30.3-13.9,47v110.1c0,17.5,7.4,34.4,20.3,46.3l9.9,9.1h22.1l-21.8-20.2c-9.8-9.1-15.4-21.9-15.4-35.3v-110.1c0-13.8,4-27.3,11.5-38.9h0ZM658,214.4l-41.5,64h-233.2l-41.5-64h316.1ZM457.5,392.9l-64.4-99.5h213.8l-64.4,99.5h-84.9,0Z"/>
      <g class="cls-23">
        <g class="cls-23">
          <text class="cls-24" transform="translate(468.6 320.6)"><tspan x="0" y="0">10</tspan></text>
        </g>
      </g>
    </g>
    <g>
      <circle class="cls-11" cx="500" cy="300.9" r="45"/>
      <g>
        <path class="cls-15" d="M471.8,318.9c-1.2,0-1.8-.5-1.8-1.8v-6c0-1.2.5-1.8,1.8-1.8h5.6v-16.7h-4.6c-1.2,0-1.8-.5-1.8-1.8v-6c0-1.2.5-1.8,1.8-1.8h14.5c1.2,0,1.8.5,1.8,1.8v24.5h4.8c1.2,0,1.8.5,1.8,1.8v6c0,1.2-.5,1.8-1.8,1.8h-22.1,0Z"/>
        <path class="cls-15" d="M515.8,319.7c-12.3,0-15.3-4.1-15.3-10.2v-17c0-6.1,3-10.2,15.3-10.2s15.2,4.1,15.2,10.2v17c0,6.1-3,10.2-15.2,10.2ZM515.8,310c3.5,0,4-1,4-2.4v-13.5c0-1.3-.5-2.3-4-2.3s-4,1-4,2.3v13.5c0,1.4.6,2.4,4,2.4Z"/>
      </g>
    </g>
    <g id="Text">
      <g class="cls-25">
        <path class="cls-11" d="M770.4,707.5h-18.4c-6.3,0-11.6,3.8-13.9,9.3l-20.4-24.7c-2.9-3.5-7.2-5.4-11.5-5.4s-3.4.3-5.1.9c-3.8,1.4-6.8,4.2-8.5,7.8-11-9.6-25.3-15.4-41-15.4s-40.7,11-52,27.8c-.9-.2-1.8-.3-2.8-.3h-4.2v-8c0-8.3-6.7-15-15-15h-18.4c-8.3,0-15,6.7-15,15v8.1c-.5,0-1,0-1.5,0h-18.4c-5.2,0-9.8,2.7-12.5,6.7v-14.7c0-8.3-6.7-15-15-15h-18.4c-8.3,0-15,6.7-15,15v2.7c-.9-.2-1.8-.2-2.7-.2-4,0-7.8,1.6-10.6,4.4l-3.1,3.1c-6.6-3.1-13.8-4.8-21.2-4.8s-17.9,2.4-25.5,7c.4-1.8.6-3.8.6-5.7,0-14.3-11.7-26-26-26s-13.5,2.7-18.4,7.6-7.4,11-7.6,17.8c-4.6.7-9,2.1-13.2,4.1l-3.1-3.1c-1.6-1.6-3.6-2.8-5.7-3.5v-.3c0-27.4-22.4-49.8-49.9-49.8s-1,0-1.5,0v-5.3c0-8.3-6.7-15-15-15h-18.4c-8.3,0-15,6.7-15,15v112.8l-8.4,8.4c-5.8,5.8-5.9,15.3,0,21.2l12.8,12.9c2.8,2.8,6.6,4.4,10.6,4.4h0c4,0,7.8-1.6,10.6-4.4l3.1-3.1c6.5,3.1,13.8,4.7,21.2,4.7,11.9,0,22.9-4.2,31.5-11.2,2.4,5,7.5,8.5,13.5,8.5h18.4c5.3,0,10-2.8,12.6-7,2.7,4.2,7.3,7,12.6,7h18.4c5.2,0,9.9-2.7,12.5-6.8,3.6,2.7,7.4,4.8,11.4,6.3v6.6c0,8.3,6.7,15,15,15h2.8c18.3,0,34.3-9.9,43-24.6,2.6,2.2,5.9,3.5,9.6,3.5h18.4c6.1,0,11.4-3.7,13.8-9,2.3,5.3,7.6,9,13.7,9h18.4c7.6,0,13.8-5.6,14.8-12.9,9.1,9.6,22.1,15.6,36.5,15.6h2.8c7.8,0,14.3-6,14.9-13.7,10.8,9,24.7,14.4,39.8,14.4s29.2-5.5,40.1-14.6c1.7,6.4,7.5,11.2,14.5,11.2h18.4c6.3,0,11.6-3.8,13.9-9.3l20.4,24.7c2.9,3.5,7.2,5.4,11.5,5.4s3.4-.3,5.1-.9c6-2.1,9.9-7.8,9.9-14.1v-84.9c0-8.3-6.7-15-15-15h0s0,0,0,0Z"/>
      </g>
      <g>
        <path id="Outline_Beige" data-name="Outline Beige" class="cls-10" d="M829,702.9c-15.7,25.4-34.3,49-55.8,70.4-35.5,35.5-76.8,63.4-122.9,82.8-47.6,20.2-98.2,30.4-150.4,30.4s-102.8-10.2-150.4-30.4c-46-19.5-87.4-47.3-122.9-82.8-21.4-21.4-40.1-45-55.8-70.4h-30.2c70.8,125.2,205.2,209.6,359.2,209.6s288.4-84.5,359.2-209.6h-30.2,0Z"/>
        <g>
          <path class="cls-10" d="M770.4,814.9c-2.2,0-4.3-1-5.8-2.7l-32.6-39.3v13.7c0,4.1-3.4,7.5-7.5,7.5h-18.4c-4.1,0-7.5-3.4-7.5-7.5v-84.9c0-3.2,2-6,5-7.1.8-.3,1.7-.4,2.5-.4,2.2,0,4.3,1,5.8,2.7l32.6,39.3v-13.7c0-4.1,3.4-7.5,7.5-7.5h18.4c4.1,0,7.5,3.4,7.5,7.5v84.9c0,3.2-2,6-5,7.1-.8.3-1.7.4-2.5.4Z"/>
          <path class="cls-11" d="M706.1,701.7l45.9,55.3v-34.5h18.4v84.9l-45.9-55.3v34.5h-18.4v-84.9M706.1,686.7c-1.7,0-3.4.3-5.1.9-6,2.1-9.9,7.8-9.9,14.1v84.9c0,8.3,6.7,15,15,15h18.4c6.3,0,11.6-3.8,13.9-9.3l20.4,24.7c2.9,3.5,7.2,5.4,11.5,5.4s3.4-.3,5.1-.9c6-2.1,9.9-7.8,9.9-14.1v-84.9c0-8.3-6.7-15-15-15h-18.4c-6.3,0-11.6,3.8-13.9,9.3l-20.4-24.7c-2.9-3.5-7.2-5.4-11.5-5.4h0Z"/>
        </g>
        <g>
          <path class="cls-10" d="M309.5,729.8l12.8-12.8,11.7,11.7c6-5.5,14.3-8.9,23.2-8.9h1.9v18.4h-1.9c-9.2,0-16.5,7.3-16.5,16.4v32.1h-18.4v-44.1l-12.8-12.8Z"/>
          <path class="cls-10" d="M375.1,717c-6.2,0-11-5-11-11s4.8-11,11-11,11,4.8,11,11-5,11-11,11ZM384.2,786.6h-18.4v-64.1h18.4v64.1Z"/>
          <path class="cls-10" d="M425.9,719.8c8.9,0,17,3.4,23.2,8.9l11.7-11.7,12.8,12.8-12.8,12.8v30.4c0,19.2-15.6,34.9-34.9,34.9h-2.8v-18.7c-15.5,0-32-15.3-32-34.5s15.5-34.8,34.8-34.8ZM409.5,754.6c0,9.1,7.3,16.4,16.4,16.4s16.5-7.3,16.5-16.4-7.4-16.5-16.5-16.5-16.4,7.4-16.4,16.5Z"/>
          <path class="cls-10" d="M524.3,740.8v-18.3h18.4v64.1h-18.4v-27.5h-27.5v27.5h-18.4v-87.1h18.4v41.2h27.5Z"/>
          <path class="cls-10" d="M559.2,699.5h18.4v23h19.2v18.3h-19.2v14.7c0,8.8,7.2,15.6,16.5,15.6h2.8v18.3h-2.8c-18.7,0-34.9-14.6-34.9-33.9v-14.7h-9.1v-18.3h9.1v-23Z"/>
          <g>
            <g class="cls-22">
              <g>
                <path class="cls-7" d="M699.1,756.9c0,26.3-21.3,47.5-47.5,47.5s-47.5-21.3-47.5-47.5,21.3-47.5,47.5-47.5,47.5,21.3,47.5,47.5h0ZM618.4,757c0,18.3,14.9,33,33.2,33s33.2-14.7,33.2-33-14.9-33.4-33.2-33.4-33.2,15-33.2,33.4Z"/>
                <path class="cls-13" d="M699.1,760.3c0,26.3-21.3,47.5-47.5,47.5s-47.5-21.3-47.5-47.5,21.3-47.5,47.5-47.5,47.5,21.3,47.5,47.5h0ZM618.4,760.5c0,18.3,14.9,33,33.2,33s33.2-14.7,33.2-33-14.9-33.4-33.2-33.4-33.2,15-33.2,33.4Z"/>
                <path class="cls-12" d="M699.1,763.7c0,26.3-21.3,47.5-47.5,47.5s-47.5-21.3-47.5-47.5,21.3-47.5,47.5-47.5,47.5,21.3,47.5,47.5h0ZM618.4,763.9c0,18.3,14.9,33,33.2,33s33.2-14.7,33.2-33-14.9-33.4-33.2-33.4-33.2,15-33.2,33.4Z"/>
                <path class="cls-9" d="M699.1,767.1c0,26.3-21.3,47.5-47.5,47.5s-47.5-21.3-47.5-47.5,21.3-47.5,47.5-47.5,47.5,21.3,47.5,47.5h0ZM618.4,767.3c0,18.3,14.9,33,33.2,33s33.2-14.7,33.2-33-14.9-33.4-33.2-33.4-33.2,15-33.2,33.4Z"/>
                <path class="cls-14" d="M699.1,770.5c0,26.3-21.3,47.5-47.5,47.5s-47.5-21.3-47.5-47.5,21.3-47.5,47.5-47.5,47.5,21.3,47.5,47.5h0ZM618.4,770.7c0,18.3,14.9,33,33.2,33s33.2-14.7,33.2-33-14.9-33.4-33.2-33.4-33.2,15-33.2,33.4Z"/>
                <path class="cls-1" d="M699.1,774c0,26.3-21.3,47.5-47.5,47.5s-47.5-21.3-47.5-47.5,21.3-47.5,47.5-47.5,47.5,21.3,47.5,47.5h0ZM618.4,774.1c0,18.3,14.9,33,33.2,33s33.2-14.7,33.2-33-14.9-33.4-33.2-33.4-33.2,15-33.2,33.4Z"/>
              </g>
            </g>
            <path class="cls-10" d="M699.1,742.5c0,26.3-21.3,47.5-47.5,47.5s-47.5-21.3-47.5-47.5,21.3-47.5,47.5-47.5,47.5,21.3,47.5,47.5h0ZM618.4,742.7c0,18.3,14.9,33,33.2,33s33.2-14.7,33.2-33-14.9-33.4-33.2-33.4-33.2,15-33.2,33.4Z"/>
          </g>
          <path class="cls-10" d="M770.4,807.4l-45.9-55.3v34.5h-18.4v-84.9l45.9,55.3v-34.5h18.4v84.9Z"/>
          <path class="cls-10" d="M300.4,728.5c7.2-6.4,11.7-15.7,11.7-26,0-19.2-15.6-34.8-34.9-34.8s-11.7,1.5-16.5,4.3v-24.5h-18.4v119l-12.8,12.8,12.8,12.9,11.7-11.7c6,5.5,14.3,8.9,23.2,8.9,19.2,0,34.9-15.6,34.9-34.9s-4.5-19.6-11.7-26ZM277.2,771c-9.1,0-16.5-7.3-16.5-16.4s7.4-16.5,16.5-16.5,16.5,7.4,16.5,16.5-7.4,16.4-16.5,16.4ZM277.2,719c-9.1,0-16.5-7.3-16.5-16.4s7.4-16.5,16.5-16.5,16.5,7.4,16.5,16.5-7.4,16.4-16.5,16.4Z"/>
        </g>
      </g>
    </g>
    <g id="Pavilion">
      <path class="cls-11" d="M921.9,475.8h-57.7v-12.3h-252.8v12.3h0c-4.1,0-7.5,3.4-7.5,7.5s3.4,7.5,7.5,7.5h12.7v21.2h10v-21.2h12.3v21.2h10v-21.2h12.2v21.2h10v-21.2h12.2v21.2h10v-21.2h11.2v21.2h10v-21.2h11.2v21.2h10v-21.2h11.2v21.2h10v-21.2h11.2v21.2h10v-21.2h11.2v21.2h10v-21.2h11.2v21.2h10v-21.2h12.2v21.2h10v-21.2h71.7c4.1,0,7.5-3.4,7.5-7.5s-3.4-7.5-7.5-7.5h0Z"/>
      <g>
        <rect class="cls-4" x="679.6" y="417.4" width="32.7" height="58.2"/>
        <rect class="cls-4" x="721.9" y="417.4" width="32.7" height="58.2"/>
        <rect class="cls-4" x="764.3" y="417.4" width="32.7" height="58.2"/>
        <rect class="cls-4" x="806.7" y="423" width="32.7" height="52.6"/>
        <rect class="cls-4" x="637.2" y="423" width="32.7" height="52.6"/>
      </g>
      <g>
        <path class="cls-18" d="M794.5,409.4h-7.8c0-10.7-5.6-20.4-14.6-27.3,13.5,6.3,22.3,16.2,22.3,27.3Z"/>
        <path class="cls-18" d="M783.8,409.4h-8.7c0-12.8-6.1-24.2-15.4-31.1,14.4,5.9,24.2,17.7,24.2,31.1Z"/>
        <path class="cls-18" d="M751.5,377c12,5.4,20.5,17.9,20.5,32.4h-8.8c0-13.7-4.7-25.7-11.8-32.4Z"/>
        <path class="cls-18" d="M760.3,409.4h-8.8c0-13.1-2.3-26.8-6.7-33.7,8.9,4.5,15.5,17.9,15.5,33.7Z"/>
        <path class="cls-18" d="M748.5,409.4h-20.5c0-17.5,3.8-30.6,8-34.2.8,0,1.5,0,2.3,0s1.5,0,2.3,0c4.1,3.6,7.9,16.7,7.9,34.2Z"/>
        <path class="cls-18" d="M731.8,375.8c-4.4,6.9-6.7,20.6-6.7,33.7h-8.7c0-15.8,6.5-29.2,15.5-33.7Z"/>
        <path class="cls-18" d="M725.1,377c-7,6.8-11.8,18.8-11.8,32.4h-8.8c0-14.5,8.5-27,20.5-32.4Z"/>
        <path class="cls-18" d="M717,378.3c-9.3,7-15.4,18.3-15.4,31.1h-8.7c0-13.5,9.8-25.2,24.2-31.1Z"/>
        <path class="cls-18" d="M704.4,382.1c-9,7-14.6,16.6-14.6,27.3h-7.8c0-11.1,8.8-21,22.3-27.3Z"/>
        <path class="cls-11" d="M689.8,409.4c0-10.7,5.6-20.4,14.6-27.3-13.5,6.3-22.3,16.2-22.3,27.3h7.8ZM783.8,409.4c0-13.5-9.8-25.2-24.2-31.1,9.3,6.9,15.4,18.3,15.4,31.1h8.7ZM772.2,382.1c9,7,14.6,16.6,14.6,27.3h7.8c0-11.1-8.8-21-22.3-27.3ZM701.6,409.4c0-12.8,6.1-24.2,15.4-31.1-14.4,5.9-24.2,17.7-24.2,31.1h8.7ZM713.3,409.4c0-13.7,4.7-25.7,11.8-32.4-12,5.4-20.5,17.9-20.5,32.4h8.8ZM725,409.4c0-13.1,2.3-26.8,6.7-33.7-8.9,4.5-15.5,17.9-15.5,33.7h8.7ZM748.5,409.4c0-17.5-3.8-30.6-7.9-34.2-.8,0-1.5,0-2.3,0s-1.5,0-2.3,0c-4.1,3.6-8,16.7-8,34.2h20.5ZM760.3,409.4c0-15.8-6.5-29.2-15.5-33.7,4.4,6.9,6.7,20.6,6.7,33.7h8.8ZM751.5,377c7,6.8,11.8,18.8,11.8,32.4h8.8c0-14.5-8.5-27-20.5-32.4ZM847.4,475.6v8h-218.2v-68.6c0-2.2,1.8-4,4-4s4,1.8,4,4h34.4v-5.6h5.5c0-19.5,22.3-35.7,51.4-38.8l7-13.1c-1.9-1-3.2-3-3.2-5.3s1.7-4.8,4-5.7v-16.8h4v16.8c2.3.8,4,3,4,5.7s-1.3,4.3-3.2,5.3l7,13.1c29.1,3,51.4,19.2,51.4,38.8h5.5v5.6h34.4c0-2.2,1.8-4,4-4s4,1.8,4,4v60.6h0ZM839.4,475.6v-52.6h-32.7v52.6h32.7ZM797,475.6v-58.2h-32.7v58.2h32.7ZM754.7,475.6v-58.2h-32.7v58.2h32.7ZM712.3,475.6v-58.2h-32.7v58.2h32.7ZM669.9,475.6v-52.6h-32.7v52.6h32.7Z"/>
      </g>
      <g>
        <ellipse class="cls-11" cx="738.3" cy="442.5" rx="10.9" ry="14.8"/>
        <circle class="cls-10" cx="738.3" cy="447" r="5.4"/>
      </g>
      <ellipse class="cls-11" cx="738.3" cy="475.6" rx="10.9" ry="14.8"/>
      <g>
        <ellipse class="cls-11" cx="653.6" cy="444.5" rx="10.9" ry="14.8"/>
        <circle class="cls-10" cx="653.6" cy="449" r="5.4"/>
      </g>
      <g>
        <ellipse class="cls-11" cx="695.9" cy="442.5" rx="10.9" ry="14.8"/>
        <circle class="cls-10" cx="695.9" cy="447" r="5.4"/>
      </g>
      <g>
        <ellipse class="cls-11" cx="780.7" cy="442.5" rx="10.9" ry="14.8"/>
        <circle class="cls-10" cx="780.7" cy="447" r="5.4"/>
      </g>
      <g>
        <ellipse class="cls-11" cx="823" cy="444.5" rx="10.9" ry="14.8"/>
        <circle class="cls-10" cx="823" cy="449" r="5.4"/>
      </g>
    </g>
    <path class="cls-6" d="M271.7,441.1c6.5,8.9,6.8,19.2,0,28.9-6.8-9.7-6.5-20,0-28.9h0Z"/>
    <path class="cls-6" d="M148.5,492.8v1c-1,.2-2,1.3-2,2.4s.3,1.7,1,2.4c.1.1.1.3,0,.5l-3.9,8.5h-4.2c-.3,0-.6-.2-.3-.8l4.1-7.4c.2-.3.2-.5,0-.7-1.1-.9-1.6-1.5-1.6-3s1.8-3,3.4-3h3.4,0Z"/>
    <path class="cls-6" d="M259.4,492.8v1c-1,.2-2,1.3-2,2.4s.3,1.7,1,2.4c.1.1.1.3,0,.5l-3.9,8.5h-4.2c-.3,0-.6-.2-.3-.8l4.1-7.4c.2-.3.2-.5,0-.7-1.1-.9-1.6-1.5-1.6-3s1.8-3,3.4-3h3.4,0Z"/>
    <path class="cls-6" d="M245.2,492.8v1c-1,.2-2,1.3-2,2.4s.3,1.7,1,2.4c.1.1.1.3,0,.5l-3.9,8.5h-4.2c-.3,0-.6-.2-.3-.8l4.1-7.4c.2-.3.2-.5,0-.7-1.1-.9-1.6-1.5-1.6-3s1.8-3,3.4-3h3.4Z"/>
    <path class="cls-6" d="M231.3,492.8v1c-1,.2-2,1.3-2,2.4s.3,1.7,1,2.4c.1.1.1.3,0,.5l-3.9,8.5h-4.2c-.4,0-.6-.2-.3-.8l4.1-7.4c.2-.3.2-.5,0-.7-1.1-.9-1.6-1.5-1.6-3s1.8-3,3.4-3h3.4,0Z"/>
    <path class="cls-6" d="M217.4,492.8v1c-1,.2-2,1.3-2,2.4s.3,1.7,1,2.4c.1.1.1.3,0,.5l-3.9,8.5h-4.2c-.3,0-.6-.2-.3-.8l4.1-7.4c.2-.3.2-.5,0-.7-1.1-.9-1.6-1.5-1.6-3s1.8-3,3.4-3h3.4,0Z"/>
    <path class="cls-6" d="M203.3,492.8v1c-1,.2-2,1.3-2,2.4s.3,1.7,1,2.4c.1.1.1.3,0,.5l-3.9,8.5h-4.2c-.3,0-.6-.2-.3-.8l4.1-7.4c.2-.3.2-.5,0-.7-1.1-.9-1.6-1.5-1.6-3s1.8-3,3.4-3h3.4Z"/>
    <g>
      <path class="cls-17" d="M412.1,454.1c-6.9-2.5-12-8.6-13.5-15.8-2.3-11.4-7.6-19.4-13.8-19.4s-11.5,8-13.8,19.4c-1.5,7.2-6.6,13.2-13.5,15.8-16.6,6.1-27.7,17.7-27.7,30.9,0,19.7,24.6,35.6,55,35.6s55-16,55-35.6-11.2-24.8-27.7-30.9Z"/>
      <g class="cls-28">
        <path class="cls-4" d="M428.7,454.1c-6.9-2.5-12-8.6-13.5-15.8-2.3-11.4-7.6-19.4-13.8-19.4s-11.5,8-13.8,19.4c-1.5,7.2-6.6,13.2-13.5,15.8-16.6,6.1-27.7,17.7-27.7,30.9,0,19.7,24.6,35.6,55,35.6s55-16,55-35.6-11.2-24.8-27.7-30.9Z"/>
      </g>
      <path class="cls-11" d="M391.4,416c0-1.3-1.3-2.4-3.2-3,1.1-.7,1.7-1.8,1.7-3s-1.1-2.8-2.6-3.5c.6-1.1,1-2.5,1-4.2,0-2.4-.8-4.5-2-5.4v-.8c2.6-.7,4.5-3,4.5-5.8s-1.9-5.1-4.5-5.8v-14.6h-3v14.6c-2.6.7-4.5,3-4.5,5.8s1.9,5.1,4.5,5.8v.8c-1.2,1-2,3-2,5.4s.4,3.2,1,4.3c-1.4.7-2.4,2-2.4,3.4s.7,2.3,1.7,3c-1.9.6-3.2,1.7-3.2,3s2.1,3,4.9,3.4v3.6h3v-3.6c2.9-.3,5.1-1.7,5.1-3.4h0Z"/>
      <g>
        <polygon class="cls-19" points="339.9 490.3 346.4 499 352.9 490.3 346.4 481.6 339.9 490.3"/>
        <polygon class="cls-19" points="359.2 490.3 365.7 499 372.2 490.3 365.7 481.6 359.2 490.3"/>
        <polygon class="cls-19" points="378.4 490.3 384.9 499 391.4 490.3 384.9 481.6 378.4 490.3"/>
        <polygon class="cls-19" points="397.7 490.3 404.2 499 410.7 490.3 404.2 481.6 397.7 490.3"/>
        <polygon class="cls-19" points="416.9 490.3 423.4 499 429.9 490.3 423.4 481.6 416.9 490.3"/>
      </g>
    </g>
    <g>
      <path class="cls-11" d="M206.4,344.3c0-1.6-1.6-3-4.1-3.8,1.3-.9,2.2-2.3,2.2-3.8s-1.3-3.5-3.3-4.4c.8-1.4,1.2-3.2,1.2-5.2,0-3-1-5.6-2.5-6.8v-1c3.2-.8,5.6-3.8,5.6-7.3s-2.4-6.5-5.6-7.3v-18.4h-3.8v18.4c-3.2.8-5.6,3.8-5.6,7.3s2.4,6.5,5.6,7.3v1c-1.5,1.2-2.5,3.8-2.5,6.8s.5,4,1.3,5.3c-1.8.9-3,2.5-3,4.3s.9,2.9,2.2,3.8c-2.4.8-4.1,2.2-4.1,3.8s2.6,3.8,6.1,4.2v4.5h3.8v-4.5c3.7-.4,6.4-2.2,6.4-4.3h0Z"/>
      <path class="cls-17" d="M276.2,452.7c0-28-21.2-51.9-51-61-10.6-3.2-17.5-13.2-17.5-24.2v-.3c0-13.2-4.2-24-9.4-24s-9.4,10.7-9.4,24v.4c0,11-6.9,21-17.4,24.2-29.6,9.2-50.7,33-50.7,60.9s7.4,31.7,19.7,43.2h-7.1v21.9h129.8v-21.9h-6.6c12.2-11.5,19.7-26.6,19.7-43.2h0Z"/>
      <g class="cls-26">
        <path class="cls-4" d="M300.5,452.7c0-28-21.2-51.9-51-61-10.6-3.2-17.5-13.2-17.5-24.2v-.3c0-13.2-4.2-24-9.4-24s-9.4,10.7-9.4,24v.4c0,11-6.9,21-17.4,24.2-29.6,9.2-50.7,33-50.7,60.9s7.4,31.7,19.7,43.2h-7.1v21.9h129.8v-21.9h-6.6c12.2-11.5,19.7-26.6,19.7-43.2h0Z"/>
      </g>
      <g>
        <polygon class="cls-20" points="136 464.7 145 476.7 154 464.7 145 452.7 136 464.7"/>
        <polygon class="cls-20" points="162.6 464.7 171.6 476.7 180.6 464.7 171.6 452.7 162.6 464.7"/>
        <polygon class="cls-20" points="189.3 464.7 198.3 476.7 207.3 464.7 198.3 452.7 189.3 464.7"/>
        <polygon class="cls-20" points="215.9 464.7 224.9 476.7 233.9 464.7 224.9 452.7 215.9 464.7"/>
        <polygon class="cls-20" points="242.6 464.7 251.6 476.7 260.6 464.7 251.6 452.7 242.6 464.7"/>
      </g>
    </g>
    <rect class="cls-11" x="118.7" y="512" width="323.7" height="10.9"/>
    <g>
      <g>
        <path class="cls-5" d="M310,480.5v-8.3c0-2.4-1.1-4.5-2.7-6,1.7-1.5,2.7-3.6,2.7-6v-66.1c0-2.4-1.1-4.5-2.7-6,1.7-1.5,2.7-3.6,2.7-6v-26.1c0-3.9-2.8-7.1-6.5-7.9v-15h-3v15c-3.7.7-6.5,4-6.5,7.9v26.1c0,2.4,1.1,4.5,2.7,6-1.7,1.5-2.7,3.6-2.7,6v66.1c0,2.4,1.1,4.5,2.7,6-1.7,1.5-2.7,3.6-2.7,6v8.3c-1.2,1.7-2,3.7-2,6v25.5h20v-25.5c0-2.2-.8-4.3-2-6Z"/>
        <g class="cls-29">
          <path class="cls-4" d="M314,480.5v-8.3c0-2.4-1.1-4.5-2.7-6,1.7-1.5,2.7-3.6,2.7-6v-66.1c0-2.4-1.1-4.5-2.7-6,1.7-1.5,2.7-3.6,2.7-6v-26.1c0-3.9-2.8-7.1-6.5-7.9v-15h-3v15c-3.7.7-6.5,4-6.5,7.9v26.1c0,2.4,1.1,4.5,2.7,6-1.7,1.5-2.7,3.6-2.7,6v66.1c0,2.4,1.1,4.5,2.7,6-1.7,1.5-2.7,3.6-2.7,6v8.3c-1.2,1.7-2,3.7-2,6v25.5h20v-25.5c0-2.2-.8-4.3-2-6Z"/>
        </g>
        <path class="cls-11" d="M303.5,333v15c3.7.7,6.5,4,6.5,7.9v26.1c0,2.4-1.1,4.5-2.7,6,1.7,1.5,2.7,3.6,2.7,6v66.1c0,2.4-1.1,4.5-2.7,6,1.7,1.5,2.7,3.6,2.7,6v8.3c1.2,1.7,2,3.7,2,6v25.5h-20v-25.5c0-2.2.8-4.3,2-6v-8.3c0-2.4,1.1-4.5,2.7-6-1.7-1.5-2.7-3.6-2.7-6v-66.1c0-2.4,1.1-4.5,2.7-6-1.7-1.5-2.7-3.6-2.7-6v-26.1c0-3.9,2.8-7.1,6.5-7.9v-15h3M303.5,329h-3c-2.2,0-4,1.8-4,4v12.2c-3.9,2-6.5,6.1-6.5,10.7v26.1c0,2.1.6,4.2,1.6,6-1,1.8-1.6,3.9-1.6,6v66.1c0,2.1.6,4.2,1.6,6-1,1.8-1.6,3.9-1.6,6v7.1c-1.3,2.2-2,4.6-2,7.2v25.5c0,2.2,1.8,4,4,4h20c2.2,0,4-1.8,4-4v-25.5c0-2.6-.7-5-2-7.2v-7.1c0-2.1-.6-4.2-1.6-6,1-1.8,1.6-3.9,1.6-6v-66.1c0-2.1-.6-4.2-1.6-6,1-1.8,1.6-3.9,1.6-6v-26.1c0-4.6-2.6-8.6-6.5-10.7v-12.2c0-2.2-1.8-4-4-4h0Z"/>
      </g>
      <path class="cls-11" d="M297.7,458.6c-.8,0-1.5-.7-1.5-1.5v-60c0-.8.7-1.5,1.5-1.5s1.5.7,1.5,1.5v60c0,.8-.7,1.5-1.5,1.5Z"/>
      <path class="cls-11" d="M302,458.6c-.8,0-1.5-.7-1.5-1.5v-60c0-.8.7-1.5,1.5-1.5s1.5.7,1.5,1.5v60c0,.8-.7,1.5-1.5,1.5Z"/>
      <path class="cls-11" d="M297.7,377.5c-.8,0-1.5-.7-1.5-1.5v-20c0-.8.7-1.5,1.5-1.5s1.5.7,1.5,1.5v20c0,.8-.7,1.5-1.5,1.5Z"/>
      <path class="cls-11" d="M302,374.5c-.8,0-1.5-.7-1.5-1.5v-20c0-.8.7-1.5,1.5-1.5s1.5.7,1.5,1.5v20c0,.8-.7,1.5-1.5,1.5Z"/>
    </g>
    <path id="Seagull_Fire" data-name="Seagull Fire" class="cls-21" d="M603.7,127.8c5.2,0,42.1,9.6,50.1,9.6.4,0,.7,0,.9,0,0,0-.2-.2-.3-.3-.4-.3-1.2-.8-2.2-1.3-2-1.1-5.3-2.6-9.9-4.5-9.6-4.1-41.7-13.2-52.6-13.2-22.8,0-54.7,19.1-63.9,23.5,6.7,4.5,12.7,8.4,17.1,10.2.4.2.6.6.4,1-.2.4-.6.6-1,.4-7.6-3.2-19.5-11.9-31.4-19.9-11.9-8-23.8-15.1-30.7-15-18.5,0-58.2,15.8-83.6,21.4-22.3,4.9-47.6,6.7-52.7,7,.3.7,1.1,1.7,3.2,2.9,3.5,1.8,10.6,3.7,24.7,3.7s19.4-.6,33.6-2.4c21.9-2.6,35.3-3.9,44.6-3.9,14.5,0,18.6,3.3,27.2,9.3.3.2.4.7.2,1.1-.2.3-.7.4-1.1.2-1.4-1-2.7-1.9-3.9-2.7-4.5,1.1-11.5,2.8-13.8,3.5-10,3.2-20.1,4.2-29.3,4.2-15.6,0-28.7-2.9-35.3-2.9-1.8,0-3.1.2-4.1.9-1.4,1.1-2,2.7-2,4.5,0,5.3,4.9,12.4,11.4,17.2,8.6,6.3,17.3,7.2,22.3,7.2,5.5,0,16.6-6.8,29.4-6.8,1,0,2,0,3,.1,16.9,1.4,46.2,9.8,60.7,9.8,19.1,0,43.4-9.2,52.7-12.2,9.9-3.1,16.4-3.7,20.8-4.7,11.3-1.9,20.8.9,20.8.9h0c0-.3,0-.5,0-.7-.4-7.8-14.4-10.9-18.5-11.1-3.3-.6-8.9-5.6-14.2-9.6-5-3.7-11-5.9-17.2-6.2,2.8-1.4,5.6-3.1,8.4-4.9,9.5-6.2,27.9-16.3,36.1-16.3h0Z"/>
    <g>
      <g>
        <g>
          <path class="cls-10" d="M826.8,948.8h-20.1v-84.4h20.1v14.7c4.8-2.4,10.2-3.7,15.6-3.7h7.4v20.2h-7.4c-8.6,0-15.6,7-15.6,15.5v37.6ZM817.7,901.2v.2c0,0,0-.2.1-.3h-.1Z"/>
          <path class="cls-10" d="M777.3,864.4v14.7c-4.8-2.4-10.2-3.7-15.6-3.7-19.7,0-35.8,16-35.8,35.8s16,35.8,35.8,35.8,10.7-1.3,15.6-3.6v14.6h20.1v-93.5h-20.1Z"/>
          <path class="cls-10" d="M895.1,850.6v28.5c-4.8-2.4-10.2-3.7-15.6-3.7-19.7,0-35.8,16-35.8,35.8s16,35.8,35.8,35.8,10.7-1.3,15.6-3.6v14.6h20.1v-107.2h-20.1Z"/>
          <path class="cls-10" d="M916.2,969.9h-8.2v-20.1h8.2c8.6,0,15.6-7,15.6-15.6v-49.5c0-19.7,16-35.8,35.8-35.8h8.2v20.1h-8.2c-8.6,0-15.6,7-15.6,15.6v49.5c0,19.7-16,35.8-35.8,35.8Z"/>
          <polygon class="cls-10" points="698.5 958.5 675.7 906.3 652.8 958.5 618.2 879.9 636.9 872 652.8 907.9 675.7 855.6 698.6 907.9 714.4 872 733.1 879.9 698.5 958.5"/>
          <path class="cls-10" d="M598.9,864.4v14.7c-4.8-2.4-10.2-3.7-15.6-3.7-19.7,0-35.8,16-35.8,35.8s16,35.8,35.8,35.8,10.7-1.3,15.6-3.6v14.6h20.1v-93.5h-20.1Z"/>
        </g>
        <g>
          <path class="cls-11" d="M604.4,952.4v-19.5c-5.5,5.2-13.1,8.5-21.1,8.5-16.7,0-30.2-13.6-30.2-30.2s13.4-30.2,30.2-30.2,15.6,3.4,21.1,8.9v-19.9h9.1v82.5h-9.1ZM562.1,911.2c0,11.7,9.5,21,21.1,21s21.1-9.3,21.1-21-9.5-21.2-21.1-21.2-21.1,9.6-21.1,21.2Z"/>
          <path class="cls-11" d="M652.8,921.6l22.9-52.2,22.9,52.2,18.7-42.5,8.6,3.6-27.3,62-22.9-52.2-22.9,52.2-27.3-62,8.6-3.6,18.7,42.5Z"/>
          <path class="cls-11" d="M782.8,952.4v-19.5c-5.5,5.2-13.1,8.5-21.1,8.5-16.7,0-30.2-13.6-30.2-30.2s13.4-30.2,30.2-30.2,15.6,3.4,21.1,8.9v-19.9h9.1v82.5h-9.1ZM740.6,911.2c0,11.7,9.5,21,21.1,21s21.1-9.3,21.1-21-9.5-21.2-21.1-21.2-21.1,9.6-21.1,21.2Z"/>
          <path class="cls-11" d="M821.3,869.9v19.9c5.5-5.5,12.9-8.9,21.1-8.9h1.9v9.2h-1.9c-11.7,0-21.1,9.5-21.1,21v32.1h-9.1v-73.4h9.1Z"/>
          <path class="cls-11" d="M900.6,952.4v-19.5c-5.5,5.2-13.1,8.5-21.1,8.5-16.7,0-30.2-13.6-30.2-30.2s13.5-30.2,30.2-30.2,15.6,3.4,21.1,8.9v-33.7h9.1v96.2h-9.1ZM858.3,911.2c0,11.7,9.5,21,21.1,21s21.1-9.3,21.1-21-9.5-21.2-21.1-21.2-21.1,9.6-21.1,21.2Z"/>
          <path class="cls-11" d="M967.5,854.4h2.8v9.1h-2.8c-11.7,0-21.1,9.6-21.1,21.1v49.5c0,16.7-13.5,30.2-30.2,30.2h-2.8v-9.1h2.8c11.7,0,21.1-9.6,21.1-21.1v-49.5c0-16.7,13.5-30.2,30.2-30.2Z"/>
        </g>
      </g>
      <g>
        <g>
          <path class="cls-10" d="M525.5,909.8h-20.1v-84.4h20.1v14.7c4.8-2.4,10.2-3.7,15.6-3.7h7.4v20.2h-7.4c-8.6,0-15.6,7-15.6,15.5v37.6ZM516.4,862.2v.2c0,0,0-.2.1-.3h-.1Z"/>
          <path class="cls-10" d="M476,825.4v14.7c-4.8-2.4-10.1-3.7-15.6-3.7-19.7,0-35.8,16-35.8,35.8s16,35.8,35.8,35.8,10.7-1.3,15.6-3.6v14.6h20.1v-93.5h-20.1Z"/>
          <path class="cls-10" d="M388.5,836.4c-5.5,0-10.8,1.3-15.6,3.7v-28.5h-20.1v71.6l-16.7,16.7,14.5,14.5,15-15c6.4,5.4,14.5,8.4,23,8.4,19.7,0,35.8-16,35.8-35.8s-16-35.8-35.8-35.8Z"/>
        </g>
        <g>
          <path class="cls-11" d="M520,830.9v19.9c5.5-5.5,12.9-8.9,21.1-8.9h1.9v9.2h-1.9c-11.7,0-21.1,9.5-21.1,21v32.1h-9.1v-73.4h9.1Z"/>
          <path class="cls-11" d="M481.5,913.4v-19.5c-5.5,5.2-13.1,8.5-21.1,8.5-16.7,0-30.2-13.6-30.2-30.2s13.4-30.2,30.2-30.2,15.6,3.4,21.1,8.9v-19.9h9.1v82.5h-9.1ZM439.3,872.2c0,11.7,9.5,21,21.1,21s21.1-9.3,21.1-21-9.5-21.2-21.1-21.2-21.1,9.6-21.1,21.2Z"/>
          <path class="cls-11" d="M388.5,841.9c16.7,0,30.2,13.6,30.2,30.2s-13.5,30.2-30.2,30.2-17.5-4.3-23-10.7l-15,15-6.7-6.7,14.4-14.4v-68.4h9.1v33.7c5.5-5.5,12.9-8.9,21.1-8.9h0ZM367.4,872.2c0,11.7,9.5,21,21.1,21s21.1-9.3,21.1-21-9.5-21.2-21.1-21.2-21.1,9.6-21.1,21.2Z"/>
        </g>
      </g>
    </g>
  </g>
</svg>