<?xml version="1.0" encoding="UTF-8"?>
<svg id="Layer_1" data-name="Layer 1" xmlns="http://www.w3.org/2000/svg" version="1.1" xmlns:xlink="http://www.w3.org/1999/xlink" viewBox="0 0 1000 1000">
  <defs>
    <style>
      .cls-1 {
        fill: #6a3a8f;
      }

      .cls-1, .cls-2, .cls-3, .cls-4, .cls-5, .cls-6, .cls-7, .cls-8, .cls-9, .cls-10, .cls-11, .cls-12, .cls-13, .cls-14, .cls-15 {
        stroke-width: 0px;
      }

      .cls-2, .cls-16, .cls-17, .cls-11 {
        fill: #1d1d1b;
      }

      .cls-2, .cls-18 {
        display: none;
      }

      .cls-19 {
        stroke-width: 8px;
      }

      .cls-19, .cls-20, .cls-21, .cls-22 {
        stroke: #1d1d1b;
      }

      .cls-19, .cls-5 {
        fill: #038e9e;
      }

      .cls-19, .cls-21, .cls-22 {
        stroke-linecap: round;
        stroke-linejoin: round;
      }

      .cls-20 {
        stroke-width: 2px;
      }

      .cls-20, .cls-3, .cls-21, .cls-22 {
        fill: #51b9a4;
      }

      .cls-20, .cls-23 {
        stroke-miterlimit: 10;
      }

      .cls-4 {
        fill: #029fa2;
      }

      .cls-24 {
        clip-path: url(#clippath-2);
      }

      .cls-21, .cls-23 {
        stroke-width: 3px;
      }

      .cls-6 {
        fill: #4e4e4e;
        fill-rule: evenodd;
      }

      .cls-25, .cls-16, .cls-17, .cls-26 {
        isolation: isolate;
      }

      .cls-16 {
        font-family: VariexOT-Regular, 'Variex OT';
      }

      .cls-16, .cls-17 {
        font-size: 110px;
      }

      .cls-7 {
        fill: #e51d2a;
      }

      .cls-17 {
        font-family: VariexOT-Light, 'Variex OT';
        font-weight: 300;
      }

      .cls-8 {
        fill: none;
      }

      .cls-27 {
        clip-path: url(#clippath-1);
      }

      .cls-28 {
        clip-path: url(#clippath-4);
      }

      .cls-23 {
        fill: #f9b00d;
        stroke: #fefce8;
      }

      .cls-9 {
        fill: #0c9344;
      }

      .cls-10 {
        fill: #fefce8;
      }

      .cls-29 {
        clip-path: url(#clippath);
      }

      .cls-22 {
        stroke-width: 4px;
      }

      .cls-30 {
        clip-path: url(#clippath-3);
      }

      .cls-12 {
        fill: #fbdc18;
      }

      .cls-13 {
        fill: #f39221;
      }

      .cls-14 {
        fill: #244696;
      }

      .cls-15, .cls-26 {
        fill: #fff;
      }

      .cls-31 {
        clip-path: url(#clippath-5);
      }

      .cls-26 {
        font-family: Bungee-Regular, Bungee;
        font-size: 50px;
      }
    </style>
    <clipPath id="clippath">
      <circle class="cls-8" cx="500" cy="496.94" r="412.5"/>
    </clipPath>
    <clipPath id="clippath-1">
      <circle class="cls-8" cx="500" cy="496.94" r="412.5"/>
    </clipPath>
    <clipPath id="clippath-2">
      <path class="cls-8" d="M684.74,743.01v-.31c0-18.32-14.86-33.36-33.19-33.36s-33.19,15.04-33.19,33.36v.31c8.56-8.35,20.26-13.49,33.18-13.49s24.62,5.15,33.18,13.49h.02Z"/>
    </clipPath>
    <clipPath id="clippath-3">
      <path class="cls-8" d="M410.67,457.86c-8.15-3.02-14.28-10.2-16-18.73-2.14-10.62-6.58-16.17-9.87-16.17s-7.73,5.55-9.87,16.17c-1.72,8.53-7.85,15.71-16,18.73-15.49,5.74-25.11,16.15-25.11,27.18,0,17.43,22.87,31.62,50.97,31.62s50.97-14.18,50.97-31.62c0-11.02-9.62-21.44-25.11-27.18h.02Z"/>
    </clipPath>
    <clipPath id="clippath-4">
      <path class="cls-8" d="M259.16,499.94h-2.64c-1.64,0-3.12-1-3.72-2.53s-.21-3.27.98-4.39c11.88-11.15,18.43-25.46,18.43-40.3,0-25.41-19.37-48.41-48.19-57.22-12.21-3.74-20.38-15.03-20.33-28.09v-.25c0-12.31-3.83-19.58-5.46-19.97-1.56.39-5.39,7.67-5.39,19.97v.37c.08,13.01-8.05,24.29-20.23,28.07-28.64,8.88-47.88,31.84-47.88,57.12,0,14.84,6.54,29.15,18.43,40.3,1.2,1.12,1.59,2.86.98,4.39-.6,1.53-2.08,2.53-3.72,2.53h-3.05v13.93h121.8v-13.93h0Z"/>
    </clipPath>
    <clipPath id="clippath-5">
      <path class="cls-8" d="M309.99,480.49v-8.3c0-2.39-1.06-4.53-2.72-6,1.66-1.47,2.72-3.61,2.72-6v-66.13c0-2.39-1.06-4.53-2.72-6,1.66-1.47,2.72-3.61,2.72-6v-26.13c0-3.91-2.8-7.15-6.5-7.85v-15.05h-3v15.05c-3.7.7-6.5,3.95-6.5,7.85v26.13c0,2.39,1.06,4.53,2.72,6-1.66,1.47-2.72,3.61-2.72,6v66.13c0,2.39,1.06,4.53,2.72,6-1.66,1.47-2.72,3.61-2.72,6v8.3c-1.25,1.67-2,3.74-2,5.98v25.54h20v-25.54c0-2.25-.75-4.31-2-5.98Z"/>
    </clipPath>
  </defs>
  <g id="BG" class="cls-18">
    <rect id="BG-2" class="cls-4" width="1000" height="1000"/>
  </g>
  <g id="Layer_1-2" data-name="Layer 1">
    <g class="cls-25">
      <text class="cls-16" transform="translate(-109.06 1110.56)"><tspan x="0" y="0">BRiGHTON</tspan></text>
    </g>
    <g class="cls-25">
      <text class="cls-17" transform="translate(-95.64 1345.04)"><tspan x="0" y="0">BRiGHTON</tspan></text>
    </g>
    <circle class="cls-10" cx="500" cy="496.94" r="412.5"/>
    <path class="cls-3" d="M911.63,527.02H88.37c-.16-2.41-.29-4.83-.4-7.25,10.32,218.64,190.84,392.73,412.03,392.73s401.71-174.1,412.03-392.73c-.11,2.42-.25,4.84-.4,7.25Z"/>
    <path class="cls-5" d="M181.69,762.37c75.66,91.68,190.16,150.13,318.31,150.13s242.65-58.44,318.31-150.13H181.69Z"/>
    <g id="Waves">
      <g class="cls-29">
        <g>
          <g>
            <path class="cls-4" d="M448.7,637.44c.65-.42,1.3-.83,1.95-1.25-.65-.42-1.31-.83-1.96-1.25-12.54-8.03-24.38-15.61-48.7-15.61s-36.16,7.58-48.7,15.61c-.65.42-1.3.83-1.95,1.25.65.42,1.31.83,1.96,1.25,1.75,1.12,3.5,2.24,5.26,3.32,10.57-6.22,22.99-11.51,43.44-11.51s32.87,5.29,43.44,11.51c1.76-1.09,3.51-2.2,5.26-3.32Z"/>
            <path class="cls-5" d="M164.29,645.15c8.98,4.57,19.61,7.89,35.71,7.9h0c16.09,0,26.72-3.32,35.71-7.89-8.99-4.57-19.61-7.9-35.71-7.9s-26.72,3.32-35.71,7.89h0Z"/>
            <path class="cls-4" d="M457.82,631.82c2.86-1.64,5.87-3.19,9.14-4.59-6.9-2.94-12.62-6.6-18.26-10.21-12.54-8.03-24.38-15.61-48.7-15.61s-36.16,7.58-48.7,15.61c-5.63,3.6-11.36,7.26-18.25,10.21,3.27,1.4,6.28,2.95,9.14,4.59,2.2-1.33,4.35-2.7,6.52-4.09,12.59-8.06,25.62-16.39,51.3-16.39s38.7,8.33,51.3,16.39c2.17,1.39,4.32,2.77,6.52,4.09h0Z"/>
            <path class="cls-4" d="M248.7,637.44c.65-.42,1.3-.83,1.95-1.25-.65-.42-1.31-.83-1.96-1.25-12.54-8.03-24.38-15.61-48.7-15.61s-36.16,7.58-48.7,15.61c-.65.42-1.3.83-1.95,1.25.65.42,1.31.83,1.96,1.25,1.75,1.12,3.5,2.24,5.26,3.32,10.57-6.22,22.99-11.51,43.44-11.51s32.87,5.29,43.44,11.51c1.76-1.09,3.51-2.2,5.26-3.32Z"/>
            <path class="cls-5" d="M564.29,645.15c8.98,4.57,19.61,7.89,35.71,7.9h0c16.09,0,26.72-3.32,35.71-7.89-8.99-4.57-19.61-7.9-35.71-7.9s-26.72,3.32-35.71,7.89Z"/>
            <path class="cls-5" d="M364.29,645.15c8.98,4.57,19.61,7.89,35.71,7.9h0c16.09,0,26.72-3.32,35.71-7.89-8.99-4.57-19.61-7.9-35.71-7.9s-26.72,3.32-35.71,7.89Z"/>
            <path class="cls-5" d="M764.29,645.15c8.98,4.57,19.61,7.89,35.71,7.9h0c16.09,0,26.72-3.32,35.71-7.89-8.99-4.57-19.61-7.9-35.71-7.9s-26.72,3.32-35.71,7.89Z"/>
            <path class="cls-4" d="M848.7,637.44c.65-.42,1.3-.83,1.95-1.25-.65-.42-1.31-.83-1.96-1.25-12.54-8.03-24.38-15.61-48.7-15.61s-36.16,7.58-48.7,15.61c-.65.42-1.3.83-1.95,1.25.65.42,1.31.83,1.96,1.25,1.75,1.12,3.5,2.24,5.26,3.32,10.57-6.22,22.99-11.51,43.44-11.51s32.87,5.29,43.44,11.51c1.76-1.09,3.51-2.2,5.26-3.32Z"/>
            <path class="cls-4" d="M857.82,631.82c2.86-1.64,5.87-3.19,9.14-4.59-6.9-2.94-12.62-6.6-18.26-10.21-12.54-8.03-24.38-15.61-48.7-15.61s-36.16,7.58-48.7,15.61c-5.63,3.6-11.36,7.26-18.25,10.21,3.27,1.4,6.28,2.95,9.14,4.59,2.2-1.33,4.35-2.7,6.52-4.09,12.59-8.06,25.62-16.39,51.3-16.39s38.7,8.33,51.3,16.39c2.17,1.39,4.32,2.77,6.52,4.09h-.01Z"/>
            <path class="cls-4" d="M894.4,621.19c.59-1.91,1.16-3.83,1.72-5.76-23.14-.8-35.48-8.68-47.42-16.32-12.54-8.03-24.38-15.6-48.7-15.6s-36.16,7.58-48.7,15.6c-12.59,8.06-25.62,16.39-51.3,16.39s-38.7-8.33-51.3-16.39c-12.54-8.03-24.38-15.6-48.7-15.6s-36.16,7.58-48.7,15.6c-12.59,8.06-25.62,16.39-51.3,16.39s-38.7-8.33-51.3-16.39c-12.54-8.03-24.38-15.6-48.7-15.6s-36.16,7.58-48.7,15.6c-12.59,8.06-25.62,16.39-51.3,16.39s-38.7-8.33-51.3-16.39c-12.54-8.03-24.38-15.6-48.7-15.6s-36.16,7.58-48.7,15.6c-11.94,7.64-24.28,15.53-47.42,16.32.56,1.93,1.13,3.85,1.72,5.76,5.56.28,10.49.98,14.93,1.99,11.7-2.84,19.78-8,28.17-13.37,12.59-8.06,25.62-16.39,51.3-16.39s38.7,8.33,51.3,16.39c8.39,5.37,16.47,10.53,28.17,13.37,5.88-1.34,12.6-2.13,20.53-2.13s14.65.8,20.53,2.13c11.7-2.84,19.78-8,28.17-13.37,12.59-8.06,25.62-16.39,51.3-16.39s38.7,8.33,51.3,16.39c8.39,5.37,16.47,10.53,28.17,13.37,5.88-1.34,12.6-2.13,20.53-2.13s14.65.8,20.53,2.13c11.7-2.84,19.78-8,28.17-13.37,12.59-8.06,25.62-16.39,51.3-16.39s38.7,8.33,51.3,16.39c8.39,5.37,16.47,10.53,28.17,13.37,5.88-1.34,12.6-2.13,20.53-2.13s14.65.8,20.53,2.13c11.7-2.84,19.78-8,28.17-13.37,12.59-8.06,25.62-16.39,51.3-16.39s38.7,8.33,51.3,16.39c8.39,5.37,16.47,10.53,28.17,13.37,4.44-1.01,9.36-1.71,14.93-1.99h0Z"/>
            <path class="cls-4" d="M648.7,637.44c.65-.42,1.3-.83,1.95-1.25-.65-.42-1.31-.83-1.96-1.25-12.54-8.03-24.38-15.61-48.7-15.61s-36.16,7.58-48.7,15.61c-.65.42-1.3.83-1.95,1.25.65.42,1.31.83,1.96,1.25,1.75,1.12,3.5,2.24,5.26,3.32,10.57-6.22,22.99-11.51,43.44-11.51s32.87,5.29,43.44,11.51c1.76-1.09,3.51-2.2,5.26-3.32Z"/>
            <path class="cls-4" d="M657.82,631.82c2.86-1.64,5.87-3.19,9.14-4.59-6.9-2.94-12.62-6.6-18.26-10.21-12.54-8.03-24.38-15.61-48.7-15.61s-36.16,7.58-48.7,15.61c-5.63,3.6-11.36,7.26-18.25,10.21,3.27,1.4,6.28,2.95,9.14,4.59,2.2-1.33,4.35-2.7,6.52-4.09,12.59-8.06,25.62-16.39,51.3-16.39s38.7,8.33,51.3,16.39c2.17,1.39,4.32,2.77,6.52,4.09h-.01Z"/>
            <path class="cls-10" d="M88.31,525.91c-.13-2.04-.24-4.09-.34-6.14.1,2.05.21,4.1.34,6.14Z"/>
            <path class="cls-10" d="M88.37,527.02h.01c-.02-.37-.05-.74-.07-1.11.02.37.04.74.06,1.11Z"/>
            <path class="cls-10" d="M911.69,525.91c.13-2.04.24-4.09.34-6.14-.1,2.05-.21,4.1-.34,6.14Z"/>
            <path class="cls-10" d="M900,597.58c-25.68,0-38.7-8.33-51.3-16.39-9.15-5.86-17.94-11.47-31.47-14.08-5.01-.97-10.66-1.52-17.23-1.52s-12.22.56-17.23,1.52c-13.53,2.61-22.32,8.23-31.47,14.08-12.59,8.06-25.62,16.39-51.3,16.39s-38.7-8.33-51.3-16.39c-9.15-5.86-17.94-11.47-31.47-14.08-5.01-.97-10.66-1.52-17.23-1.52s-12.22.56-17.23,1.52c-13.53,2.61-22.32,8.23-31.47,14.08-12.59,8.06-25.62,16.39-51.3,16.39s-38.7-8.33-51.3-16.39c-9.15-5.86-17.94-11.47-31.47-14.08-5.01-.97-10.66-1.52-17.23-1.52s-12.22.56-17.23,1.52c-13.53,2.61-22.32,8.23-31.47,14.08-12.59,8.06-25.62,16.39-51.3,16.39s-38.7-8.33-51.3-16.39c-9.15-5.86-17.94-11.47-31.47-14.08-5.01-.97-10.66-1.52-17.23-1.52s-12.22.56-17.23,1.52c-13.53,2.61-22.32,8.23-31.47,14.08-12.59,8.06-25.62,16.39-51.3,16.39h-.88c.81,3.32,1.65,6.62,2.53,9.91,23.2-.34,34.79-7.75,47.05-15.59,12.59-8.06,25.62-16.39,51.3-16.39s38.7,8.33,51.3,16.39c12.54,8.03,24.38,15.61,48.7,15.61s36.16-7.58,48.7-15.61c12.59-8.06,25.62-16.39,51.3-16.39s38.7,8.33,51.3,16.39c12.54,8.03,24.38,15.61,48.7,15.61s36.16-7.58,48.7-15.61c12.59-8.06,25.62-16.39,51.3-16.39s38.7,8.33,51.3,16.39c12.54,8.03,24.38,15.61,48.7,15.61s36.16-7.58,48.7-15.61c12.59-8.06,25.62-16.39,51.3-16.39s38.7,8.33,51.3,16.39c12.25,7.84,23.84,15.25,47.04,15.59.88-3.29,1.73-6.59,2.53-9.91h-.88,0Z"/>
            <path class="cls-5" d="M133.04,645.15c3.27,1.4,6.28,2.95,9.14,4.59,2.47,1.42,4.84,2.89,7.16,4.37.65.42,1.31.83,1.96,1.25,12.54,8.02,24.38,15.61,48.7,15.61h0c24.32,0,36.16-7.58,48.7-15.61.65-.42,1.3-.83,1.95-1.25,2.33-1.48,4.69-2.95,7.16-4.37,2.86-1.64,5.87-3.19,9.14-4.59,3.76-1.61,7.87-3,12.51-4.05,5.88-1.34,12.6-2.13,20.53-2.13s14.65.8,20.53,2.13c4.64,1.05,8.75,2.45,12.51,4.05,3.27,1.4,6.28,2.95,9.14,4.59,2.47,1.42,4.84,2.89,7.16,4.37.65.42,1.31.83,1.96,1.25,12.54,8.02,24.38,15.61,48.7,15.61h0c24.32,0,36.16-7.58,48.7-15.61.65-.42,1.3-.83,1.95-1.25,2.33-1.48,4.69-2.95,7.16-4.37,2.86-1.64,5.87-3.19,9.14-4.59,3.76-1.61,7.87-3,12.51-4.05,5.88-1.34,12.6-2.13,20.53-2.13s14.65.8,20.53,2.13c4.64,1.05,8.75,2.45,12.51,4.05,3.27,1.4,6.28,2.95,9.14,4.59,2.47,1.42,4.84,2.89,7.16,4.37.65.42,1.31.83,1.96,1.25,12.54,8.02,24.38,15.61,48.7,15.61h0c24.32,0,36.16-7.58,48.7-15.61.65-.42,1.3-.83,1.95-1.25,2.33-1.48,4.69-2.95,7.16-4.37,2.86-1.64,5.87-3.19,9.14-4.59,3.76-1.61,7.87-3,12.51-4.05,5.88-1.34,12.6-2.13,20.53-2.13s14.65.8,20.53,2.13c4.64,1.05,8.75,2.45,12.51,4.05,3.27,1.4,6.28,2.95,9.14,4.59,2.47,1.42,4.84,2.89,7.16,4.37.65.42,1.31.83,1.96,1.25,12.54,8.02,24.38,15.61,48.7,15.61h0c24.32,0,36.16-7.58,48.7-15.61.65-.42,1.3-.83,1.95-1.25,2.33-1.48,4.69-2.95,7.16-4.37,2.86-1.64,5.87-3.19,9.14-4.59,3.76-1.61,7.87-3,12.51-4.05,2.73-.62,5.66-1.12,8.79-1.48,1.22-3.4,2.4-6.81,3.54-10.25-4.55.36-8.62,1.02-12.32,1.92-5.15,1.25-9.59,2.94-13.67,4.91-2.8,1.35-5.42,2.83-7.98,4.37-2.2,1.33-4.35,2.7-6.52,4.09-.26.17-.52.33-.78.5-2.31,1.48-4.65,2.96-7.08,4.39-10.57,6.22-22.99,11.51-43.44,11.51h0c-20.45,0-32.87-5.29-43.44-11.51-2.43-1.43-4.77-2.91-7.08-4.39-.26-.17-.52-.33-.78-.5-2.17-1.39-4.32-2.77-6.52-4.09-2.56-1.54-5.18-3.02-7.98-4.37-4.08-1.97-8.53-3.66-13.67-4.91-5.8-1.4-12.48-2.24-20.53-2.24s-14.74.84-20.53,2.24c-5.15,1.25-9.59,2.94-13.67,4.91-2.8,1.35-5.42,2.83-7.98,4.37-2.2,1.33-4.35,2.7-6.52,4.09-.26.17-.52.33-.78.5-2.31,1.48-4.65,2.96-7.08,4.39-10.57,6.22-22.99,11.51-43.44,11.51h0c-20.45,0-32.87-5.29-43.44-11.51-2.43-1.43-4.77-2.91-7.08-4.39-.26-.17-.52-.33-.78-.5-2.17-1.39-4.32-2.77-6.52-4.09-2.56-1.54-5.18-3.02-7.98-4.37-4.08-1.97-8.53-3.66-13.67-4.91-5.8-1.4-12.48-2.24-20.53-2.24s-14.74.84-20.53,2.24c-5.15,1.25-9.59,2.94-13.67,4.91-2.8,1.35-5.42,2.83-7.98,4.37-2.2,1.33-4.35,2.7-6.52,4.09-.26.17-.52.33-.78.5-2.31,1.48-4.65,2.96-7.08,4.39-10.57,6.22-22.99,11.51-43.44,11.51h0c-20.45,0-32.87-5.29-43.44-11.51-2.43-1.43-4.77-2.91-7.08-4.39-.26-.17-.52-.33-.78-.5-2.17-1.39-4.32-2.77-6.52-4.09-2.56-1.54-5.18-3.02-7.98-4.37-4.08-1.97-8.53-3.66-13.67-4.91-5.8-1.4-12.48-2.24-20.53-2.24s-14.74.84-20.53,2.24c-5.15,1.25-9.59,2.94-13.67,4.91-2.8,1.35-5.42,2.83-7.98,4.37-2.2,1.33-4.35,2.7-6.52,4.09-.26.17-.52.33-.78.5-2.31,1.48-4.65,2.96-7.08,4.39-10.57,6.22-22.99,11.51-43.44,11.51h0c-20.45,0-32.87-5.29-43.44-11.51-2.43-1.43-4.77-2.91-7.08-4.39-.26-.17-.52-.33-.78-.5-2.17-1.39-4.32-2.77-6.52-4.09-2.56-1.54-5.18-3.02-7.98-4.37-4.08-1.97-8.53-3.66-13.67-4.91-3.7-.9-7.77-1.56-12.33-1.92,1.13,3.44,2.31,6.86,3.54,10.25,3.13.36,6.06.86,8.79,1.48,4.64,1.05,8.75,2.45,12.51,4.05h.03Z"/>
            <path class="cls-4" d="M257.82,631.82c2.86-1.64,5.87-3.19,9.14-4.59-6.9-2.94-12.62-6.6-18.26-10.21-12.54-8.03-24.38-15.61-48.7-15.61s-36.16,7.58-48.7,15.61c-5.63,3.6-11.36,7.26-18.25,10.21,3.27,1.4,6.28,2.95,9.14,4.59,2.2-1.33,4.35-2.7,6.52-4.09,12.59-8.06,25.62-16.39,51.3-16.39s38.7,8.33,51.3,16.39c2.17,1.39,4.32,2.77,6.52,4.09h-.01Z"/>
          </g>
          <g>
            <path class="cls-11" d="M744.89,669.25c-3.67-2.22-7.52-4.34-11.85-6.18-3.76-1.6-7.87-3-12.51-4.05-5.88-1.34-12.6-2.13-20.53-2.13s-14.65.8-20.53,2.13c-4.64,1.06-8.75,2.45-12.51,4.05-4.32,1.84-8.18,3.97-11.84,6.18h-110.23c-3.67-2.22-7.52-4.34-11.85-6.18-3.76-1.6-7.87-3-12.51-4.05-5.88-1.34-12.6-2.13-20.53-2.13s-14.65.8-20.53,2.13c-4.64,1.06-8.75,2.45-12.51,4.05-4.32,1.84-8.18,3.97-11.84,6.18h-110.23c-3.67-2.22-7.52-4.34-11.85-6.18-3.76-1.6-7.87-3-12.51-4.05-5.88-1.34-12.6-2.13-20.53-2.13s-14.65.8-20.53,2.13c-4.64,1.06-8.75,2.45-12.51,4.05-4.32,1.84-8.18,3.97-11.84,6.18h-110.23c-3.67-2.22-7.52-4.34-11.85-6.18-3.76-1.6-7.87-3-12.51-4.05-5.88-1.34-12.6-2.13-20.53-2.13s-14.65.8-20.53,2.13c-4.64,1.06-8.75,2.45-12.51,4.05-6.9,2.94-12.62,6.6-18.25,10.21-.8.51-1.59,1.02-2.39,1.53h14.23c5.52-3.14,11.49-5.88,18.93-7.68,5.8-1.4,12.48-2.24,20.53-2.24s14.73.83,20.53,2.24c2.51.61,4.84,1.33,7.05,2.13h-2.47c1.55,3.36,3.13,6.69,4.77,10h740.24c1.63-3.31,3.22-6.64,4.77-10h-130.01Z"/>
            <path class="cls-11" d="M920.53,623.18c-5.88-1.34-12.6-2.13-20.53-2.13s-14.66.8-20.53,2.13c-11.7-2.83-19.78-8-28.17-13.37-12.59-8.06-25.62-16.39-51.3-16.39s-38.7,8.33-51.3,16.39c-8.39,5.37-16.47,10.53-28.17,13.37-5.88-1.34-12.6-2.13-20.53-2.13s-14.66.8-20.53,2.13c-11.7-2.83-19.78-8-28.17-13.37-12.59-8.06-25.62-16.39-51.3-16.39s-38.7,8.33-51.3,16.39c-8.39,5.37-16.47,10.53-28.17,13.37-5.88-1.34-12.6-2.13-20.53-2.13s-14.66.8-20.53,2.13c-11.7-2.83-19.78-8-28.17-13.37-12.59-8.06-25.62-16.39-51.3-16.39s-38.7,8.33-51.3,16.39c-8.39,5.37-16.47,10.53-28.17,13.37-5.88-1.34-12.6-2.13-20.53-2.13s-14.66.8-20.53,2.13c-11.7-2.83-19.78-8-28.17-13.37-12.59-8.06-25.62-16.39-51.3-16.39s-38.7,8.33-51.3,16.39c-8.39,5.37-16.47,10.53-28.17,13.37-5.88-1.34-12.6-2.13-20.53-2.13s-14.66.8-20.53,2.13c-11.7-2.83-19.78-8-28.17-13.37C38.71,601.75,25.68,593.42,0,593.42v8c24.32,0,36.16,7.58,48.7,15.61,5.63,3.61,11.36,7.26,18.26,10.21-3.27,1.4-6.28,2.95-9.14,4.59-2.2-1.33-4.35-2.7-6.52-4.09C38.71,619.68,25.68,611.35,0,611.35v8c24.32,0,36.16,7.58,48.7,15.61.65.42,1.3.83,1.96,1.25-.65.42-1.3.83-1.95,1.25-1.76,1.12-3.5,2.24-5.26,3.32-10.57-6.22-22.99-11.51-43.44-11.51v8c16.1,0,26.73,3.32,35.71,7.9-8.99,4.57-19.61,7.89-35.71,7.89H.01v8H.01c20.45,0,32.87-5.28,43.44-11.51,2.43-1.43,4.77-2.91,7.08-4.39.26-.17.52-.33.78-.5,2.17-1.39,4.32-2.76,6.52-4.09,2.56-1.54,5.18-3.02,7.98-4.37,4.08-1.97,8.53-3.66,13.67-4.91,5.8-1.4,12.48-2.24,20.53-2.24s14.73.83,20.53,2.24c5.15,1.25,9.59,2.94,13.67,4.91,2.8,1.35,5.42,2.83,7.98,4.37,2.2,1.33,4.35,2.7,6.52,4.09.26.17.52.33.78.5,2.31,1.48,4.65,2.96,7.08,4.39,10.57,6.22,22.99,11.51,43.44,11.51h0c20.45,0,32.87-5.28,43.44-11.51,2.43-1.43,4.77-2.91,7.08-4.39.26-.17.52-.33.78-.5,2.17-1.39,4.32-2.76,6.52-4.09,2.56-1.54,5.18-3.02,7.98-4.37,4.08-1.97,8.53-3.66,13.67-4.91,5.8-1.4,12.48-2.24,20.53-2.24s14.73.83,20.53,2.24c5.15,1.25,9.59,2.94,13.67,4.91,2.8,1.35,5.42,2.83,7.98,4.37,2.2,1.33,4.35,2.7,6.52,4.09.26.17.52.33.78.5,2.31,1.48,4.65,2.96,7.08,4.39,10.57,6.22,22.99,11.51,43.44,11.51h0c20.45,0,32.87-5.28,43.44-11.51,2.43-1.43,4.77-2.91,7.08-4.39.26-.17.52-.33.78-.5,2.17-1.39,4.32-2.76,6.52-4.09,2.56-1.54,5.18-3.02,7.98-4.37,4.08-1.97,8.53-3.66,13.67-4.91,5.8-1.4,12.48-2.24,20.53-2.24s14.73.83,20.53,2.24c5.15,1.25,9.59,2.94,13.67,4.91,2.8,1.35,5.42,2.83,7.98,4.37,2.2,1.33,4.35,2.7,6.52,4.09.26.17.52.33.78.5,2.31,1.48,4.65,2.96,7.08,4.39,10.57,6.22,22.99,11.51,43.44,11.51h0c20.45,0,32.87-5.28,43.44-11.51,2.43-1.43,4.77-2.91,7.08-4.39.26-.17.52-.33.78-.5,2.17-1.39,4.32-2.76,6.52-4.09,2.56-1.54,5.18-3.02,7.98-4.37,4.08-1.97,8.53-3.66,13.67-4.91,5.8-1.4,12.48-2.24,20.53-2.24s14.73.83,20.53,2.24c5.15,1.25,9.59,2.94,13.67,4.91,2.8,1.35,5.42,2.83,7.98,4.37,2.2,1.33,4.35,2.7,6.52,4.09.26.17.52.33.78.5,2.31,1.48,4.65,2.96,7.08,4.39,10.57,6.22,22.99,11.51,43.44,11.51h0c20.45,0,32.87-5.28,43.44-11.51,2.43-1.43,4.77-2.91,7.08-4.39.26-.17.52-.33.78-.5,2.17-1.39,4.32-2.76,6.52-4.09,2.56-1.54,5.18-3.02,7.98-4.37,4.08-1.97,8.53-3.66,13.67-4.91,5.8-1.4,12.48-2.24,20.53-2.24s14.73.83,20.53,2.24c5.15,1.25,9.59,2.94,13.67,4.91,2.8,1.35,5.42,2.83,7.98,4.37,2.2,1.33,4.35,2.7,6.52,4.09.26.17.52.33.78.5,2.31,1.48,4.65,2.96,7.08,4.39,10.57,6.22,22.99,11.51,43.44,11.51v-8c-16.09,0-26.72-3.32-35.71-7.9,8.98-4.57,19.61-7.89,35.71-7.89v-8c-20.45,0-32.87,5.28-43.44,11.51-1.76-1.09-3.5-2.2-5.26-3.32-.65-.42-1.3-.83-1.96-1.25.65-.42,1.3-.83,1.95-1.25,12.54-8.03,24.38-15.61,48.7-15.61v-8c-25.68,0-38.7,8.33-51.3,16.39-2.17,1.39-4.32,2.76-6.52,4.09-2.86-1.64-5.87-3.19-9.14-4.59,6.9-2.94,12.62-6.6,18.25-10.21,12.54-8.03,24.38-15.61,48.7-15.61v-8c-25.68,0-38.7,8.33-51.3,16.39-8.39,5.37-16.47,10.53-28.17,13.37h0ZM200,653.05h0c-16.09,0-26.72-3.32-35.71-7.9,8.98-4.57,19.61-7.89,35.71-7.89s26.73,3.32,35.71,7.9c-8.99,4.57-19.61,7.89-35.71,7.89ZM248.7,637.44c-1.76,1.12-3.5,2.24-5.26,3.32-10.57-6.22-22.99-11.51-43.44-11.51s-32.87,5.28-43.44,11.51c-1.76-1.09-3.5-2.2-5.26-3.32-.65-.42-1.3-.83-1.96-1.25.65-.42,1.3-.83,1.95-1.25,12.54-8.03,24.38-15.61,48.7-15.61s36.16,7.58,48.7,15.61c.65.42,1.3.83,1.96,1.25-.65.42-1.3.83-1.95,1.25ZM257.82,631.82c-2.2-1.33-4.35-2.7-6.52-4.09-12.59-8.06-25.62-16.39-51.3-16.39s-38.7,8.33-51.3,16.39c-2.17,1.39-4.32,2.76-6.52,4.09-2.86-1.64-5.87-3.19-9.14-4.59,6.9-2.94,12.62-6.6,18.25-10.21,12.54-8.03,24.38-15.61,48.7-15.61s36.16,7.58,48.7,15.61c5.63,3.61,11.36,7.26,18.26,10.21-3.27,1.4-6.28,2.95-9.14,4.59h.01ZM400,653.05h0c-16.09,0-26.72-3.32-35.71-7.9,8.98-4.57,19.61-7.89,35.71-7.89s26.73,3.32,35.71,7.9c-8.99,4.57-19.61,7.89-35.71,7.89ZM448.7,637.44c-1.76,1.12-3.5,2.24-5.26,3.32-10.57-6.22-22.99-11.51-43.44-11.51s-32.87,5.28-43.44,11.51c-1.76-1.09-3.5-2.2-5.26-3.32-.65-.42-1.3-.83-1.96-1.25.65-.42,1.3-.83,1.95-1.25,12.54-8.03,24.38-15.61,48.7-15.61s36.16,7.58,48.7,15.61c.65.42,1.3.83,1.96,1.25-.65.42-1.3.83-1.95,1.25ZM457.82,631.82c-2.2-1.33-4.35-2.7-6.52-4.09-12.59-8.06-25.62-16.39-51.3-16.39s-38.7,8.33-51.3,16.39c-2.17,1.39-4.32,2.76-6.52,4.09-2.86-1.64-5.87-3.19-9.14-4.59,6.9-2.94,12.62-6.6,18.25-10.21,12.54-8.03,24.38-15.61,48.7-15.61s36.16,7.58,48.7,15.61c5.63,3.61,11.36,7.26,18.26,10.21-3.27,1.4-6.28,2.95-9.14,4.59h0ZM600,653.05h0c-16.09,0-26.72-3.32-35.71-7.9,8.98-4.57,19.61-7.89,35.71-7.89s26.73,3.32,35.71,7.9c-8.99,4.57-19.61,7.89-35.71,7.89ZM648.7,637.44c-1.76,1.12-3.5,2.24-5.26,3.32-10.57-6.22-22.99-11.51-43.44-11.51s-32.87,5.28-43.44,11.51c-1.76-1.09-3.5-2.2-5.26-3.32-.65-.42-1.3-.83-1.96-1.25.65-.42,1.3-.83,1.95-1.25,12.54-8.03,24.38-15.61,48.7-15.61s36.16,7.58,48.7,15.61c.65.42,1.3.83,1.96,1.25-.65.42-1.3.83-1.95,1.25ZM657.82,631.82c-2.2-1.33-4.35-2.7-6.52-4.09-12.59-8.06-25.62-16.39-51.3-16.39s-38.7,8.33-51.3,16.39c-2.17,1.39-4.32,2.76-6.52,4.09-2.86-1.64-5.87-3.19-9.14-4.59,6.9-2.94,12.62-6.6,18.25-10.21,12.54-8.03,24.38-15.61,48.7-15.61s36.16,7.58,48.7,15.61c5.63,3.61,11.36,7.26,18.26,10.21-3.27,1.4-6.28,2.95-9.14,4.59h.01ZM800,653.05h0c-16.09,0-26.72-3.32-35.71-7.9,8.98-4.57,19.61-7.89,35.71-7.89s26.73,3.32,35.71,7.9c-8.99,4.57-19.61,7.89-35.71,7.89ZM848.7,637.44c-1.76,1.12-3.5,2.24-5.26,3.32-10.57-6.22-22.99-11.51-43.44-11.51s-32.87,5.28-43.44,11.51c-1.76-1.09-3.5-2.2-5.26-3.32-.65-.42-1.3-.83-1.96-1.25.65-.42,1.3-.83,1.95-1.25,12.54-8.03,24.38-15.61,48.7-15.61s36.16,7.58,48.7,15.61c.65.42,1.3.83,1.96,1.25-.65.42-1.3.83-1.95,1.25ZM857.82,631.82c-2.2-1.33-4.35-2.7-6.52-4.09-12.59-8.06-25.62-16.39-51.3-16.39s-38.7,8.33-51.3,16.39c-2.17,1.39-4.32,2.76-6.52,4.09-2.86-1.64-5.87-3.19-9.14-4.59,6.9-2.94,12.62-6.6,18.25-10.21,12.54-8.03,24.38-15.61,48.7-15.61s36.16,7.58,48.7,15.61c5.63,3.61,11.36,7.26,18.26,10.21-3.27,1.4-6.28,2.95-9.14,4.59h.01Z"/>
            <path class="cls-11" d="M900,607.5c-24.32,0-36.16-7.58-48.7-15.61-12.59-8.06-25.62-16.39-51.3-16.39s-38.7,8.33-51.3,16.39c-12.54,8.03-24.38,15.61-48.7,15.61s-36.16-7.58-48.7-15.61c-12.59-8.06-25.62-16.39-51.3-16.39s-38.7,8.33-51.3,16.39c-12.54,8.03-24.38,15.61-48.7,15.61s-36.16-7.58-48.7-15.61c-12.59-8.06-25.62-16.39-51.3-16.39s-38.7,8.33-51.3,16.39c-12.54,8.03-24.38,15.61-48.7,15.61s-36.16-7.58-48.7-15.61c-12.59-8.06-25.62-16.39-51.3-16.39s-38.7,8.33-51.3,16.39c-12.54,8.03-24.38,15.61-48.7,15.61s-36.16-7.58-48.7-15.61c-12.59-8.06-25.62-16.39-51.3-16.39v8c24.32,0,36.16,7.58,48.7,15.61,12.59,8.06,25.62,16.39,51.3,16.39s38.71-8.33,51.3-16.39c12.54-8.03,24.38-15.61,48.7-15.61s36.16,7.58,48.7,15.61c12.59,8.06,25.62,16.39,51.3,16.39s38.71-8.33,51.3-16.39c12.54-8.03,24.38-15.61,48.7-15.61s36.16,7.58,48.7,15.61c12.59,8.06,25.62,16.39,51.3,16.39s38.71-8.33,51.3-16.39c12.54-8.03,24.38-15.61,48.7-15.61s36.16,7.58,48.7,15.61c12.59,8.06,25.62,16.39,51.3,16.39s38.71-8.33,51.3-16.39c12.54-8.03,24.38-15.61,48.7-15.61s36.16,7.58,48.7,15.61c12.59,8.06,25.62,16.39,51.3,16.39s38.71-8.33,51.3-16.39c12.54-8.03,24.38-15.61,48.7-15.61v-8c-25.68,0-38.7,8.33-51.3,16.39-12.54,8.03-24.38,15.61-48.7,15.61Z"/>
            <path class="cls-11" d="M968.65,563.07c-7.67,3.05-13.86,7.01-19.95,10.9-12.54,8.03-24.38,15.61-48.7,15.61s-36.16-7.58-48.7-15.61c-6.09-3.89-12.28-7.85-19.95-10.9-4.19-1.67-8.82-3.07-14.12-4.03-5.07-.92-10.74-1.46-17.23-1.46s-12.16.53-17.23,1.46c-5.3.97-9.93,2.36-14.12,4.03-7.67,3.05-13.86,7.01-19.95,10.9-12.54,8.03-24.38,15.61-48.7,15.61s-36.16-7.58-48.7-15.61c-6.09-3.89-12.28-7.85-19.95-10.9-4.19-1.67-8.82-3.07-14.12-4.03-5.07-.92-10.74-1.46-17.23-1.46s-12.16.53-17.23,1.46c-5.3.97-9.93,2.36-14.12,4.03-7.67,3.05-13.86,7.01-19.95,10.9-12.54,8.03-24.38,15.61-48.7,15.61s-36.16-7.58-48.7-15.61c-6.09-3.89-12.28-7.85-19.95-10.9-4.19-1.67-8.82-3.07-14.12-4.03-5.07-.92-10.74-1.46-17.23-1.46s-12.16.53-17.23,1.46c-5.3.97-9.93,2.36-14.12,4.03-7.67,3.05-13.86,7.01-19.95,10.9-12.54,8.03-24.38,15.61-48.7,15.61s-36.16-7.58-48.7-15.61c-6.09-3.89-12.28-7.85-19.95-10.9-4.19-1.67-8.82-3.07-14.12-4.03-5.07-.92-10.74-1.46-17.23-1.46s-12.16.53-17.23,1.46c-5.3.97-9.93,2.36-14.12,4.03-7.67,3.05-13.86,7.01-19.95,10.9-12.54,8.03-24.38,15.61-48.7,15.61s-36.16-7.58-48.7-15.61c-6.09-3.89-12.28-7.85-19.95-10.9-4.19-1.67-8.82-3.07-14.12-4.03-5.07-.92-10.74-1.46-17.23-1.46v8c6.57,0,12.22.56,17.23,1.52,13.53,2.61,22.32,8.23,31.47,14.08,12.59,8.06,25.62,16.39,51.3,16.39s38.71-8.33,51.3-16.39c9.15-5.86,17.94-11.47,31.47-14.08,5.01-.97,10.66-1.52,17.23-1.52s12.22.56,17.23,1.52c13.53,2.61,22.32,8.23,31.47,14.08,12.59,8.06,25.62,16.39,51.3,16.39s38.71-8.33,51.3-16.39c9.15-5.86,17.94-11.47,31.47-14.08,5.01-.97,10.66-1.52,17.23-1.52s12.22.56,17.23,1.52c13.53,2.61,22.32,8.23,31.47,14.08,12.59,8.06,25.62,16.39,51.3,16.39s38.71-8.33,51.3-16.39c9.15-5.86,17.94-11.47,31.47-14.08,5.01-.97,10.66-1.52,17.23-1.52s12.22.56,17.23,1.52c13.53,2.61,22.32,8.23,31.47,14.08,12.59,8.06,25.62,16.39,51.3,16.39s38.71-8.33,51.3-16.39c9.15-5.86,17.94-11.47,31.47-14.08,5.01-.97,10.66-1.52,17.23-1.52s12.22.56,17.23,1.52c13.53,2.61,22.32,8.23,31.47,14.08,12.59,8.06,25.62,16.39,51.3,16.39s38.71-8.33,51.3-16.39c9.15-5.86,17.94-11.47,31.47-14.08,5.01-.97,10.66-1.52,17.23-1.52v-8c-6.48,0-12.16.53-17.23,1.46-5.3.97-9.93,2.36-14.12,4.03h0Z"/>
            <path class="cls-11" d="M949.35,654.11c-2.33-1.48-4.69-2.95-7.16-4.37-2.86-1.64-5.87-3.19-9.14-4.59-3.76-1.6-7.87-3-12.51-4.05-5.88-1.34-12.6-2.13-20.53-2.13s-14.66.8-20.53,2.13c-4.64,1.06-8.75,2.45-12.51,4.05-3.27,1.4-6.28,2.95-9.14,4.59-2.47,1.42-4.84,2.89-7.16,4.37-.65.42-1.3.83-1.95,1.25-12.54,8.03-24.38,15.61-48.7,15.61h0c-24.31,0-36.16-7.58-48.7-15.61-.65-.42-1.3-.83-1.96-1.25-2.33-1.48-4.69-2.95-7.16-4.37-2.86-1.64-5.87-3.19-9.14-4.59-3.76-1.6-7.87-3-12.51-4.05-5.88-1.34-12.6-2.13-20.53-2.13s-14.66.8-20.53,2.13c-4.64,1.06-8.75,2.45-12.51,4.05-3.27,1.4-6.28,2.95-9.14,4.59-2.47,1.42-4.84,2.89-7.16,4.37-.65.42-1.3.83-1.95,1.25-12.54,8.03-24.38,15.61-48.7,15.61h0c-24.31,0-36.16-7.58-48.7-15.61-.65-.42-1.3-.83-1.96-1.25-2.33-1.48-4.69-2.95-7.16-4.37-2.86-1.64-5.87-3.19-9.14-4.59-3.76-1.6-7.87-3-12.51-4.05-5.88-1.34-12.6-2.13-20.53-2.13s-14.66.8-20.53,2.13c-4.64,1.06-8.75,2.45-12.51,4.05-3.27,1.4-6.28,2.95-9.14,4.59-2.47,1.42-4.84,2.89-7.16,4.37-.65.42-1.3.83-1.95,1.25-12.54,8.03-24.38,15.61-48.7,15.61h0c-24.31,0-36.16-7.58-48.7-15.61-.65-.42-1.3-.83-1.96-1.25-2.33-1.48-4.69-2.95-7.16-4.37-2.86-1.64-5.87-3.19-9.14-4.59-3.76-1.6-7.87-3-12.51-4.05-5.88-1.34-12.6-2.13-20.53-2.13s-14.66.8-20.53,2.13c-4.64,1.06-8.75,2.45-12.51,4.05-3.27,1.4-6.28,2.95-9.14,4.59-2.47,1.42-4.84,2.89-7.16,4.37-.65.42-1.3.83-1.95,1.25-12.54,8.03-24.38,15.61-48.7,15.61h0c-24.31,0-36.16-7.58-48.7-15.61-.65-.42-1.3-.83-1.96-1.25-2.33-1.48-4.69-2.95-7.16-4.37-2.86-1.64-5.87-3.19-9.14-4.59-3.76-1.6-7.87-3-12.51-4.05-5.88-1.34-12.6-2.13-20.53-2.13s-14.66.8-20.53,2.13c-4.64,1.06-8.75,2.45-12.51,4.05-3.27,1.4-6.28,2.95-9.14,4.59-2.47,1.42-4.84,2.89-7.16,4.37-.65.42-1.3.83-1.95,1.25-12.54,8.03-24.38,15.61-48.7,15.61H.06v3.84h27.75c9.39-3.17,16.54-7.74,23.55-12.23,2.17-1.39,4.32-2.76,6.52-4.09,2.56-1.54,5.18-3.02,7.98-4.37,4.08-1.97,8.53-3.66,13.67-4.91,5.8-1.4,12.48-2.24,20.53-2.24s14.73.84,20.53,2.24c5.14,1.25,9.59,2.94,13.67,4.91,2.8,1.35,5.42,2.83,7.98,4.37,2.2,1.33,4.35,2.7,6.52,4.09,7.01,4.49,14.16,9.06,23.55,12.23h55.49c9.39-3.17,16.54-7.74,23.55-12.23,2.17-1.39,4.32-2.76,6.52-4.09,2.56-1.54,5.18-3.02,7.98-4.37,4.08-1.97,8.53-3.66,13.67-4.91,5.8-1.4,12.48-2.24,20.53-2.24s14.73.84,20.53,2.24c5.14,1.25,9.59,2.94,13.67,4.91,2.8,1.35,5.42,2.83,7.98,4.37,2.2,1.33,4.35,2.7,6.52,4.09,7.01,4.49,14.16,9.06,23.55,12.23h55.49c9.39-3.17,16.54-7.74,23.55-12.23,2.17-1.39,4.32-2.76,6.52-4.09,2.56-1.54,5.18-3.02,7.98-4.37,4.08-1.97,8.53-3.66,13.67-4.91,5.8-1.4,12.48-2.24,20.53-2.24s14.73.84,20.53,2.24c5.14,1.25,9.59,2.94,13.67,4.91,2.8,1.35,5.42,2.83,7.98,4.37,2.2,1.33,4.35,2.7,6.52,4.09,7.01,4.49,14.16,9.06,23.55,12.23h55.49c9.39-3.17,16.54-7.74,23.55-12.23,2.17-1.39,4.32-2.76,6.52-4.09,2.56-1.54,5.18-3.02,7.98-4.37,4.08-1.97,8.53-3.66,13.67-4.91,5.8-1.4,12.48-2.24,20.53-2.24s14.73.84,20.53,2.24c5.14,1.25,9.59,2.94,13.67,4.91,2.8,1.35,5.42,2.83,7.98,4.37,2.2,1.33,4.35,2.7,6.52,4.09,7.01,4.49,14.16,9.06,23.55,12.23h55.49c9.39-3.17,16.54-7.74,23.55-12.23,2.17-1.39,4.32-2.76,6.52-4.09,2.56-1.54,5.18-3.02,7.98-4.37,4.08-1.97,8.53-3.66,13.67-4.91,5.8-1.4,12.48-2.24,20.53-2.24s14.73.84,20.53,2.24c5.14,1.25,9.59,2.94,13.67,4.91,2.8,1.35,5.42,2.83,7.98,4.37,2.2,1.33,4.35,2.7,6.52,4.09,7.01,4.49,14.16,9.06,23.55,12.23h27.74v-3.84c-24.31,0-36.16-7.58-48.7-15.61-.65-.42-1.3-.83-1.96-1.25h0Z"/>
            <path class="cls-11" d="M933.04,663.07c-3.76-1.6-7.87-3-12.51-4.05-5.88-1.34-12.6-2.13-20.53-2.13s-14.65.8-20.53,2.13c-4.64,1.06-8.75,2.45-12.51,4.05-6.9,2.94-12.62,6.6-18.25,10.21-.8.51-1.59,1.02-2.39,1.53h14.23c5.52-3.14,11.49-5.88,18.93-7.68,5.8-1.4,12.48-2.24,20.53-2.24s14.73.83,20.53,2.24c7.44,1.8,13.42,4.54,18.93,7.68h14.23c-.8-.51-1.59-1.01-2.39-1.53-5.63-3.61-11.36-7.26-18.26-10.21h0Z"/>
          </g>
        </g>
      </g>
    </g>
    <path class="cls-2" d="M541.71,421.68l136.42-210.7c1.49-2.31,1.61-5.25.29-7.66-1.31-2.41-3.84-3.92-6.59-3.92h-343.66c-2.75,0-5.28,1.5-6.59,3.92-1.31,2.41-1.2,5.35.29,7.66l136.42,210.7c7.51,11.61,11.49,25.05,11.49,38.87v110.13c0,13.36-5.63,26.23-15.44,35.29l-21.81,20.15h22.1l9.89-9.14c12.88-11.9,20.26-28.78,20.26-46.31v-110.13c0-16.73-4.8-32.99-13.89-47.03l-3.62-5.59h65.47l-3.62,5.59c-9.09,14.04-13.89,30.3-13.89,47.03v110.13c0,17.53,7.38,34.41,20.26,46.31l9.89,9.14h22.1l-21.81-20.15c-9.81-9.07-15.44-21.93-15.44-35.29v-110.13c0-13.83,3.97-27.27,11.49-38.87h0ZM457.55,392.94l-115.59-178.53h316.08l-115.59,178.53h-84.9,0Z"/>
    <g id="Divider">
      <rect class="cls-3" x="365.08" y="527.02" width="269.85" height="99.12"/>
      <path class="cls-11" d="M912.32,512.02H87.68c.14,5.02.37,10.02.7,15h261.7v114.12h299.85v-114.12h261.7c.32-4.98.55-9.98.7-15h-.01ZM634.92,626.14h-269.85v-99.12h269.85v99.12Z"/>
    </g>
    <g id="Glasss">
      <path class="cls-5" d="M500,400.44s49.43,0,47.9,0-17.87,29.11-17.87,29.11l-9.19,76.6,3.13,64.85,3.51,27.06,20.46,20.94v7.14h-47.44l-.5-225.69h0Z"/>
      <path class="cls-10" d="M500.5,400.44s-49.43,0-47.9,0,17.87,29.11,17.87,29.11l9.19,76.6-3.13,64.85-3.51,27.06-20.46,20.94v7.14h47.44l.5-225.69h0Z"/>
      <polygon class="cls-3" points="611.73 285.93 637.31 246.42 362.69 246.42 388.27 285.93 611.73 285.93"/>
      <polygon class="cls-5" points="457.55 392.94 499.29 392.94 383.7 214.41 341.96 214.41 457.55 392.94"/>
      <path class="cls-11" d="M541.71,421.68l136.42-210.7c1.49-2.31,1.61-5.25.29-7.66-1.31-2.41-3.84-3.92-6.59-3.92h-343.66c-2.75,0-5.28,1.5-6.59,3.92-1.31,2.41-1.2,5.35.29,7.66l136.42,210.7c7.51,11.61,11.49,25.05,11.49,38.87v110.13c0,13.36-5.63,26.23-15.44,35.29l-21.81,20.15h22.1l9.89-9.14c12.88-11.9,20.26-28.78,20.26-46.31v-110.13c0-16.73-4.8-32.99-13.89-47.03l-3.62-5.59h65.47l-3.62,5.59c-9.09,14.04-13.89,30.3-13.89,47.03v110.13c0,17.53,7.38,34.41,20.26,46.31l9.89,9.14h22.1l-21.81-20.15c-9.81-9.07-15.44-21.93-15.44-35.29v-110.13c0-13.83,3.97-27.27,11.49-38.87h0ZM658.04,214.41l-41.45,64.02h-233.18l-41.45-64.02h316.08ZM457.55,392.94l-64.43-99.51h213.75l-64.43,99.51h-84.9,0Z"/>
      <g class="cls-25">
        <text class="cls-26" transform="translate(468.6 320.63)"><tspan x="0" y="0">10</tspan></text>
      </g>
    </g>
    <g>
      <circle class="cls-11" cx="500" cy="300.93" r="45"/>
      <g>
        <path class="cls-15" d="M471.75,318.93c-1.25,0-1.8-.55-1.8-1.8v-6.05c0-1.25.55-1.8,1.8-1.8h5.6v-16.7h-4.6c-1.25,0-1.8-.55-1.8-1.8v-6.05c0-1.25.55-1.8,1.8-1.8h14.5c1.25,0,1.8.55,1.8,1.8v24.55h4.8c1.25,0,1.8.55,1.8,1.8v6.05c0,1.25-.55,1.8-1.8,1.8h-22.1,0Z"/>
        <path class="cls-15" d="M515.8,319.68c-12.3,0-15.3-4.1-15.3-10.2v-17.05c0-6.1,3-10.25,15.3-10.25s15.25,4.15,15.25,10.25v17.05c0,6.1-2.95,10.2-15.25,10.2ZM515.8,310.03c3.45,0,4-1,4-2.35v-13.45c0-1.3-.55-2.3-4-2.3s-4,1-4,2.3v13.45c0,1.35.6,2.35,4,2.35Z"/>
      </g>
    </g>
    <g id="Text">
      <g class="cls-27">
        <path class="cls-11" d="M770.38,707.5h-18.37c-6.27,0-11.63,3.84-13.88,9.3l-20.44-24.66c-2.91-3.51-7.17-5.43-11.55-5.43-1.7,0-3.42.29-5.09.89-3.84,1.38-6.84,4.23-8.5,7.77-10.99-9.56-25.32-15.37-40.99-15.37-21.63,0-40.72,11.04-51.95,27.77-.91-.17-1.85-.27-2.81-.27h-4.25v-7.99c0-8.28-6.72-15-15-15h-18.37c-8.28,0-15,6.72-15,15v8.06c-.48-.05-.97-.07-1.46-.07h-18.37c-5.22,0-9.81,2.66-12.5,6.71v-14.7c0-8.28-6.72-15-15-15h-18.37c-8.28,0-15,6.72-15,15v2.74c-.87-.16-1.76-.25-2.66-.25-3.98,0-7.79,1.58-10.61,4.39l-3.1,3.1c-6.58-3.1-13.79-4.75-21.16-4.75-9.13,0-17.87,2.43-25.49,6.98.42-1.84.64-3.76.64-5.73,0-14.34-11.66-26-26-26-6.99,0-13.53,2.69-18.42,7.58s-7.42,11.05-7.57,17.81c-4.6.74-9.05,2.11-13.22,4.08l-3.07-3.07c-1.62-1.62-3.57-2.81-5.69-3.55v-.35c0-27.44-22.37-49.76-49.87-49.76-.5,0-1,0-1.5.02v-5.26c0-8.28-6.72-15-15-15h-18.37c-8.28,0-15,6.72-15,15v112.79l-8.37,8.37c-5.84,5.84-5.86,15.3-.05,21.17l12.76,12.87c2.81,2.83,6.63,4.43,10.62,4.44h.03c3.98,0,7.79-1.58,10.61-4.39l3.07-3.07c6.55,3.09,13.77,4.72,21.19,4.72,11.92,0,22.88-4.21,31.47-11.21,2.43,5.01,7.55,8.46,13.49,8.46h18.37c5.32,0,9.98-2.77,12.64-6.95,2.66,4.17,7.32,6.95,12.64,6.95h18.37c5.25,0,9.86-2.7,12.54-6.78,3.58,2.66,7.43,4.8,11.43,6.33v6.57c0,8.28,6.72,15,15,15h2.75c18.27,0,34.27-9.88,42.95-24.57,2.6,2.16,5.93,3.45,9.57,3.45h18.37c6.15,0,11.44-3.7,13.75-9,2.32,5.3,7.6,9,13.75,9h18.37c7.56,0,13.79-5.6,14.83-12.87,9.11,9.6,22.1,15.62,36.5,15.62h2.75c7.84,0,14.26-6.02,14.93-13.68,10.83,8.97,24.71,14.37,39.83,14.37s29.23-5.49,40.09-14.59c1.7,6.42,7.53,11.16,14.48,11.16h18.37c6.27,0,11.63-3.84,13.88-9.3l20.44,24.66c2.91,3.51,7.17,5.43,11.55,5.43,1.7,0,3.42-.29,5.09-.89,5.95-2.14,9.91-7.79,9.91-14.11v-84.92c0-8.28-6.72-15-15-15l.02-.02Z"/>
      </g>
      <g>
        <path id="Outline_Beige" data-name="Outline Beige" class="cls-10" d="M829.05,702.87c-15.7,25.43-34.33,48.99-55.76,70.42-35.5,35.5-76.84,63.38-122.86,82.84-47.63,20.15-98.25,30.36-150.44,30.36s-102.8-10.22-150.44-30.36c-46.02-19.47-87.36-47.34-122.86-82.84-21.43-21.43-40.06-45-55.76-70.42h-30.19c70.83,125.15,205.17,209.63,359.24,209.63s288.41-84.47,359.24-209.63h-30.19.02Z"/>
        <g>
          <path class="cls-10" d="M770.38,814.92c-2.19,0-4.32-.96-5.78-2.71l-32.6-39.32v13.74c0,4.14-3.36,7.5-7.5,7.5h-18.37c-4.14,0-7.5-3.36-7.5-7.5v-84.92c0-3.16,1.98-5.98,4.96-7.06.83-.3,1.69-.44,2.54-.44,2.19,0,4.32.96,5.78,2.71l32.6,39.32v-13.74c0-4.14,3.36-7.5,7.5-7.5h18.37c4.14,0,7.5,3.36,7.5,7.5v84.92c0,3.16-1.98,5.98-4.96,7.06-.83.3-1.69.44-2.54.44Z"/>
          <path class="cls-11" d="M706.14,701.71l45.87,55.33v-34.54h18.37v84.92l-45.87-55.33v34.54h-18.37v-84.92M706.13,686.71c-1.7,0-3.42.29-5.09.89-5.95,2.14-9.91,7.79-9.91,14.11v84.92c0,8.28,6.72,15,15,15h18.37c6.27,0,11.63-3.84,13.88-9.3l20.44,24.66c2.91,3.51,7.17,5.43,11.55,5.43,1.7,0,3.42-.29,5.09-.89,5.95-2.14,9.91-7.79,9.91-14.11v-84.92c0-8.28-6.72-15-15-15h-18.37c-6.27,0-11.63,3.84-13.88,9.3l-20.44-24.66c-2.91-3.51-7.17-5.43-11.55-5.43h0Z"/>
        </g>
        <g>
          <path class="cls-10" d="M309.45,729.76l12.76-12.76,11.66,11.66c6.05-5.5,14.3-8.91,23.21-8.91h1.87v18.37h-1.87c-9.24,0-16.5,7.26-16.5,16.39v32.12h-18.37v-44.11l-12.76-12.76Z"/>
          <path class="cls-10" d="M375.1,717c-6.16,0-11-4.95-11-11s4.84-11,11-11,11,4.84,11,11-4.95,11-11,11ZM384.23,786.63h-18.37v-64.13h18.37v64.13Z"/>
          <path class="cls-10" d="M425.94,719.75c8.91,0,17.05,3.41,23.21,8.91l11.66-11.66,12.76,12.76-12.76,12.76v30.36c0,19.25-15.62,34.87-34.87,34.87h-2.75v-18.7c-15.51,0-32.01-15.29-32.01-34.54s15.51-34.76,34.76-34.76ZM409.55,754.62c0,9.13,7.26,16.39,16.39,16.39s16.5-7.26,16.5-16.39-7.37-16.5-16.5-16.5-16.39,7.37-16.39,16.5Z"/>
          <path class="cls-10" d="M524.34,740.76v-18.26h18.37v64.13h-18.37v-27.5h-27.5v27.5h-18.37v-87.12h18.37v41.25h27.5Z"/>
          <path class="cls-10" d="M559.17,699.51h18.37v22.99h19.25v18.26h-19.25v14.74c0,8.8,7.15,15.62,16.5,15.62h2.75v18.26h-2.75c-18.7,0-34.87-14.63-34.87-33.88v-14.74h-9.13v-18.26h9.13v-22.99Z"/>
          <g>
            <g class="cls-24">
              <g>
                <path class="cls-7" d="M699.09,756.87c0,26.27-21.26,47.53-47.53,47.53s-47.53-21.26-47.53-47.53,21.26-47.53,47.53-47.53,47.53,21.26,47.53,47.53h0ZM618.37,757.05c0,18.32,14.86,33.01,33.19,33.01s33.19-14.69,33.19-33.01-14.86-33.36-33.19-33.36-33.19,15.04-33.19,33.36Z"/>
                <path class="cls-13" d="M699.09,760.29c0,26.27-21.26,47.53-47.53,47.53s-47.53-21.26-47.53-47.53,21.26-47.53,47.53-47.53,47.53,21.26,47.53,47.53h0ZM618.37,760.46c0,18.32,14.86,33.01,33.19,33.01s33.19-14.69,33.19-33.01-14.86-33.36-33.19-33.36-33.19,15.04-33.19,33.36Z"/>
                <path class="cls-12" d="M699.09,763.7c0,26.27-21.26,47.53-47.53,47.53s-47.53-21.26-47.53-47.53,21.26-47.53,47.53-47.53,47.53,21.26,47.53,47.53h0ZM618.37,763.87c0,18.32,14.86,33.01,33.19,33.01s33.19-14.69,33.19-33.01-14.86-33.36-33.19-33.36-33.19,15.04-33.19,33.36Z"/>
                <path class="cls-9" d="M699.09,767.12c0,26.27-21.26,47.53-47.53,47.53s-47.53-21.26-47.53-47.53,21.26-47.53,47.53-47.53,47.53,21.26,47.53,47.53h0ZM618.37,767.29c0,18.32,14.86,33.01,33.19,33.01s33.19-14.69,33.19-33.01-14.86-33.36-33.19-33.36-33.19,15.04-33.19,33.36Z"/>
                <path class="cls-14" d="M699.09,770.53c0,26.27-21.26,47.53-47.53,47.53s-47.53-21.26-47.53-47.53,21.26-47.53,47.53-47.53,47.53,21.26,47.53,47.53h0ZM618.37,770.7c0,18.32,14.86,33.01,33.19,33.01s33.19-14.69,33.19-33.01-14.86-33.36-33.19-33.36-33.19,15.04-33.19,33.36Z"/>
                <path class="cls-1" d="M699.09,773.95c0,26.27-21.26,47.53-47.53,47.53s-47.53-21.26-47.53-47.53,21.26-47.53,47.53-47.53,47.53,21.26,47.53,47.53h0ZM618.37,774.12c0,18.32,14.86,33.01,33.19,33.01s33.19-14.69,33.19-33.01-14.86-33.36-33.19-33.36-33.19,15.04-33.19,33.36Z"/>
              </g>
            </g>
            <path class="cls-10" d="M699.09,742.53c0,26.27-21.26,47.53-47.53,47.53s-47.53-21.26-47.53-47.53,21.26-47.53,47.53-47.53,47.53,21.26,47.53,47.53h0ZM618.37,742.7c0,18.32,14.86,33.01,33.19,33.01s33.19-14.69,33.19-33.01-14.86-33.36-33.19-33.36-33.19,15.04-33.19,33.36Z"/>
          </g>
          <path class="cls-10" d="M770.38,807.42l-45.87-55.33v34.54h-18.37v-84.92l45.87,55.33v-34.54h18.37v84.92Z"/>
          <path class="cls-10" d="M300.43,728.53c7.17-6.39,11.69-15.68,11.69-26.04,0-19.25-15.62-34.76-34.87-34.76-6.16,0-11.66,1.54-16.5,4.29v-24.53h-18.37v119l-12.76,12.76,12.76,12.87,11.66-11.66c6.05,5.5,14.3,8.91,23.21,8.91,19.25,0,34.87-15.62,34.87-34.87,0-10.35-4.52-19.62-11.69-25.97ZM277.25,771.01c-9.13,0-16.5-7.26-16.5-16.39s7.37-16.5,16.5-16.5,16.5,7.37,16.5,16.5-7.37,16.39-16.5,16.39ZM277.25,719c-9.13,0-16.5-7.26-16.5-16.39s7.37-16.5,16.5-16.5,16.5,7.37,16.5,16.5-7.37,16.39-16.5,16.39Z"/>
        </g>
      </g>
    </g>
    <g id="Pavilion">
      <path class="cls-11" d="M921.94,475.78h-57.7v-12.29h-252.77v12.29h0c-4.14,0-7.5,3.36-7.5,7.5s3.36,7.5,7.5,7.5h12.74v21.24h10v-21.24h12.35v21.24h10v-21.24h12.19v21.24h10v-21.24h12.19v21.24h10v-21.24h11.18v21.24h10v-21.24h11.18v21.24h10v-21.24h11.18v21.24h10v-21.24h11.18v21.24h10v-21.24h11.18v21.24h10v-21.24h11.18v21.24h10v-21.24h12.19v21.24h10v-21.24h71.73c4.14,0,7.5-3.36,7.5-7.5s-3.36-7.5-7.5-7.5h0Z"/>
      <g>
        <rect class="cls-4" x="679.57" y="417.43" width="32.73" height="58.21"/>
        <rect class="cls-4" x="721.93" y="417.43" width="32.73" height="58.21"/>
        <rect class="cls-4" x="764.29" y="417.43" width="32.73" height="58.21"/>
        <rect class="cls-4" x="806.65" y="423.04" width="32.73" height="52.6"/>
        <rect class="cls-4" x="637.21" y="423.04" width="32.73" height="52.6"/>
      </g>
      <g>
        <path class="cls-20" d="M794.53,409.43h-7.75c0-10.69-5.58-20.36-14.56-27.31,13.54,6.26,22.31,16.17,22.31,27.31Z"/>
        <path class="cls-20" d="M783.78,409.43h-8.74c0-12.84-6.11-24.21-15.44-31.15,14.37,5.93,24.18,17.67,24.18,31.15Z"/>
        <path class="cls-20" d="M751.54,376.99c12.04,5.39,20.5,17.9,20.5,32.44h-8.75c0-13.66-4.7-25.67-11.75-32.44Z"/>
        <path class="cls-20" d="M760.29,409.43h-8.75c0-13.1-2.31-26.77-6.7-33.68,8.94,4.48,15.45,17.88,15.45,33.68Z"/>
        <path class="cls-20" d="M748.54,409.43h-20.49c0-17.53,3.84-30.58,7.95-34.23.77-.02,1.53-.04,2.3-.04s1.53.02,2.3.04c4.1,3.65,7.94,16.7,7.94,34.23Z"/>
        <path class="cls-20" d="M731.76,375.75c-4.39,6.91-6.71,20.58-6.71,33.68h-8.74c0-15.8,6.51-29.2,15.45-33.68Z"/>
        <path class="cls-20" d="M725.06,376.99c-7.05,6.77-11.75,18.78-11.75,32.44h-8.75c0-14.54,8.46-27.05,20.5-32.44Z"/>
        <path class="cls-20" d="M717,378.28c-9.34,6.95-15.44,18.31-15.44,31.15h-8.74c0-13.48,9.81-25.22,24.18-31.15Z"/>
        <path class="cls-20" d="M704.38,382.12c-8.98,6.95-14.56,16.62-14.56,27.31h-7.75c0-11.14,8.77-21.05,22.31-27.31Z"/>
        <path class="cls-11" d="M689.82,409.43c0-10.69,5.58-20.36,14.56-27.31-13.54,6.26-22.31,16.17-22.31,27.31h7.75ZM783.78,409.43c0-13.48-9.81-25.22-24.18-31.15,9.33,6.94,15.44,18.31,15.44,31.15h8.74ZM772.22,382.12c8.98,6.95,14.56,16.62,14.56,27.31h7.75c0-11.14-8.77-21.05-22.31-27.31ZM701.56,409.43c0-12.84,6.1-24.2,15.44-31.15-14.37,5.93-24.18,17.67-24.18,31.15h8.74ZM713.31,409.43c0-13.66,4.7-25.67,11.75-32.44-12.04,5.39-20.5,17.9-20.5,32.44h8.75ZM725.05,409.43c0-13.1,2.32-26.77,6.71-33.68-8.94,4.48-15.45,17.88-15.45,33.68h8.74ZM748.54,409.43c0-17.53-3.84-30.58-7.94-34.23-.77-.02-1.53-.04-2.3-.04s-1.53.02-2.3.04c-4.11,3.65-7.95,16.7-7.95,34.23h20.49ZM760.29,409.43c0-15.8-6.51-29.2-15.45-33.68,4.39,6.91,6.7,20.58,6.7,33.68h8.75ZM751.54,376.99c7.05,6.77,11.75,18.78,11.75,32.44h8.75c0-14.54-8.46-27.05-20.5-32.44ZM847.39,475.64v8h-218.18v-68.6c0-2.21,1.79-4,4-4s4,1.79,4,4h34.36v-5.61h5.5c0-19.5,22.28-35.72,51.37-38.75l7.03-13.15c-1.89-1.01-3.17-3-3.17-5.29,0-2.62,1.67-4.83,4-5.66v-16.79h4v16.79c2.33.83,4,3.04,4,5.66,0,2.29-1.28,4.28-3.17,5.29l7.03,13.15c29.09,3.03,51.37,19.25,51.37,38.75h5.5v5.61h34.36c0-2.21,1.79-4,4-4s4,1.79,4,4v60.6h0ZM839.39,475.64v-52.6h-32.74v52.6h32.74ZM797.03,475.64v-58.21h-32.74v58.21h32.74ZM754.67,475.64v-58.21h-32.74v58.21h32.74ZM712.31,475.64v-58.21h-32.74v58.21h32.74ZM669.94,475.64v-52.6h-32.73v52.6h32.73Z"/>
      </g>
      <g>
        <ellipse class="cls-11" cx="738.3" cy="442.51" rx="10.9" ry="14.81"/>
        <circle class="cls-10" cx="738.3" cy="446.98" r="5.39"/>
      </g>
      <ellipse class="cls-11" cx="738.3" cy="475.64" rx="10.9" ry="14.81"/>
      <g>
        <ellipse class="cls-11" cx="653.58" cy="444.51" rx="10.9" ry="14.81"/>
        <circle class="cls-10" cx="653.58" cy="448.98" r="5.39"/>
      </g>
      <g>
        <ellipse class="cls-11" cx="695.94" cy="442.51" rx="10.9" ry="14.81"/>
        <circle class="cls-10" cx="695.94" cy="446.98" r="5.39"/>
      </g>
      <g>
        <ellipse class="cls-11" cx="780.66" cy="442.51" rx="10.9" ry="14.81"/>
        <circle class="cls-10" cx="780.66" cy="446.98" r="5.39"/>
      </g>
      <g>
        <ellipse class="cls-11" cx="823.02" cy="444.51" rx="10.9" ry="14.81"/>
        <circle class="cls-10" cx="823.02" cy="448.98" r="5.39"/>
      </g>
    </g>
    <path class="cls-6" d="M271.67,441.15c6.51,8.87,6.8,19.19,0,28.86-6.8-9.67-6.51-20,0-28.86h0Z"/>
    <path class="cls-6" d="M148.5,492.8v1c-.97.17-2,1.29-2,2.38,0,1.18.3,1.67,1.02,2.41.13.12.11.3,0,.54l-3.91,8.55h-4.21c-.34,0-.62-.2-.31-.76l4.13-7.44c.17-.31.19-.52,0-.67-1.09-.92-1.55-1.52-1.55-3s1.83-3,3.39-3h3.45,0Z"/>
    <path class="cls-6" d="M259.39,492.8v1c-.97.17-2.01,1.29-2.01,2.38,0,1.18.3,1.67,1.03,2.41.13.12.11.3,0,.54l-3.91,8.55h-4.22c-.34,0-.61-.2-.3-.76l4.13-7.44c.16-.31.19-.52,0-.67-1.09-.92-1.55-1.52-1.55-3s1.83-3,3.39-3h3.45,0Z"/>
    <path class="cls-6" d="M245.25,492.8v1c-.97.17-2,1.29-2,2.38,0,1.18.31,1.67,1.02,2.41.13.12.11.3,0,.54l-3.9,8.55h-4.22c-.34,0-.61-.2-.3-.76l4.12-7.44c.17-.31.19-.52,0-.67-1.08-.92-1.56-1.52-1.56-3s1.83-3,3.39-3h3.45Z"/>
    <path class="cls-6" d="M231.33,492.8v1c-.97.17-2,1.29-2,2.38,0,1.18.3,1.67,1.02,2.41.13.12.11.3,0,.54l-3.91,8.55h-4.21c-.35,0-.62-.2-.3-.76l4.12-7.44c.17-.31.19-.52,0-.67-1.09-.92-1.55-1.52-1.55-3s1.83-3,3.39-3h3.45,0Z"/>
    <path class="cls-6" d="M217.42,492.8v1c-.97.17-2.01,1.29-2.01,2.38,0,1.18.3,1.67,1.03,2.41.13.12.11.3,0,.54l-3.91,8.55h-4.21c-.34,0-.62-.2-.3-.76l4.12-7.44c.17-.31.19-.52,0-.67-1.09-.92-1.55-1.52-1.55-3s1.83-3,3.39-3h3.45,0Z"/>
    <path class="cls-6" d="M203.27,492.8v1c-.97.17-2.01,1.29-2.01,2.38,0,1.18.31,1.67,1.03,2.41.13.12.11.3,0,.54l-3.91,8.55h-4.22c-.34,0-.61-.2-.3-.76l4.13-7.44c.17-.31.19-.52,0-.67-1.09-.92-1.56-1.52-1.56-3s1.83-3,3.39-3h3.45Z"/>
    <g>
      <path class="cls-19" d="M412.06,454.11c-6.89-2.55-12.01-8.56-13.46-15.77-2.29-11.4-7.6-19.38-13.79-19.38s-11.5,7.98-13.79,19.38c-1.45,7.21-6.57,13.21-13.46,15.77-16.56,6.13-27.72,17.68-27.72,30.93,0,19.67,24.61,35.62,54.97,35.62s54.97-15.95,54.97-35.62c0-13.24-11.16-24.79-27.72-30.93Z"/>
      <g class="cls-30">
        <path class="cls-4" d="M428.67,454.11c-6.89-2.55-12.01-8.56-13.46-15.77-2.29-11.4-7.6-19.38-13.79-19.38s-11.5,7.98-13.79,19.38c-1.45,7.21-6.57,13.21-13.46,15.77-16.56,6.13-27.72,17.68-27.72,30.93,0,19.67,24.61,35.62,54.97,35.62s54.97-15.95,54.97-35.62c0-13.24-11.16-24.79-27.72-30.93Z"/>
      </g>
      <path class="cls-11" d="M391.44,416.05c0-1.29-1.3-2.42-3.24-3.02,1.06-.73,1.74-1.8,1.74-3.01,0-1.51-1.06-2.82-2.62-3.5.61-1.08.98-2.54.98-4.16,0-2.39-.82-4.45-2-5.41v-.78c2.59-.67,4.5-3.01,4.5-5.8s-1.91-5.14-4.5-5.8v-14.65h-3v14.65c-2.59.67-4.5,3.01-4.5,5.8s1.91,5.14,4.5,5.8v.78c-1.18.96-2,3.02-2,5.41,0,1.66.4,3.17,1.03,4.26-1.43.7-2.4,1.96-2.4,3.4,0,1.21.68,2.27,1.74,3.01-1.93.61-3.24,1.73-3.24,3.02,0,1.63,2.07,2.99,4.87,3.38v3.6h3v-3.57c2.93-.34,5.13-1.74,5.13-3.42h0Z"/>
      <g>
        <polygon class="cls-21" points="339.94 490.31 346.44 498.98 352.94 490.31 346.44 481.63 339.94 490.31"/>
        <polygon class="cls-21" points="359.19 490.31 365.69 498.98 372.19 490.31 365.69 481.63 359.19 490.31"/>
        <polygon class="cls-21" points="378.44 490.31 384.94 498.98 391.44 490.31 384.94 481.63 378.44 490.31"/>
        <polygon class="cls-21" points="397.69 490.31 404.19 498.98 410.69 490.31 404.19 481.63 397.69 490.31"/>
        <polygon class="cls-21" points="416.94 490.31 423.44 498.98 429.94 490.31 423.44 481.63 416.94 490.31"/>
      </g>
    </g>
    <g>
      <path class="cls-11" d="M206.42,344.32c0-1.62-1.64-3.03-4.06-3.8,1.33-.92,2.18-2.26,2.18-3.78,0-1.9-1.34-3.54-3.28-4.39.76-1.35,1.23-3.19,1.23-5.23,0-3-1.03-5.59-2.51-6.8v-.98c3.25-.84,5.65-3.78,5.65-7.29s-2.4-6.45-5.65-7.29v-18.39h-3.77v18.39c-3.25.84-5.65,3.78-5.65,7.29s2.4,6.45,5.65,7.29v.98c-1.48,1.21-2.51,3.79-2.51,6.8,0,2.09.5,3.98,1.3,5.34-1.8.88-3.01,2.46-3.01,4.27,0,1.51.86,2.86,2.18,3.78-2.43.76-4.06,2.17-4.06,3.8,0,2.04,2.6,3.76,6.11,4.25v4.52h3.77v-4.48c3.68-.42,6.44-2.19,6.44-4.29h-.01Z"/>
      <path class="cls-19" d="M276.21,452.72c0-28.05-21.25-51.94-51.02-61.05-10.57-3.23-17.54-13.19-17.5-24.25v-.26c0-13.24-4.22-23.97-9.43-23.97s-9.43,10.73-9.43,23.97v.4c.07,11.03-6.88,20.96-17.42,24.22-29.6,9.18-50.7,33-50.7,60.94,0,16.59,7.45,31.73,19.69,43.22h-7.05v21.93h129.8v-21.93h-6.64c12.24-11.49,19.69-26.62,19.69-43.22h.01Z"/>
      <g class="cls-28">
        <path class="cls-4" d="M300.45,452.72c0-28.05-21.25-51.94-51.02-61.05-10.57-3.23-17.54-13.19-17.5-24.25v-.26c0-13.24-4.22-23.97-9.43-23.97s-9.43,10.73-9.43,23.97v.4c.07,11.03-6.88,20.96-17.42,24.22-29.6,9.18-50.7,33-50.7,60.94,0,16.59,7.45,31.73,19.69,43.22h-7.05v21.93h129.8v-21.93h-6.64c12.24-11.49,19.69-26.62,19.69-43.22h.01Z"/>
      </g>
      <g>
        <polygon class="cls-22" points="135.97 464.73 144.97 476.74 153.97 464.73 144.97 452.72 135.97 464.73"/>
        <polygon class="cls-22" points="162.62 464.73 171.62 476.74 180.62 464.73 171.62 452.72 162.62 464.73"/>
        <polygon class="cls-22" points="189.27 464.73 198.26 476.74 207.26 464.73 198.26 452.72 189.27 464.73"/>
        <polygon class="cls-22" points="215.91 464.73 224.91 476.74 233.91 464.73 224.91 452.72 215.91 464.73"/>
        <polygon class="cls-22" points="242.56 464.73 251.56 476.74 260.56 464.73 251.56 452.72 242.56 464.73"/>
      </g>
    </g>
    <rect class="cls-11" x="118.7" y="512.02" width="323.74" height="10.86"/>
    <g>
      <g>
        <path class="cls-5" d="M309.99,480.49v-8.3c0-2.39-1.06-4.53-2.72-6,1.66-1.47,2.72-3.61,2.72-6v-66.13c0-2.39-1.06-4.53-2.72-6,1.66-1.47,2.72-3.61,2.72-6v-26.13c0-3.91-2.8-7.15-6.5-7.85v-15.05h-3v15.05c-3.7.7-6.5,3.95-6.5,7.85v26.13c0,2.39,1.06,4.53,2.72,6-1.66,1.47-2.72,3.61-2.72,6v66.13c0,2.39,1.06,4.53,2.72,6-1.66,1.47-2.72,3.61-2.72,6v8.3c-1.25,1.67-2,3.74-2,5.98v25.54h20v-25.54c0-2.25-.75-4.31-2-5.98Z"/>
        <g class="cls-31">
          <path class="cls-4" d="M313.99,480.49v-8.3c0-2.39-1.06-4.53-2.72-6,1.66-1.47,2.72-3.61,2.72-6v-66.13c0-2.39-1.06-4.53-2.72-6,1.66-1.47,2.72-3.61,2.72-6v-26.13c0-3.91-2.8-7.15-6.5-7.85v-15.05h-3v15.05c-3.7.7-6.5,3.95-6.5,7.85v26.13c0,2.39,1.06,4.53,2.72,6-1.66,1.47-2.72,3.61-2.72,6v66.13c0,2.39,1.06,4.53,2.72,6-1.66,1.47-2.72,3.61-2.72,6v8.3c-1.25,1.67-2,3.74-2,5.98v25.54h20v-25.54c0-2.25-.75-4.31-2-5.98Z"/>
        </g>
        <path class="cls-11" d="M303.49,333.03v15.05c3.7.7,6.5,3.95,6.5,7.85v26.13c0,2.39-1.06,4.53-2.72,6,1.66,1.47,2.72,3.61,2.72,6v66.13c0,2.39-1.06,4.53-2.72,6,1.66,1.47,2.72,3.61,2.72,6v8.3c1.25,1.67,2,3.74,2,5.98v25.54h-20v-25.54c0-2.25.75-4.31,2-5.98v-8.3c0-2.39,1.06-4.53,2.72-6-1.66-1.47-2.72-3.61-2.72-6v-66.13c0-2.39,1.06-4.53,2.72-6-1.66-1.47-2.72-3.61-2.72-6v-26.13c0-3.91,2.8-7.15,6.5-7.85v-15.05h3M303.49,329.03h-3c-2.21,0-4,1.79-4,4v12.24c-3.91,2.01-6.5,6.09-6.5,10.66v26.13c0,2.13.57,4.19,1.61,6-1.05,1.81-1.61,3.87-1.61,6v66.13c0,2.13.57,4.19,1.61,6-1.05,1.81-1.61,3.87-1.61,6v7.09c-1.31,2.17-2,4.64-2,7.2v25.54c0,2.21,1.79,4,4,4h20c2.21,0,4-1.79,4-4v-25.54c0-2.56-.69-5.02-2-7.2v-7.09c0-2.13-.57-4.19-1.61-6,1.05-1.81,1.61-3.87,1.61-6v-66.13c0-2.13-.57-4.19-1.61-6,1.05-1.81,1.61-3.87,1.61-6v-26.13c0-4.58-2.59-8.65-6.5-10.66v-12.24c0-2.21-1.79-4-4-4h0Z"/>
      </g>
      <path class="cls-11" d="M297.71,458.63c-.83,0-1.5-.67-1.5-1.5v-60c0-.83.67-1.5,1.5-1.5s1.5.67,1.5,1.5v60c0,.83-.67,1.5-1.5,1.5Z"/>
      <path class="cls-11" d="M301.99,458.63c-.83,0-1.5-.67-1.5-1.5v-60c0-.83.67-1.5,1.5-1.5s1.5.67,1.5,1.5v60c0,.83-.67,1.5-1.5,1.5Z"/>
      <path class="cls-11" d="M297.71,377.53c-.83,0-1.5-.67-1.5-1.5v-20c0-.83.67-1.5,1.5-1.5s1.5.67,1.5,1.5v20c0,.83-.67,1.5-1.5,1.5Z"/>
      <path class="cls-11" d="M301.99,374.53c-.83,0-1.5-.67-1.5-1.5v-20c0-.83.67-1.5,1.5-1.5s1.5.67,1.5,1.5v20c0,.83-.67,1.5-1.5,1.5Z"/>
    </g>
    <path id="Seagull_Fire" data-name="Seagull Fire" class="cls-23" d="M603.68,127.83c5.24.02,42.07,9.58,50.06,9.56.37,0,.67-.02.87-.07-.09-.08-.2-.17-.33-.28-.43-.34-1.17-.8-2.19-1.34-2.03-1.08-5.26-2.57-9.87-4.5-9.64-4.07-41.73-13.19-52.59-13.17-22.82-.02-54.67,19.11-63.86,23.46,6.7,4.52,12.74,8.39,17.09,10.2.4.17.57.62.42,1.01-.18.4-.63.59-1.03.42-7.57-3.18-19.46-11.92-31.36-19.88-11.85-7.97-23.81-15.09-30.68-15.03-18.49-.02-58.2,15.83-83.58,21.43-22.33,4.95-47.6,6.7-52.68,7.03.28.66,1.08,1.72,3.22,2.85,3.5,1.81,10.62,3.66,24.7,3.66,8.45,0,19.4-.65,33.58-2.36,21.87-2.61,35.34-3.89,44.58-3.89,14.48-.04,18.59,3.3,27.24,9.34.34.24.43.73.19,1.08-.25.34-.71.43-1.06.19-1.41-.97-2.66-1.86-3.85-2.66-4.49,1.13-11.48,2.75-13.8,3.5-9.99,3.22-20.07,4.25-29.32,4.25-15.58,0-28.72-2.86-35.34-2.88-1.79.02-3.15.18-4.12.91-1.36,1.08-1.97,2.72-1.97,4.47.05,5.28,4.87,12.39,11.37,17.24,8.56,6.33,17.3,7.2,22.27,7.2,5.52-.07,16.57-6.84,29.44-6.81.99,0,1.98.05,3,.14,16.89,1.44,46.18,9.77,60.66,9.79,19.06,0,43.42-9.23,52.74-12.18,9.86-3.13,16.37-3.74,20.83-4.69,11.33-1.95,20.78.9,20.78.9v-.02h0c.01-.25.01-.49,0-.72-.42-7.83-14.44-10.92-18.45-11.14-3.32-.64-8.86-5.55-14.25-9.55-5.02-3.71-11-5.86-17.23-6.2,2.77-1.45,5.6-3.1,8.39-4.91,9.55-6.2,27.93-16.31,36.11-16.35h.02Z"/>
    <g>
      <g>
        <g>
          <path class="cls-10" d="M826.82,948.76h-20.13v-84.37h20.13v14.71c4.83-2.43,10.15-3.71,15.62-3.71h7.37v20.24h-7.37c-8.61,0-15.62,6.96-15.62,15.51v37.62ZM817.69,901.21v.17c.04-.1.08-.19.12-.29l-.12.12Z"/>
          <path class="cls-10" d="M777.34,864.39v14.71c-4.83-2.43-10.15-3.71-15.62-3.71-19.71,0-35.75,16.04-35.75,35.75s16.04,35.75,35.75,35.75c5.37,0,10.74-1.27,15.62-3.62v14.62h20.13v-93.5h-20.13Z"/>
          <path class="cls-10" d="M895.08,850.64v28.46c-4.83-2.43-10.15-3.71-15.62-3.71-19.71,0-35.75,16.04-35.75,35.75s16.04,35.75,35.75,35.75c5.37,0,10.74-1.27,15.62-3.62v14.62h20.13v-107.25h-20.13Z"/>
          <path class="cls-10" d="M916.16,969.88h-8.25v-20.13h8.25c8.61,0,15.62-7.01,15.62-15.62v-49.5c0-19.71,16.04-35.75,35.75-35.75h8.25v20.13h-8.25c-8.61,0-15.62,7.01-15.62,15.62v49.5c0,19.71-16.04,35.75-35.75,35.75Z"/>
          <polygon class="cls-10" points="698.54 958.49 675.67 906.26 652.8 958.49 618.23 879.87 636.93 871.95 652.77 907.91 675.67 855.63 698.56 907.91 714.4 871.95 733.11 879.87 698.54 958.49"/>
          <path class="cls-10" d="M598.88,864.39v14.71c-4.83-2.43-10.15-3.71-15.62-3.71-19.71,0-35.75,16.04-35.75,35.75s16.04,35.75,35.75,35.75c5.37,0,10.74-1.27,15.62-3.62v14.62h20.13v-93.5h-20.13Z"/>
        </g>
        <g>
          <path class="cls-11" d="M604.38,952.39v-19.47c-5.5,5.17-13.09,8.47-21.12,8.47-16.72,0-30.25-13.64-30.25-30.25s13.42-30.25,30.25-30.25c8.25,0,15.62,3.41,21.12,8.91v-19.91h9.13v82.5h-9.13ZM562.14,911.25c0,11.66,9.46,21.01,21.12,21.01s21.12-9.35,21.12-21.01-9.46-21.23-21.12-21.23-21.12,9.57-21.12,21.23Z"/>
          <path class="cls-11" d="M652.79,921.59l22.88-52.25,22.88,52.25,18.7-42.46,8.58,3.63-27.28,62.04-22.88-52.25-22.88,52.25-27.28-62.04,8.58-3.63,18.7,42.46Z"/>
          <path class="cls-11" d="M782.84,952.39v-19.47c-5.5,5.17-13.09,8.47-21.12,8.47-16.72,0-30.25-13.64-30.25-30.25s13.42-30.25,30.25-30.25c8.25,0,15.62,3.41,21.12,8.91v-19.91h9.13v82.5h-9.13ZM740.6,911.25c0,11.66,9.46,21.01,21.12,21.01s21.12-9.35,21.12-21.01-9.46-21.23-21.12-21.23-21.12,9.57-21.12,21.23Z"/>
          <path class="cls-11" d="M821.32,869.89v19.91c5.5-5.5,12.87-8.91,21.12-8.91h1.87v9.24h-1.87c-11.66,0-21.12,9.46-21.12,21.01v32.12h-9.13v-73.37h9.13Z"/>
          <path class="cls-11" d="M900.58,952.39v-19.47c-5.5,5.17-13.09,8.47-21.12,8.47-16.72,0-30.25-13.64-30.25-30.25s13.53-30.25,30.25-30.25c8.25,0,15.62,3.41,21.12,8.91v-33.66h9.13v96.25h-9.13ZM858.34,911.25c0,11.66,9.46,21.01,21.12,21.01s21.12-9.35,21.12-21.01-9.46-21.23-21.12-21.23-21.12,9.57-21.12,21.23Z"/>
          <path class="cls-11" d="M967.53,854.38h2.75v9.13h-2.75c-11.66,0-21.12,9.57-21.12,21.12v49.5c0,16.72-13.53,30.25-30.25,30.25h-2.75v-9.13h2.75c11.66,0,21.12-9.57,21.12-21.12v-49.5c0-16.72,13.53-30.25,30.25-30.25Z"/>
        </g>
      </g>
      <g>
        <g>
          <path class="cls-10" d="M525.52,909.76h-20.13v-84.37h20.13v14.71c4.83-2.43,10.15-3.71,15.62-3.71h7.37v20.24h-7.37c-8.61,0-15.62,6.96-15.62,15.51v37.62ZM516.39,862.21v.17c.04-.1.08-.19.12-.29l-.12.12Z"/>
          <path class="cls-10" d="M476.04,825.39v14.71c-4.83-2.43-10.15-3.71-15.62-3.71-19.71,0-35.75,16.04-35.75,35.75s16.04,35.75,35.75,35.75c5.37,0,10.74-1.27,15.62-3.62v14.62h20.13v-93.5h-20.13Z"/>
          <path class="cls-10" d="M388.48,836.39c-5.48,0-10.79,1.28-15.62,3.71v-28.46h-20.13v71.64l-16.69,16.69,14.49,14.49,15-15c6.44,5.41,14.54,8.43,22.95,8.43,19.71,0,35.75-16.04,35.75-35.75s-16.04-35.75-35.75-35.75Z"/>
        </g>
        <g>
          <path class="cls-11" d="M520.02,830.89v19.91c5.5-5.5,12.87-8.91,21.12-8.91h1.87v9.24h-1.87c-11.66,0-21.12,9.46-21.12,21.01v32.12h-9.13v-73.37h9.13Z"/>
          <path class="cls-11" d="M481.54,913.39v-19.47c-5.5,5.17-13.09,8.47-21.12,8.47-16.72,0-30.25-13.64-30.25-30.25s13.42-30.25,30.25-30.25c8.25,0,15.62,3.41,21.12,8.91v-19.91h9.13v82.5h-9.13ZM439.3,872.25c0,11.66,9.46,21.01,21.12,21.01s21.12-9.35,21.12-21.01-9.46-21.23-21.12-21.23-21.12,9.57-21.12,21.23Z"/>
          <path class="cls-11" d="M388.48,841.89c16.72,0,30.25,13.64,30.25,30.25s-13.53,30.25-30.25,30.25c-9.24,0-17.49-4.29-22.99-10.67l-14.96,14.96-6.71-6.71,14.41-14.41v-68.42h9.13v33.66c5.5-5.5,12.87-8.91,21.12-8.91h0ZM367.36,872.25c0,11.66,9.46,21.01,21.12,21.01s21.12-9.35,21.12-21.01-9.46-21.23-21.12-21.23-21.12,9.57-21.12,21.23Z"/>
        </g>
      </g>
    </g>
  </g>
</svg>